<svg height="400" width="720"><g><line x1="10" x2="600" y1="300" y2="300" stroke="#d3d3d3" stroke-width="0.5px"></line><text fill="#adadad" x="10" y="295">20%</text><line x1="10" x2="600" y1="230" y2="230" stroke="#d3d3d3" stroke-width="0.5px"></line><text fill="#adadad" x="10" y="225">40%</text><line x1="10" x2="600" y1="160" y2="160" stroke="#d3d3d3" stroke-width="0.5px"></line><text fill="#adadad" x="10" y="155">60%</text><line x1="10" x2="600" y1="89.99999999999999" y2="89.99999999999999" stroke="#d3d3d3" stroke-width="0.5px"></line><text fill="#adadad" x="10" y="84.99999999999999">80%</text><line x1="10" x2="600" y1="20" y2="20" stroke="#d3d3d3" stroke-width="0.5px"></line><text fill="#adadad" x="10" y="15">100%</text></g><path d="M10,370L12.398780281212943,370L14.797560562425884,370L17.19634084363883,370L19.595121124851772,370L21.993901406064715,370L24.392681687277655,370L26.791461968490594,370L29.19024224970354,370L31.589022530916484,370L33.98780281212943,370L36.38658309334237,370L38.78536337455531,370L41.18414365576825,370L43.58292393698119,369.968465627534L45.98170421819414,369.968465627534L48.38048449940708,369.968465627534L50.779264780620025,369.968465627534L53.17804506183297,369.968465627534L55.57682534304591,369.968465627534L57.97560562425886,369.968465627534L60.37438590547179,369.968465627534L62.77316618668473,369.968465627534L65.17194646789768,369.968465627534L67.57072674911062,369.94744271255666L69.96950703032357,369.94744271255666L72.3682873115365,369.94744271255666L74.76706759274946,369.92641979757934L77.16584787396238,369.8948854251134L79.56462815517533,369.8843739676247L81.96340843638828,369.8843739676247L84.36218871760123,369.8633510526474L86.76096899881416,369.84232813767005L89.15974928002711,369.84232813767005L91.55852956124005,369.83181668018136L93.95730984245297,369.83181668018136L96.35609012366594,369.8002823077154L98.75487040487887,369.7477250202721L101.15365068609182,369.7477250202721L103.55243096730476,369.7372135627834L105.95121124851772,369.7267021052948L108.34999152973064,369.7161906478061L110.74877181094358,369.7056791903175L113.14755209215653,369.69516773282874L115.54633237336947,369.67414481785147L117.94511265458243,369.66363336036284L120.34389293579537,369.65312190287415L122.7426732170083,369.64261044538546L125.14145349822124,369.5900531579421L127.54023377943417,369.5795417004535L129.93901406064714,369.56903024296486L132.33779434186008,369.5480073279875L134.736574623073,369.5269844130102L137.13535490428595,369.50596149803283L139.5341351854989,369.4744271255669L141.93291546671185,369.4744271255669L144.33169574792475,369.4639156680782L146.73047602913775,369.4639156680782L149.12925631035066,369.4428927531009L151.52803659156362,369.43238129561223L153.92681687277656,369.43238129561223L156.3255971539895,369.43238129561223L158.72437743520246,369.43238129561223L161.1231577164154,369.4008469231462L163.52193799762833,369.4008469231462L165.92071827884126,369.4008469231462L168.31949856005423,369.3903354656576L170.71827884126714,369.3903354656576L173.1170591224801,369.3903354656576L175.51583940369304,369.37982400816895L177.91461968490594,369.37982400816895L180.3133999661189,369.37982400816895L182.71218024733187,369.37982400816895L185.11096052854484,369.37982400816895L187.50974080975774,369.34828963570294L189.90852109097068,369.34828963570294L192.30730137218364,369.3167552632369L194.70608165339655,369.2957323482596L197.10486193460952,369.2957323482596L199.50364221582245,369.2747094332823L201.90242249703545,369.2747094332823L204.30120277824835,369.2431750608163L206.6999830594613,369.2326636033276L209.09876334067425,369.2116406883503L211.49754362188716,369.2011292308617L213.89632390310013,369.190617773373L216.29510418431306,369.0855031984863L218.69388446552603,369.0119229960657L221.09266474673893,368.9698771661111L223.49144502795187,368.91731987866774L225.79027613078097,368.7596480163378L228.1890564119939,368.66504489893987L230.58783669320684,368.55993032405325L232.9866169744198,368.4443042916779L235.38539725563274,368.2656095143707L237.78417753684568,368.20254076943866L240.1829578180586,368.0553803645974L242.58173809927155,367.91873141724477L244.98051838048448,367.8031053848696L247.37929866169742,367.6559449800282L249.7780789429104,367.5508304051416L252.17685922412332,367.30906688290236L254.57563950533628,367.19344085052705L256.9744197865492,366.8255398384239L259.3732000677622,366.45763882632065L261.7719803489751,365.9425774093762L264.17076063018806,365.3013785025678L266.569540911401,364.9229660329759L268.9683211926139,364.4814848184521L271.36710147382684,363.95591194401896L273.7658817550398,363.88233174159836L276.16466203625276,363.72465987926836L278.5634423174657,363.39880469711983L280.96222259867864,362.894254737664L283.3610028798916,361.0442382196594L285.75978316110456,359.7303060335766L288.1585634423175,356.5558458720005L290.55734372353044,354.6742949815299L292.95612400474334,353.70724089257294L295.35490428595625,352.5930263987747L297.7536845671693,349.6708412169264L300.1524648483822,347.38985494188665L302.5512451295951,344.75147911223235L304.95002541080805,340.5784304892333L307.348805692021,340.47331591434664L309.747585973234,339.590353485299L312.14636625444695,338.51818482145535L314.5451465356598,337.71931405231703L316.94392681687276,336.8258401657807L319.34270709808567,335.5854881821185L321.7414873792987,334.35564765594495L324.1402676605116,334.1454185061717L326.53904794172456,333.9141664414212L328.9378282229375,333.577799801784L331.3366085041504,333.07324984232815L333.7353887853634,332.28489053067847L336.1341690665763,331.3703937291648L338.53294934778927,330.9184010571523L340.9317296290022,330.7607291948224L343.3305099102152,330.5294771300718L345.7292901914281,329.6780490734901L348.128070472641,329.2891251464096L350.5268507538539,328.88968976184043L352.9256310350669,328.12235336516807L355.3244113162799,327.74394089557615L357.7231915974928,327.6598492356669L360.1219718787058,327.4075742559389L362.5207521599187,326.9660930414152L364.9195324411316,325.8729014625942L367.31831272234456,319.6501186293059L369.7170930035575,311.1358380634892L372.11587328477043,299.31044838874374L374.5146535659834,296.7036069315554L376.91343384719636,292.7933447457729L379.31221412840927,288.6202961227738L381.71099440962223,284.95179745923053L384.10977469083514,281.16767276331194L386.5085549720481,275.5125086344115L388.90733525326107,268.4067633720756L391.30611553447403,267.21896867585673L393.704895815687,265.3899750728294L396.10367609689985,264.0024626843259L398.5024563781128,260.6387962879539L400.9012366593258,257.73763402108295L403.30001694053874,255.91915187554434L405.69879722175165,255.20437276631526L408.0975775029646,254.5526624020182L410.4963577841775,254.54215094452954L412.8951380653905,253.3964020782653L415.2939183466034,251.67252305012465L417.69269862781636,249.89608673454063L420.0914789090293,248.15118479142262L422.4902591902422,246.7952067753852L424.88903947145525,246.332702645884L427.28781975266816,245.5758777067003L429.68660003388106,244.96621317235787L432.08538031509397,243.89404450851427L434.484160596307,242.128119650419L436.8829408775199,241.27669159383728L439.28172115873286,240.62498122954017L441.68050143994583,240.22554584497104L444.07928172115874,239.2164459260594L446.4780620023717,238.10223143226116L448.8768422835846,237.0826200558609L451.2756225647976,235.20106916539027L453.6744028460105,234.28657236387664L456.07318312722344,233.5717932546476L458.4719634084364,233.1723578700784L460.8707436896493,232.61525062317924L463.2695239708622,232.06865483376882L465.6683042520752,231.18569240472115L468.06708453328815,229.5984623239331L470.4658648145011,228.47373637264616L472.8646450957141,228.03225515812235L475.263425376927,227.5382166561552L477.6622056581399,227.0862239841427L480.06098593935286,226.51860527975495L482.4597662205658,225.48848244586597L484.85854650177873,224.34273357960177L487.2573267829917,223.31261074571285L489.65610706420466,222.92368681863232L492.0548873454176,222.91317536114366L494.45366762663053,222.38760248671048L496.85244790784344,221.92509835720935L499.2512281890564,221.3154338228669L501.6500084702693,220.18019641409134L504.04878875148233,219.33927981499835L506.44756903269524,218.89779860047452L508.8463493139082,218.58245487581468L511.24512959512106,218.0568820013815L513.6439098763341,217.62591224434632L516.042690157547,216.9426675075833L518.4414704387599,215.83896447127367L520.8402507199729,214.9349791272487L523.2390310011859,214.36736042286088L525.6378112823987,213.76820734600716L528.0365915636118,213.13751989668737L530.4353718448245,212.2545574676397L532.8341521260376,210.89857945160222L535.2329324072506,209.77385350031534L537.6317126884635,208.6386160915398L540.0304929696765,208.15508904706132L542.4292732508893,207.5874703426735L544.8280535321023,206.80962248851253L547.2268338133152,205.92666005946484L549.6256140945281,204.51812475598405L552.0243943757412,202.7206655254227L554.4231746569542,201.53287082920383L556.8219549381671,200.77604589002013L559.22073521938,199.1152356068114L561.6195155005929,197.9169294531039L564.0182957818058,196.90782953419227L566.4170760630188,195.39417965582484L568.8158563442317,194.0276901822987L571.2146366254448,191.6626122473496L573.6134169066576,190.53788629606268L576.0121971878706,189.3080457698892L578.4109774690835,187.84695317896507L580.8097577502964,186.322791843109L583.2085380315094,184.34663783524041L585.6073183127223,183.1483316815329L588.0060985939353,181.26678079106227L590.4048788751483,180.28921524461666L592.8036591563612,179.5954590503649L595.2024394375741,178.77556536624923L597.601219718787,178.07129771450883L600,177.12526654052917" stroke="#4e79a7" stroke-width="4" fill="none"></path><path d="M10,369.99828558273043L12.398780281212943,369.99657116546086L14.797560562425884,369.8268438557734L17.19634084363883,369.40166837291997L19.595121124851772,369.0604993362756L21.993901406064715,368.8136232494576L24.392681687277655,368.16557352156L26.791461968490594,367.91869743474194L29.19024224970354,367.615245578028L31.589022530916484,367.51580937639295L33.98780281212943,367.51580937639295L36.38658309334237,367.1729259224789L38.78536337455531,367.0992059798874L41.18414365576825,366.7786099504778L43.58292393698119,366.30714520134603L45.98170421819414,365.8579678767187L48.38048449940708,365.6368080489442L50.779264780620025,365.5682313581613L53.17804506183297,365.04019083913374L55.57682534304591,365.0196178318989L57.97560562425886,364.7453110687677L60.37438590547179,364.17098128346174L62.77316618668473,363.60350916723405L65.17194646789768,363.1286155835631L67.57072674911062,362.50628211470917L69.96950703032357,362.16168424352566L72.3682873115365,362.1256814808646L74.76706759274946,361.72450783978525L77.16584787396238,360.79872251421745L79.56462815517533,360.07523842645884L81.96340843638828,359.1597396045084L84.36218871760123,358.2853867970277L86.76096899881416,357.84649597601776L89.15974928002711,357.8259229687829L91.55852956124005,357.09729562921564L93.95730984245297,356.04121459116044L96.35609012366594,355.3485900142541L98.75487040487887,354.8136918261483L101.15365068609182,354.33365499066866L103.55243096730476,354.0164877957982L105.95121124851772,353.92048042870226L108.34999152973064,353.63417274468407L110.74877181094358,353.07012946299557L113.14755209215653,352.6260953901769L115.54633237336947,352.2643533462976L117.94511265458243,352.00376192132296L120.34389293579537,351.8134616044007L122.7426732170083,351.7328839927309L125.14145349822124,351.57515760393045L127.54023377943417,350.9853980631983L129.93901406064714,350.5345063213014L132.33779434186008,350.14704801837854L134.736574623073,349.8058789817341L137.13535490428595,349.66015351382066L139.5341351854989,349.60186332665523L141.93291546671185,349.49214062140277L144.33169574792475,349.1646869229149L146.73047602913775,348.92638292244465L149.12925631035066,348.7429402746007L151.52803659156362,348.5406390367914L153.92681687277656,348.4172009933824L156.3255971539895,348.3777693961822L158.72437743520246,348.32976571263424L161.1231577164154,348.1771825756425L163.52193799762833,348.0554589495031L165.92071827884126,347.9628804169463L168.31949856005423,347.6148537112236L170.71827884126714,347.4794147469275L173.1170591224801,347.45541290515354L175.51583940369304,347.28568559546613L177.91461968490594,347.0662401849611L180.3133999661189,346.87593986803887L182.71218024733187,346.659923292073L185.11096052854484,346.37704444259396L187.50974080975774,346.09930884492366L189.90852109097068,345.4306861097912L192.30730137218364,345.0775161522599L194.70608165339655,343.1916571557328L197.10486193460952,341.3418009218667L199.50364221582245,340.48287786981206L201.90242249703545,339.0153366870601L204.30120277824835,337.5855126842386L206.6999830594613,337.0334703234371L209.09876334067425,336.1608319332259L211.49754362188716,334.71043492316966L213.89632390310013,332.615417019755L216.29510418431306,329.68890674059884L218.69388446552603,327.61274742714954L221.09266474673893,324.4222168884796L223.49144502795187,323.89074753491286L225.79027613078097,322.5483588128395L228.1890564119939,319.32353992877825L230.58783669320684,316.2804492752913L232.9866169744198,311.9515456696269L235.38539725563274,308.83816390808767L237.78417753684568,307.6620736611626L240.1829578180586,306.9283030697866L242.58173809927155,304.5606928205103L244.98051838048448,300.4923806398205L247.37929866169742,297.0395442589064L249.7780789429104,294.5193508726384L252.17685922412332,292.37975812021494L254.57563950533628,290.8659276711845L256.9744197865492,289.5235389491112L259.3732000677622,287.6051060244623L261.7719803489751,283.8625331249908L264.17076063018806,279.794220944301L266.569540911401,276.0430759584818L268.9683211926139,272.5713809876023L271.36710147382684,270.5740848685532L273.7658817550398,270.0031839177864L276.16466203625276,267.9818859569632L278.5634423174657,264.10730292773485L280.96222259867864,259.9532698835666L283.3610028798916,254.84087758570863L285.75978316110456,249.73877179146808L288.1585634423175,243.82746104599045L290.55734372353044,241.20783145808738L292.95612400474334,238.21445890541804L295.35490428595625,235.12165015111364L297.7536845671693,229.77609710459413L300.1524648483822,224.98772967068493L302.5512451295951,219.39530053734737L304.95002541080805,214.39434536201145L307.348805692021,213.93145269922755L309.747585973234,212.745075948685L312.14636625444695,210.82835744130574L314.5451465356598,208.67847818526485L316.94392681687276,207.006921347434L319.34270709808567,204.6238813427316L321.7414873792987,202.712306087161L324.1402676605116,202.1105456255419L326.53904794172456,201.43506522133123L328.9378282229375,199.8920896787182L331.3366085041504,198.0799506247826L333.7353887853634,196.17180420375115L336.1341690665763,194.26537219998926L338.53294934778927,193.07213778036848L340.9317296290022,192.47723498782761L343.3305099102152,191.82232759085184L345.7292901914281,190.35992965990857L348.128070472641,189.48729126969744L350.5268507538539,188.15004579943277L352.9256310350669,186.77679756650716L355.3244113162799,185.4155502544685L357.7231915974928,184.74349868479703L360.1219718787058,184.2394600075434L362.5207521599187,183.41311088361067L364.9195324411316,182.66391053680852L367.31831272234456,181.64040342687522L369.7170930035575,180.54489079161993L372.11587328477043,179.4922385881039L374.5146535659834,178.97619898996334L376.91343384719636,178.28014557851785L379.31221412840927,177.42808019554153L381.71099440962223,176.80917556122674L384.10977469083514,176.01197153087665L386.5085549720481,174.99875092456074L388.90733525326107,173.9872447355144L391.30611553447403,173.5192088209218L393.704895815687,173.04260081998126L396.10367609689985,172.5025593800667L398.5024563781128,171.6830679252122L400.9012366593258,170.81385836954018L403.30001694053874,170.0115110873814L405.69879722175165,169.57433468364104L408.0975775029646,169.29145583416198L410.4963577841775,169.25202423696186L412.8951380653905,168.79427482598663L415.2939183466034,168.37252817767242L417.69269862781636,167.7484802915489L420.0914789090293,167.18786584439948L422.4902591902422,166.60153513820651L424.88903947145525,166.3358004614232L427.28781975266816,166.01863326655268L429.68660003388106,165.68775073352566L432.08538031509397,165.3191510205681L434.484160596307,164.77910958065357L436.8829408775199,164.2304960543911L439.28172115873286,164.00419297480784L441.68050143994583,163.74017271529405L444.07928172115874,163.33899907421468L446.4780620023717,162.91210917409174L448.8768422835846,162.51607878482102L451.2756225647976,161.81659653883648L453.6744028460105,161.34684620697425L456.07318312722344,161.0571096884169L458.4719634084364,160.89252563053816L460.8707436896493,160.53078358665888L463.2695239708622,160.17932804639702L465.6683042520752,159.812442750709L468.06708453328815,159.18153719550725L470.4658648145011,158.66549759736665L472.8646450957141,158.41347825873987L475.263425376927,158.12545615745208L477.6622056581399,157.84772055978172L480.06098593935286,157.58370030026794L482.4597662205658,157.25110334997134L484.85854650177873,156.6116257084217L487.2573267829917,156.18473580829877L489.65610706420466,156.01157966407217L492.0548873454176,156.00300757772433L494.45366762663053,155.7681324117932L496.85244790784344,155.4955400659316L499.2512281890564,155.17151520198286L501.6500084702693,154.7154802082772L504.04878875148233,154.39316976159802L506.44756903269524,154.21315594829318L508.8463493139082,154.10171882577114L511.24512959512106,153.88227341526616L513.6439098763341,153.67825776018734L516.042690157547,153.47081327056932L518.4414704387599,153.0833549676465L520.8402507199729,152.70789758561065L523.2390310011859,152.4884521751057L525.6378112823987,152.23300400193972L528.0365915636118,151.7478239146514L530.4353718448245,151.32264843179803L532.8341521260376,150.9934803160406L535.2329324072506,150.47401188336084L537.6317126884635,149.84653516269822L540.0304929696765,149.5259391332886L542.4292732508893,149.33049556455762L544.8280535321023,148.8556019808867L547.2268338133152,148.33099029639823L549.6256140945281,147.8183795327968L552.0243943757412,147.2491929992995L554.4231746569542,146.70057947303712L556.8219549381671,146.3919843645145L559.22073521938,146.10224784595715L561.6195155005929,145.59820916870356L564.0182957818058,145.13531650591963L566.4170760630188,144.5952750660051L568.8158563442317,144.02780294977734L571.2146366254448,143.36603788372332L573.6134169066576,143.00772467438318L576.0121971878706,142.6922718967823L578.4109774690835,142.17966113318082L580.8097577502964,141.7459135639796L583.2085380315094,141.253875807613L585.6073183127223,140.73097854039412L588.0060985939353,139.9766349417833L590.4048788751483,139.48116835087757L592.8036591563612,139.24457876767687L595.2024394375741,138.7851149394321L597.601219718787,138.33936644934386L600,138.04448667897782" stroke="#f28e2c" stroke-width="4" fill="none"></path><path d="M10,369.99508923560444L12.398780281212943,369.99508923560444L14.797560562425884,369.7888371309911L17.19634084363883,369.2240992255023L19.595121124851772,368.75266584352903L21.993901406064715,368.36962622067574L24.392681687277655,367.18613200134695L26.791461968490594,366.82764620047146L29.19024224970354,366.39549893366257L31.589022530916484,366.302194410147L33.98780281212943,366.302194410147L36.38658309334237,365.83076102817375L38.78536337455531,365.75709956224046L41.18414365576825,365.24638006510276L43.58292393698119,364.5834268717028L45.98170421819414,363.75841845324953L48.38048449940708,363.48832641149403L50.779264780620025,363.38028959479175L53.17804506183297,362.7124256369963L55.57682534304591,362.6927825794141L57.97560562425886,362.2999214277697L60.37438590547179,361.391430014592L62.77316618668473,360.6449938264676L65.17194646789768,360.07534515658324L67.57072674911062,359.21105062296556L69.96950703032357,358.85256482209L72.3682873115365,358.82310023571665L74.76706759274946,358.01773487484564L77.16584787396238,356.755668425188L79.56462815517533,355.8078908968459L81.96340843638828,354.8011841957571L84.36218871760123,353.1167920080817L86.76096899881416,352.4833034010551L89.15974928002711,352.3949096419351L91.55852956124005,351.22614771579305L93.95730984245297,349.6841676955887L96.35609012366594,348.53504882702885L98.75487040487887,347.47432371758896L101.15365068609182,346.65913682792683L103.55243096730476,346.06493433606465L105.95121124851772,345.7211808283758L108.34999152973064,345.1269783365136L110.74877181094358,343.953305645976L113.14755209215653,343.11356493433607L115.54633237336947,342.5242732068695L117.94511265458243,341.98408912335844L120.34389293579537,341.68944325962514L122.7426732170083,341.547031092154L125.14145349822124,341.32604669435403L127.54023377943417,340.299696935683L129.93901406064714,339.4108485800876L132.33779434186008,338.6202155124032L134.736574623073,337.9916376697721L137.13535490428595,337.75101021438996L139.5341351854989,337.6380626332922L141.93291546671185,337.3728813559322L144.33169574792475,336.75903580648776L146.73047602913775,336.326888539679L149.12925631035066,335.90456280166126L151.52803659156362,335.5706308227635L153.92681687277656,335.36928948254575L156.3255971539895,335.2661634302391L158.72437743520246,335.10410820518575L161.1231577164154,334.8045515770569L163.52193799762833,334.5197272421147L165.92071827884126,334.1759737344259L168.31949856005423,333.6848972948704L170.71827884126714,333.29694690762153L173.1170591224801,333.19382085531487L175.51583940369304,332.8795319339993L177.91461968490594,332.4572061959816L180.3133999661189,331.72550230104383L182.71218024733187,330.64513413402176L185.11096052854484,330.0705746997418L187.50974080975774,329.59423055337305L189.90852109097068,328.5924346166798L192.30730137218364,327.7428723762487L194.70608165339655,325.2432932989112L197.10486193460952,321.9187058031205L199.50364221582245,320.0231507464362L201.90242249703545,317.40080255920975L204.30120277824835,314.8619373667078L206.6999830594613,313.93871366034347L209.09876334067425,312.3820013469525L211.49754362188716,310.49626781905937L213.89632390310013,307.1520372656864L216.29510418431306,302.53591873386466L218.69388446552603,299.4421371646649L221.09266474673893,296.12737119766524L223.49144502795187,295.2336120776743L225.79027613078097,292.3853687282523L228.1890564119939,287.72505331687057L230.58783669320684,283.74733415647097L232.9866169744198,276.6905657200584L235.38539725563274,271.1806880682456L237.78417753684568,268.8136996295881L240.1829578180586,267.16859355707714L242.58173809927155,263.5640924907397L244.98051838048448,258.2359131215625L247.37929866169742,251.49834437086093L249.7780789429104,245.76748232124817L252.17685922412332,241.61788640700416L254.57563950533628,238.77455382197775L256.9744197865492,233.91780783477384L259.3732000677622,224.9949489280503L261.7719803489751,215.17342013694014L264.17076063018806,206.27020428779883L266.569540911401,197.33752385228422L268.9683211926139,189.5244976989561L271.36710147382684,183.73961724099226L273.7658817550398,182.98827028847234L276.16466203625276,177.88107531709505L278.5634423174657,171.14350656639354L280.96222259867864,161.8376080368167L283.3610028798916,153.81832977887532L285.75978316110456,147.54728364575146L288.1585634423175,141.64945560668986L290.55734372353044,139.91595577505893L292.95612400474334,137.55387810079694L295.35490428595625,134.65652710741946L297.7536845671693,131.29265349646423L300.1524648483822,128.27744415759344L302.5512451295951,124.69749691323382L304.95002541080805,121.57425075766079L307.348805692021,121.1813896060164L309.747585973234,120.24834437086092L312.14636625444695,118.60814906274554L314.5451465356598,116.86973846671906L316.94392681687276,115.21481086541698L319.34270709808567,113.29470198675496L321.7414873792987,111.68397126501293L324.1402676605116,111.20762711864407L326.53904794172456,110.534852396453L328.9378282229375,109.18930295207093L331.3366085041504,107.5540184083511L333.7353887853634,105.65846335166687L336.1341690665763,104.31291390728478L338.53294934778927,103.50754854641374L340.9317296290022,103.21290268268042L343.3305099102152,102.61378942642273L345.7292901914281,101.51868896621394L348.128070472641,100.62001908182735L350.5268507538539,99.66733078908969L352.9256310350669,98.51330115613425L355.3244113162799,97.77668649680098L357.7231915974928,97.34453922999215L360.1219718787058,96.82399820406332L362.5207521599187,96.05300819396118L364.9195324411316,95.29183971265014L367.31831272234456,94.4079021214502L369.7170930035575,93.46012459310809L372.11587328477043,92.91994050959705L374.5146535659834,92.48779324278817L376.91343384719636,91.99671680323269L379.31221412840927,91.26010214389942L381.71099440962223,90.77393646873946L384.10977469083514,90.17973397687732L386.5085549720481,89.44803008193963L388.90733525326107,88.76543383095745L391.30611553447403,88.50516331799305L393.704895815687,88.13685598832643L396.10367609689985,87.80292400942868L398.5024563781128,87.24309686833541L400.9012366593258,86.5506790885621L403.30001694053874,86.12835335054439L405.69879722175165,85.82879672241555L408.0975775029646,85.59308003142891L410.4963577841775,85.56361544505558L412.8951380653905,85.10691435626894L415.2939183466034,84.74842855539342L417.69269862781636,84.27699517342012L420.0914789090293,83.78100796946907L422.4902591902422,83.57475586485577L424.88903947145525,83.39796834661577L427.28781975266816,83.10823324727804L429.68660003388106,82.85287349870917L432.08538031509397,82.5533168705803L434.484160596307,82.1948310697048L436.8829408775199,81.82652374003817L439.28172115873286,81.59080704905152L441.68050143994583,81.4827702323493L444.07928172115874,81.1684813110338L446.4780620023717,80.90821079806935L448.8768422835846,80.6872264002694L451.2756225647976,80.23052531148277L453.6744028460105,79.88186103939834L456.07318312722344,79.73453810753172L458.4719634084364,79.62650129082948L460.8707436896493,79.42515995061173L463.2695239708622,79.16488943764733L465.6683042520752,78.94881580424291L468.06708453328815,78.54613312380738L470.4658648145011,78.11398585699853L472.8646450957141,77.93719833875858L475.263425376927,77.77023234930968L477.6622056581399,77.53942642271859L480.06098593935286,77.2742451453586L482.4597662205658,77.0679930407453L484.85854650177873,76.81754405657199L487.2573267829917,76.51798742844312L489.65610706420466,76.41977214053206L492.0548873454176,76.40503984734539L494.45366762663053,76.17423392075429L496.85244790784344,76.04655404646985L499.2512281890564,75.82556964866987L501.6500084702693,75.55547760691434L504.04878875148233,75.27556403636773L506.44756903269524,75.13315186889662L508.8463493139082,75.07913346054552L511.24512959512106,74.86305982714109L513.6439098763341,74.68627230890112L516.042690157547,74.55859243461668L518.4414704387599,74.38671568077226L520.8402507199729,74.12153440341227L523.2390310011859,73.96930070715007L525.6378112823987,73.87599618363456L528.0365915636118,73.60590414187898L530.4353718448245,73.41438433045235L532.8341521260376,73.07554158715905L535.2329324072506,72.75143113705244L537.6317126884635,72.29964081266135L540.0304929696765,72.02954877090583L542.4292732508893,71.89204736783029L544.8280535321023,71.65633067684365L547.2268338133152,71.31257716915478L549.6256140945281,70.9295375463015L552.0243943757412,70.62507015377707L554.4231746569542,70.22238747334154L556.8219549381671,70.04068919070605L559.22073521938,69.87372320125716L561.6195155005929,69.59380963071051L564.0182957818058,69.32371758895498L566.4170760630188,68.9504994948928L568.8158563442317,68.65585363115949L571.2146366254448,68.21388483555954L573.6134169066576,67.91923897182626L576.0121971878706,67.78173756875071L578.4109774690835,67.48218094062184L580.8097577502964,67.19244584128411L583.2085380315094,66.87815691996857L585.6073183127223,66.57368952744417L588.0060985939353,66.00895162195532L590.4048788751483,65.77323493096867L592.8036591563612,65.65537658547535L595.2024394375741,65.38037377932429L597.601219718787,65.08572791559097L600,64.89420810416433" stroke="#e15759" stroke-width="4" fill="none"></path><path d="M10,370L12.398780281212943,369.99533830580714L14.797560562425884,369.8927810335642L17.19634084363883,369.7389451251998L19.595121124851772,369.5804475226425L21.993901406064715,369.52450719232814L24.392681687277655,369.31006925945655L26.791461968490594,369.1142781033564L29.19024224970354,368.81126798082045L31.589022530916484,368.75532765050616L33.98780281212943,368.75532765050616L36.38658309334237,368.59216835375594L38.78536337455531,368.5688598827916L41.18414365576825,368.2099094299414L43.58292393698119,367.48734683004795L45.98170421819414,366.76478423015453L48.38048449940708,366.4850825785829L50.779264780620025,366.1913958444326L53.17804506183297,365.45484816196057L55.57682534304591,365.42221630261054L57.97560562425886,365.12386787426743L60.37438590547179,364.14491209376666L62.77316618668473,363.8046084176878L65.17194646789768,363.3803942461375L67.57072674911062,362.6065530101225L69.96950703032357,362.3827916888652L72.3682873115365,362.29888119339375L74.76706759274946,361.2686467767714L77.16584787396238,359.03569525839106L79.56462815517533,356.7887586574321L81.96340843638828,354.59310069259453L84.36218871760123,350.5094565796484L86.76096899881416,346.54235482152376L89.15974928002711,346.1041555673948L91.55852956124005,344.70098561534365L93.95730984245297,342.6032232285562L96.35609012366594,337.12573255194457L98.75487040487887,325.3596164091636L101.15365068609182,314.4698987746404L103.55243096730476,310.1811401172083L105.95121124851772,306.81073521576985L108.34999152973064,303.4496537027171L110.74877181094358,298.1259989344699L113.14755209215653,295.90237080447525L115.54633237336947,294.2567927543953L117.94511265458243,290.87706446457116L120.34389293579537,284.7655833777304L122.7426732170083,278.5002663825253L125.14145349822124,276.56100159829515L127.54023377943417,274.23947789025044L129.93901406064714,269.2234949387321L132.33779434186008,259.2614544485882L134.736574623073,250.17115077250935L137.13535490428595,247.10841768779966L139.5341351854989,246.11081513052744L141.93291546671185,243.5608684070325L144.33169574792475,239.78489611081514L146.73047602913775,237.39344698987748L149.12925631035066,235.27703782631858L151.52803659156362,232.53596164091636L153.92681687277656,230.41489078316462L156.3255971539895,229.25412892914227L158.72437743520246,227.21230687266916L161.1231577164154,224.5225093233884L163.52193799762833,222.67647842301545L165.92071827884126,216.0848428343101L168.31949856005423,206.60295684603088L170.71827884126714,199.13958444326053L173.1170591224801,198.99973361747467L175.51583940369304,198.43566862013856L177.91461968490594,197.39144912093766L180.3133999661189,195.10255727224296L182.71218024733187,191.82538625466168L185.11096052854484,183.43433670751196L187.50974080975774,180.25972296217367L189.90852109097068,178.5488811933937L192.30730137218364,174.7822322855621L194.70608165339655,171.81273308470966L197.10486193460952,160.48947789025038L199.50364221582245,150.68593500266383L201.90242249703545,141.60029302077785L204.30120277824835,138.88718700053278L206.6999830594613,138.1646244006393L209.09876334067425,136.5796483750666L211.49754362188716,135.26505061267983L213.89632390310013,134.30474160895042L216.29510418431306,130.9436600958977L218.69388446552603,127.279568460309L221.09266474673893,125.52210974960042L223.49144502795187,125.14451251997868L225.79027613078097,124.27743740010655L228.1890564119939,123.13998401704849L230.58783669320684,122.45005327650505L232.9866169744198,121.17741076185403L235.38539725563274,119.21483750665956L237.78417753684568,118.18926478423016L240.1829578180586,117.68580181140116L242.58173809927155,117.11241342567926L244.98051838048448,115.55540756526374L247.37929866169742,114.21750133191264L249.7780789429104,112.98681406499735L252.17685922412332,111.53702717101757L254.57563950533628,110.87972828982419L256.9744197865492,110.46949920085244L259.3732000677622,109.00572722429409L261.7719803489751,107.09443260522107L264.17076063018806,103.44432605221097L266.569540911401,101.66822056473096L268.9683211926139,100.37693127330847L271.36710147382684,99.5005327650506L273.7658817550398,99.31872669152902L276.16466203625276,98.29315396909962L278.5634423174657,97.07179009057006L280.96222259867864,95.81313265849761L283.3610028798916,94.07898241875331L285.75978316110456,92.79701651571656L288.1585634423175,91.70618007458711L290.55734372353044,91.28662759722961L292.95612400474334,90.64797549280769L295.35490428595625,90.06526371870004L297.7536845671693,89.3193926478423L300.1524648483822,88.67607884922748L302.5512451295951,87.78569525839104L304.95002541080805,87.15170484816196L307.348805692021,87.0771177410762L309.747585973234,86.76012253596164L312.14636625444695,86.2986148108684L314.5451465356598,85.8604155567395L316.94392681687276,85.35695258391048L319.34270709808567,84.80221097496005L321.7414873792987,84.3546883324454L324.1402676605116,84.20085242408095L326.53904794172456,83.98175279701653L328.9378282229375,83.5528769312733L331.3366085041504,83.0913692061801L333.7353887853634,82.457378795951L336.1341690665763,81.90729888119338L338.53294934778927,81.70218433670752L340.9317296290022,81.60428875865745L343.3305099102152,81.33391049547149L345.7292901914281,80.95631326584974L348.128070472641,80.63465636654237L350.5268507538539,80.23375066595632L352.9256310350669,79.88878529568458L355.3244113162799,79.6976558337773L357.7231915974928,79.61840703249867L360.1219718787058,79.41329248801277L362.5207521599187,79.11960575386254L364.9195324411316,78.87253596164092L367.31831272234456,78.58351092168351L369.7170930035575,78.22456046883323L372.11587328477043,78.09403303143314L374.5146535659834,78.01012253596163L376.91343384719636,77.78636121470433L379.31221412840927,77.61387852956844L381.71099440962223,77.39944059669685L384.10977469083514,77.15237080447524L386.5085549720481,76.97522642514653L388.90733525326107,76.74680340969631L391.30611553447403,76.67687799680343L393.704895815687,76.55567394778903L396.10367609689985,76.45311667554608L398.5024563781128,76.25266382525305L400.9012366593258,76.03822589238146L403.30001694053874,75.86108151305274L405.69879722175165,75.77717101758124L408.0975775029646,75.73987746403836L410.4963577841775,75.72123068726691L412.8951380653905,75.56739477890251L415.2939183466034,75.4601758124667L417.69269862781636,75.25506126798084L420.0914789090293,75.11054874800215L422.4902591902422,75.03596164091637L424.88903947145525,74.98002131060201L427.28781975266816,74.8261854022376L429.68660003388106,74.73295151838039L432.08538031509397,74.61174746936601L434.484160596307,74.43460309003729L436.8829408775199,74.34603090037297L439.28172115873286,74.2807671816729L441.68050143994583,74.24347362813L444.07928172115874,74.1595631326585L446.4780620023717,74.03369738945125L448.8768422835846,73.91249334043685L451.2756225647976,73.77730420884389L453.6744028460105,73.61880660628663L456.07318312722344,73.54888119339373L458.4719634084364,73.51624933404366L460.8707436896493,73.41835375599359L463.2695239708622,73.31579648375069L465.6683042520752,73.1945924347363L468.06708453328815,73.01278636121471L470.4658648145011,72.91489078316464L472.8646450957141,72.88692061800745L475.263425376927,72.84962706446457L477.6622056581399,72.76571656899306L480.06098593935286,72.64451251997866L482.4597662205658,72.55594033031433L484.85854650177873,72.44872136387852L487.2573267829917,72.30420884389986L489.65610706420466,72.26691529035696L492.0548873454176,72.26691529035696L494.45366762663053,72.22496004262122L496.85244790784344,72.15969632392115L499.2512281890564,72.0571390516782L501.6500084702693,71.89397975492805L504.04878875148233,71.75412892914223L506.44756903269524,71.70285029302077L508.8463493139082,71.70285029302077L511.24512959512106,71.63292488012787L513.6439098763341,71.55833777304207L516.042690157547,71.47908897176345L518.4414704387599,71.41382525306341L520.8402507199729,71.26931273308472L523.2390310011859,71.20404901438465L525.6378112823987,71.18074054342034L528.0365915636118,71.06885988279168L530.4353718448245,70.98028769312735L532.8341521260376,70.86840703249865L535.2329324072506,70.70058604155568L537.6317126884635,70.55141182738411L540.0304929696765,70.46750133191264L542.4292732508893,70.43953116675547L544.8280535321023,70.25772509323389L547.2268338133152,70.10388918486947L549.6256140945281,69.9547149706979L552.0243943757412,69.82418753329782L554.4231746569542,69.66568993074054L556.8219549381671,69.59576451784764L559.22073521938,69.55847096430472L561.6195155005929,69.39997336174744L564.0182957818058,69.26012253596167L566.4170760630188,69.17621204049016L568.8158563442317,69.07365476824721L571.2146366254448,68.8359083644113L573.6134169066576,68.74267448055409L576.0121971878706,68.66342567927545L578.4109774690835,68.52357485348962L580.8097577502964,68.37906233351092L583.2085380315094,68.25785828449654L585.6073183127223,68.18793287160364L588.0060985939353,68.02011188066062L590.4048788751483,67.95484816196056L592.8036591563612,67.90823122003198L595.2024394375741,67.7590570058604L597.601219718787,67.6564997336175L600,67.55860415556741" stroke="#76b7b2" stroke-width="4" fill="none"></path><g transform="translate(0, 375)" fill="none" font-size="10" font-family="sans-serif" text-anchor="middle" style="color: rgb(173, 173, 173); font-size: 12pt;"><path class="domain" stroke="currentColor" d="M10,6V0H600V6"></path><g class="tick" opacity="1" transform="translate(50.779264780620025,0)"><line stroke="currentColor" y2="6"></line><text fill="currentColor" y="9" dy="0.71em">Jan '21</text></g><g class="tick" opacity="1" transform="translate(125.14145349822124,0)"><line stroke="currentColor" y2="6"></line><text fill="currentColor" y="9" dy="0.71em">Feb</text></g><g class="tick" opacity="1" transform="translate(192.30730137218364,0)"><line stroke="currentColor" y2="6"></line><text fill="currentColor" y="9" dy="0.71em">Mar</text></g><g class="tick" opacity="1" transform="translate(266.569540911401,0)"><line stroke="currentColor" y2="6"></line><text fill="currentColor" y="9" dy="0.71em">Apr</text></g><g class="tick" opacity="1" transform="translate(338.53294934778927,0)"><line stroke="currentColor" y2="6"></line><text fill="currentColor" y="9" dy="0.71em">May</text></g><g class="tick" opacity="1" transform="translate(412.8951380653905,0)"><line stroke="currentColor" y2="6"></line><text fill="currentColor" y="9" dy="0.71em">Jun</text></g><g class="tick" opacity="1" transform="translate(484.85854650177873,0)"><line stroke="currentColor" y2="6"></line><text fill="currentColor" y="9" dy="0.71em">Jul</text></g><g class="tick" opacity="1" transform="translate(559.22073521938,0)"><line stroke="currentColor" y2="6"></line><text fill="currentColor" y="9" dy="0.71em">Aug</text></g></g><g><text x="600" y="177.12526654052917" alignment-baseline="middle" font-weight="bold" fill="#4e79a7">12-17 year olds</text><text x="600" y="193.12526654052917" alignment-baseline="middle">55%</text></g><g><text x="600" y="138.04448667897782" alignment-baseline="middle" font-weight="bold" fill="#f28e2c">18-49 year olds</text><text x="600" y="154.04448667897782" alignment-baseline="middle">66%</text></g><g><text x="600" y="44.894208104164335" alignment-baseline="middle" font-weight="bold" fill="#e15759">50-64 year olds</text><text x="600" y="60.894208104164335" alignment-baseline="middle">87%</text></g><g><text x="600" y="79.55860415556741" alignment-baseline="middle" font-weight="bold" fill="#76b7b2">65+ year olds</text><text x="600" y="95.55860415556741" alignment-baseline="middle">86%</text></g></svg>