<svg id="vaccinePlot" style="align-self: center" width="600" height="400"><g transform="translate(0, 360)" fill="none" font-size="10" font-family="sans-serif" text-anchor="middle" style="font-family: &quot;Helvetica Neue&quot;, Helvetica, Arial, sans-serif; font-size: 12pt;"><path class="domain" stroke="currentColor" d="M50,6V0H550V6" stroke-width="0"></path><g class="tick" opacity="1" transform="translate(84.84201537147737,0)"><line stroke="currentColor" y2="6"></line><text fill="currentColor" y="9" dy="0.71em">Jan'21</text></g><g class="tick" opacity="1" transform="translate(148.37745516652433,0)"><line stroke="currentColor" y2="6"></line><text fill="currentColor" y="9" dy="0.71em">Feb</text></g><g class="tick" opacity="1" transform="translate(205.76430401366355,0)"><line stroke="currentColor" y2="6"></line><text fill="currentColor" y="9" dy="0.71em">Mar</text></g><g class="tick" opacity="1" transform="translate(269.2143467122118,0)"><line stroke="currentColor" y2="6"></line><text fill="currentColor" y="9" dy="0.71em">Apr</text></g><g class="tick" opacity="1" transform="translate(330.7002561912895,0)"><line stroke="currentColor" y2="6"></line><text fill="currentColor" y="9" dy="0.71em">May</text></g><g class="tick" opacity="1" transform="translate(394.23569598633645,0)"><line stroke="currentColor" y2="6"></line><text fill="currentColor" y="9" dy="0.71em">Jun</text></g><g class="tick" opacity="1" transform="translate(455.7216054654142,0)"><line stroke="currentColor" y2="6"></line><text fill="currentColor" y="9" dy="0.71em">Jul</text></g><g class="tick" opacity="1" transform="translate(519.257045260461,0)"><line stroke="currentColor" y2="6"></line><text fill="currentColor" y="9" dy="0.71em">Aug</text></g></g><g><text fill="#adadad" x="50" y="300">10%</text><line x1="50" x2="550" y1="305" y2="305" stroke="#d3d3d3" stroke-width="0.5px"></line><text fill="#adadad" x="50" y="245">20%</text><line x1="50" x2="550" y1="250" y2="250" stroke="#d3d3d3" stroke-width="0.5px"></line><text fill="#adadad" x="50" y="190">30%</text><line x1="50" x2="550" y1="195" y2="195" stroke="#d3d3d3" stroke-width="0.5px"></line><text fill="#adadad" x="50" y="134.99999999999997">40%</text><line x1="50" x2="550" y1="139.99999999999997" y2="139.99999999999997" stroke="#d3d3d3" stroke-width="0.5px"></line><text fill="#adadad" x="50" y="79.99999999999999">50%</text><line x1="50" x2="550" y1="84.99999999999999" y2="84.99999999999999" stroke="#d3d3d3" stroke-width="0.5px"></line><text fill="#adadad" x="50" y="25">60% of Total County Population</text><line x1="50" x2="550" y1="30" y2="30" stroke="#d3d3d3" stroke-width="0.5px"></line></g><g><path d="M50,359.99758969088884L52.04953031596926,359.9951793817776L54.099060631938514,359.79873918921584L56.14859094790778,359.3214979852007L58.19812126387703,358.926207290966L60.247651579846284,358.64420112495696L62.29718189581554,357.8451836545984L64.3467122117848,357.5354589338107L66.39624252775405,357.140168239576L68.44577284372332,357.0329094841281L70.49530315969257,357.0329094841281L72.54483347566182,356.6340033262266L74.59436379163108,356.5580785892242L76.64389410760035,356.1218126400992L78.6934244235696,355.4384900070776L80.74295473953885,354.7322694374996L82.79248505550811,354.44062203504586L84.84201537147737,354.28997771559665L86.89154568744662,353.5644746731292L88.94107600341587,353.5367561183506L90.99060631938514,353.17038913345004L93.0401366353544,352.29062630786655L95.08966695132365,351.6205603749565L97.1391972672929,351.0384707246047L99.18872758326216,350.188836762911L101.23825789923143,349.80198215056544L103.28778821520069,349.7477501955637L105.33731853116993,348.99934921654L107.38684884713919,347.45675138537996L109.43637916310846,346.13469683789356L111.48590947907772,344.6776649801806L113.53543979504698,342.59154244444784L115.58497011101623,341.0995611046228L117.63450042698548,340.9501219397291L119.68403074295475,339.7883529481367L121.733561058924,338.1276499705285L123.78309137489325,335.93788414301457L125.83262169086251,332.25493182112L127.88215200683176,328.89978153834693L129.931682322801,327.42226205318894L131.98121263877027,326.39788068093424L134.03074295473954,325.1818797343401L136.0802732707088,323.1186551351635L138.12980358667804,322.0243747986844L140.1793339026473,321.1964336189915L142.22886421861656,320.0045357635093L144.27839453458583,318.21729155756367L146.32792485055506,316.5023566249537L148.37745516652433,315.831085537488L150.4269854824936,314.5644680995589L152.47651579846286,312.73022286594517L154.52604611443212,309.6860024585153L156.57557643040138,306.9418655354283L158.62510674637062,305.98617797284237L160.67463706233988,305.65717077916526L162.72416737830912,304.8557429996954L164.77369769427838,303.4975338155412L166.82322801024768,302.6045142898463L168.8727583262169,301.8259844469327L170.92228864218617,300.8907845117918L172.9718189581554,300.20625672421465L175.02134927412467,299.85314643942564L177.07087959009397,299.25177431618437L179.12040990606317,298.3708063360453L181.16994022203247,297.7381001943586L183.2194705380017,295.8845724878553L185.26900085397097,293.06692113687706L187.31853116994023,290.945849119032L189.3680614859095,290.8675140729184L191.41759180187873,290.52404502457415L193.467122117848,289.99498217466856L195.51665243381726,289.0911162579732L197.5661827497865,287.8257039745998L199.61571306575576,285.31657218985345L201.66524338172502,284.18252175303974L203.71477369769428,283.02436822511413L205.76430401366355,281.5902343039575L207.81383432963278,278.88345717209387L209.86336464560205,273.8435008206007L211.91289496157128,270.23888354481966L213.96242527754058,266.21728279280325L216.01195559350984,263.8816932640625L218.06148590947907,263.0802654845926L220.11101622544834,261.6750552727703L222.1605465414176,259.85165643015694L224.21007685738684,257.30998547240966L226.2596071733561,253.24017853816943L228.30913748932537,250.0658014387354L230.3586678052946,246.55036560006835L232.4081981212639,245.85619657604636L234.3723313407344,243.97254000565326L236.42186165670367,240.25463820164646L238.47139197267293,236.9501044102083L240.52092228864217,231.83542847626833L242.57045260461143,227.7668266965837L244.6199829205807,226.0880464006416L246.66951323655,225.0214846189411L248.7190435525192,222.3074765597439L250.7685738684885,217.72547893937633L252.81810418445775,213.27966378379088L254.867634500427,209.7714588724574L256.9171648163962,206.84654876603128L258.9666951323655,204.90142931330297L261.01622544833475,202.6176614304527L263.065755764304,198.65872871532713L265.1152860802733,193.06078580459402L267.1648163962425,186.9952429262906L269.2143467122118,181.66484432689924L271.263877028181,176.91533022330415L273.3134073441503,173.80482631531663L275.36293766011954,173.16247893718514L277.4124679760888,170.2062348123136L279.46199829205807,165.47720833616359L281.51152860802733,159.88529119820848L283.56105892399654,153.66187307312217L285.6105892399658,148.05308377138877L287.6601195559351,141.8019470915238L289.70964987190433,139.20845448788597L291.75918018787365,136.24980005390324L293.80871050384286,133.08024357269164L295.85824081981207,127.96797794786283L297.9077711357814,123.43057104605224L299.95730145175065,118.0857105919938L302.00683176771986,113.16265423239324L304.0563620836892,112.7071058103788L306.1058923996584,111.4597708453392L308.1554227156277,109.46644521038712L310.2049530315969,107.32368041054137L312.2544833475662,105.50751249526155L314.3040136635355,103.07551060207331L316.35354397950465,101.07977465801002L318.4030742954739,100.47599222565752L320.45260461144323,99.75410464685686L322.5021349274125,98.18860887914053L324.5516652433817,96.33508117263727L326.601195559351,94.27547203712751L328.65072587532023,92.35807113917781L330.7002561912895,91.21678977503052L332.74978650725876,90.68170115234688L334.799316823228,89.97909604643571L336.84884713919723,88.48711470661057L338.8983774551665,87.52660652580235L340.94790777113576,86.20334682376038L342.997438087105,84.77764898449293L345.04696840307435,83.54718618323167L347.09649871904355,82.93737797810121L349.14602903501276,82.37336564608337L351.1955593509821,81.47673065672154L353.24508966695134,80.57286474002622L355.29461998292055,78.8434679527492L357.3441502988899,76.77301242623908L359.3936806148591,74.51093732538953L361.4432109308283,73.72156109147562L363.4927412467976,72.60558797299575L365.54227156276687,71.30402105295447L367.5918018787362,70.276024217033L369.6413321947054,69.07207481599478L371.6908625106746,67.48609142083338L373.7403928266439,65.733796697L375.78992314261313,65.18424621964928L377.8394534585824,64.51779575040587L379.8889837745517,63.871832908607686L381.9385140905209,62.72091030801556L383.98804440649013,61.55311554364521L386.03757472245945,60.63117230861593L388.0871050384287,60.14549502271166L390.136635354398,59.80202597436747L392.18616567036725,59.76105071947728L394.23569598633645,59.15726828712477L396.2852263023057,58.54625492743872L398.334756618275,57.733980756968556L400.38428693424424,56.98437462338919L402.43381725021345,56.346847863480086L404.4833475661828,56.05037984280403L406.532877882152,55.62737059379055L408.58240819812124,55.238105672333795L410.63193851409056,54.750018077318316L412.6814688300598,54.032951116739994L414.730999146029,53.43639961172114L416.7805294619983,53.12788004548909L418.83005977796756,52.86033573414726L420.87959009393677,52.36381205724263L422.9291204099061,51.83956982555937L424.9786507258753,51.358713157877446L427.02818104184456,50.50425857796145L429.0777113578138,49.94265655505474L431.1272416737831,49.60280297037728L433.17677198975235,49.40756793237112L435.2263023057216,49.01468754724752L437.2758326216908,48.6145762347904L439.3253629376601,48.17107935833188L441.3748932536294,47.39857528819627L443.4244235695986,46.77912584662107L445.47395388556794,46.50073514427888L447.52348420153714,46.1910104234913L449.5730145175064,45.86561869348094L451.6225448334757,45.518534181469974L453.67207514944494,45.09311462334533L455.7216054654142,44.42304869043525L457.77113578138346,43.89398584052958L459.82066609735267,43.69393018430101L461.87019641332193,43.68308379330068L463.91972672929126,43.39023123629136L465.96925704526046,43.09737867928209L468.0187873612297,42.721370457936786L470.068317677199,42.16217874414127L472.1178479931682,41.7343488769055L474.16737830913746,41.50898497500947L476.2169086251068,41.38123859211652L478.26643894107605,41.096822116996385L480.3159692570452,40.841329351210526L482.3654995730145,40.566554112535144L484.4150298889838,40.108595381409465L486.46456020495305,39.63858510472792L488.5140905209223,39.36501502060812L490.5636208368915,39.087829472821575L492.6131511528608,38.580459404916624L494.66268146883004,38.1080388191238L496.7122117847993,37.609104833108L498.7617421007686,36.99086054608836L500.81127241673784,36.2701781218433L502.86080273270704,35.900195673276016L504.9103330486763,35.65675445304608L506.9598633646456,35.128896757695976L509.0093936806149,34.53355040723265L511.0589239965841,33.87794632898967L513.1084543125534,33.16569998663377L515.1579846285226,32.50165982650156L517.2075149444919,32.13529284160101L519.257045260461,31.690590810586926L521.3065755764304,31.090423841901234L523.3561058923997,30.546899137328428L525.4056362083688,29.88044866808505L527.4551665243382,29.226049744397674L529.5046968403075,28.31977351859113L531.5542271562766,27.84253231457601L533.603757472246,27.425548838340553L535.6532877882153,26.788022078431403L537.7028181041845,26.199906655301636L539.7523484201537,25.518994331391198L541.801878736123,24.921237671816673L543.8514090520922,24.030628455232833L545.9009393680615,23.52084807821671L547.9504696840307,23.241252221318955L550,23.084582129091743L550,65.36984002121069L547.9504696840307,65.50120186777042L545.9009393680615,65.66871835099799L543.8514090520922,65.97964822634114L541.801878736123,66.56776364947095L539.7523484201537,66.96666980737243L537.7028181041845,67.36678111982961L535.6532877882153,67.7114553227294L533.603757472246,68.04648828918452L531.5542271562766,68.26823672741378L529.5046968403075,68.49360062930977L527.4551665243382,68.90817379643403L525.4056362083688,69.25646346300063L523.3561058923997,69.5710088020106L521.3065755764304,69.8421685770192L519.257045260461,70.1422520613621L517.2075149444919,70.27240875336618L515.1579846285226,70.45800255492763L513.1084543125534,70.9147561314977L511.0589239965841,71.42815197218061L509.0093936806149,71.77644163874729L506.9598633646456,72.13919315998098L504.9103330486763,72.45373849899094L502.86080273270704,72.55256117254963L500.81127241673784,72.80082301100198L498.7617421007686,73.35880957024185L496.7122117847993,73.93969406603807L494.66268146883004,74.31208682371653L492.6131511528608,74.68930019961739L490.5636208368915,75.1761826400773L488.5140905209223,75.37623829630589L486.46456020495305,75.60401250731309L484.4150298889838,76.08848463866178L482.3654995730145,76.73444748046006L480.3159692570452,77.10804539269411L478.26643894107605,77.37197424036913L476.2169086251068,77.7347257616029L474.16737830913746,77.90103709027484L472.1178479931682,78.21317212017362L470.068317677199,78.73620919730135L468.0187873612297,79.40989059387829L465.96925704526046,79.80156582444624L463.91972672929126,80.23542146445998L461.87019641332193,80.56081319447033L459.82066609735267,80.58009566735981L457.77113578138346,80.81389565114499L455.7216054654142,81.2911368551601L453.67207514944494,82.07689762540724L451.6225448334757,82.47339347419762L449.5730145175064,82.82047798620866L447.52348420153714,83.09766353399522L445.47395388556794,83.34351506333635L443.4244235695986,83.71711297557042L441.3748932536294,84.34379334447917L439.3253629376601,85.28501905239793L437.2758326216908,85.81890252052597L435.2263023057216,86.38050454343268L433.17677198975235,86.6817931823311L431.1272416737831,86.94210656633935L429.0777113578138,87.29039623290596L427.02818104184456,88.19305699504574L424.9786507258753,89.70070534409354L422.9291204099061,90.39246405900437L420.87959009393677,91.2951248211441L418.83005977796756,92.40025154862361L416.7805294619983,92.84254327052652L414.730999146029,93.62468857710688L412.6814688300598,94.73102045914197L410.63193851409056,96.98345432354672L408.58240819812124,97.83429343979597L406.532877882152,98.82131502082726L404.4833475661828,99.86618402052703L402.43381725021345,100.70497159122033L400.38428693424424,103.63470231586881L398.334756618275,104.79767646201678L396.2852263023057,106.5234577856271L394.23569598633645,107.19111340942607L392.18616567036725,108.02267005278577L390.136635354398,108.11064633534411L388.0871050384287,108.50593702957886L386.03757472245945,109.15913079871068L383.98804440649013,110.23653897141153L381.9385140905209,111.6055945465661L379.8889837745517,114.22198508676016L377.8394534585824,115.36688191457426L375.78992314261313,116.00922929270575L373.7403928266439,116.43826431449712L371.6908625106746,117.74585700731635L369.6413321947054,120.40201764784507L367.5918018787362,121.44809180210048L365.54227156276687,122.60624533002608L363.4927412467976,123.66678133894864L361.4432109308283,124.60559673775617L359.3936806148591,125.33592039844602L357.3441502988899,127.385888297511L355.29461998292055,130.44698086871927L353.24508966695134,133.68764146871086L351.1955593509821,135.571298039104L349.14602903501276,137.3681834814943L347.09649871904355,138.5649019551989L345.04696840307435,138.84931843031904L342.997438087105,143.00107587433965L340.94790777113576,147.4577374209254L338.8983774551665,152.4374360446389L336.84884713919723,158.30774388493623L334.799316823228,160.93859627979745L332.74978650725876,163.0753353068652L330.7002561912895,164.07320327889687L328.65072587532023,169.3927554872878L326.601195559351,173.7373376602034L324.5516652433817,178.41092702679603L322.5021349274125,182.65307106248616L320.45260461144323,186.0974027823732L318.4030742954739,189.37421801903267L316.35354397950465,191.0144333691958L314.3040136635355,194.45635477997166L312.2544833475662,198.91663179022424L310.2049530315969,203.3817294186992L308.1554227156277,207.98662497562302L306.1058923996584,213.1603534827871L304.0563620836892,215.8719512328731L302.00683176771986,218.05448613305342L299.95730145175065,219.56936540943482L297.9077711357814,221.97364874784444L295.85824081981207,225.87714435341266L293.80871050384286,228.985237952289L291.75918018787365,233.51661908132164L289.70964987190433,236.541557015862L287.6601195559351,237.53821983333808L285.6105892399658,240.12086604597556L283.56105892399654,245.00053684157476L281.51152860802733,249.82115506394985L279.46199829205807,252.16156521091298L277.4124679760888,254.74421142355047L275.36293766011954,256.33260512782306L273.3134073441503,256.83756488661686L271.263877028181,258.4175225090003L269.2143467122118,262.4029686243489L267.1648163962425,265.8955065264597L265.1152860802733,270.37868147326856L263.065755764304,273.18066581502416L261.01622544833475,274.20263687816765L258.9666951323655,275.3354821604258L256.9171648163962,277.05885317492493L254.867634500427,280.67672715081744L252.81810418445775,284.1548031982611L250.7685738684885,287.18817721469065L248.7190435525192,288.1450699318321L246.66951323655,288.8440595740765L244.6199829205807,289.242965731978L242.57045260461143,290.2998862772337L240.52092228864217,292.0545913101783L238.47139197267293,293.5441623408922L236.42186165670367,294.7457014328192L234.3723313407344,295.94000959741265L232.4081981212639,296.959570351445L230.3586678052946,297.3500404274573L228.30913748932537,298.3696011814897L226.2596071733561,300.2255391971041L224.21007685738684,304.20736984878596L222.1605465414176,306.2778253752961L220.11101622544834,308.7749056144864L218.06148590947907,309.73902925896147L216.01195559350984,310.1005756256395L213.96242527754058,311.0502374154475L211.91289496157128,311.97941157781025L209.86336464560205,312.6723754472767L207.81383432963278,313.4123403444113L205.76430401366355,314.03540524965325L203.71477369769428,314.7018557188966L201.66524338172502,314.9452969391266L199.61571306575576,315.93954944749146L197.5661827497865,318.0606214653365L195.51665243381726,321.1819717643244L193.467122117848,324.3430921636469L191.41759180187873,327.88865686620375L189.3680614859095,328.73467536423055L187.31853116994023,328.8347031923449L185.26900085397097,329.5240515981445L183.2194705380017,331.06664942930456L181.16994022203247,333.1334894921479L179.12040990606317,334.2639244652948L177.07087959009397,336.01862949823936L175.02134927412467,336.60553976681354L172.9718189581554,336.66700264914886L170.92228864218617,337.48891805606377L168.8727583262169,340.54519000904963L166.82322801024768,344.8837464091872L164.77369769427838,347.33744108437617L162.72416737830912,348.93909148876025L160.67463706233988,349.2885863098825L158.62510674637062,349.3331770284394L156.57557643040138,349.83693163267765L154.52604611443212,350.6275130211472L152.47651579846286,350.9854439241585L150.4269854824936,351.52535316506453L148.37745516652433,352.4460912455382L146.32792485055506,352.9281530677757L144.27839453458583,352.9775644045551L142.22886421861656,353.48252416334884L140.1793339026473,353.9199952670294L138.12980358667804,354.179103496482L136.0802732707088,354.4984694537144L134.03074295473954,354.9600436485068L131.98121263877027,355.2432549690713L129.931682322801,355.2553065146273L127.88215200683176,355.8807817289804L125.83262169086251,356.08927346709817L123.78309137489325,356.29053427788233L121.733561058924,356.8075455822321L119.68403074295475,357.14619401235393L117.63450042698548,357.3727630688055L115.58497011101623,357.37637853247236L113.53543979504698,357.4257898692517L111.48590947907772,357.5270228519215L109.43637916310846,357.5957166615904L107.38684884713919,357.7547970629288L105.33731853116993,357.9524424100462L103.28778821520069,358.23324342149954L101.23825789923143,358.2549362035002L99.18872758326216,358.55863515150986L97.1391972672929,359.16723820208466L95.08966695132365,359.8348938258837L93.0401366353544,359.9626402087766L90.99060631938514,360L88.94107600341587,360L86.89154568744662,360L84.84201537147737,360L82.79248505550811,360L80.74295473953885,360L78.6934244235696,360L76.64389410760035,360L74.59436379163108,360L72.54483347566182,360L70.49530315969257,360L68.44577284372332,360L66.39624252775405,360L64.3467122117848,360L62.29718189581554,360L60.247651579846284,360L58.19812126387703,360L56.14859094790778,360L54.099060631938514,360L52.04953031596926,360L50,360Z" class="vaccineArea" id="vaccine-partial" fill="#E15759" fill-opacity="0.5" style="fill-opacity: 0.5;"></path></g><g><path class="vaccineLine" id="vaccineLine-partial" d="M50,359.99758969088884L52.04953031596926,359.9951793817776L54.099060631938514,359.79873918921584L56.14859094790778,359.3214979852007L58.19812126387703,358.926207290966L60.247651579846284,358.64420112495696L62.29718189581554,357.8451836545984L64.3467122117848,357.5354589338107L66.39624252775405,357.140168239576L68.44577284372332,357.0329094841281L70.49530315969257,357.0329094841281L72.54483347566182,356.6340033262266L74.59436379163108,356.5580785892242L76.64389410760035,356.1218126400992L78.6934244235696,355.4384900070776L80.74295473953885,354.7322694374996L82.79248505550811,354.44062203504586L84.84201537147737,354.28997771559665L86.89154568744662,353.5644746731292L88.94107600341587,353.5367561183506L90.99060631938514,353.17038913345004L93.0401366353544,352.29062630786655L95.08966695132365,351.6205603749565L97.1391972672929,351.0384707246047L99.18872758326216,350.188836762911L101.23825789923143,349.80198215056544L103.28778821520069,349.7477501955637L105.33731853116993,348.99934921654L107.38684884713919,347.45675138537996L109.43637916310846,346.13469683789356L111.48590947907772,344.6776649801806L113.53543979504698,342.59154244444784L115.58497011101623,341.0995611046228L117.63450042698548,340.9501219397291L119.68403074295475,339.7883529481367L121.733561058924,338.1276499705285L123.78309137489325,335.93788414301457L125.83262169086251,332.25493182112L127.88215200683176,328.89978153834693L129.931682322801,327.42226205318894L131.98121263877027,326.39788068093424L134.03074295473954,325.1818797343401L136.0802732707088,323.1186551351635L138.12980358667804,322.0243747986844L140.1793339026473,321.1964336189915L142.22886421861656,320.0045357635093L144.27839453458583,318.21729155756367L146.32792485055506,316.5023566249537L148.37745516652433,315.831085537488L150.4269854824936,314.5644680995589L152.47651579846286,312.73022286594517L154.52604611443212,309.6860024585153L156.57557643040138,306.9418655354283L158.62510674637062,305.98617797284237L160.67463706233988,305.65717077916526L162.72416737830912,304.8557429996954L164.77369769427838,303.4975338155412L166.82322801024768,302.6045142898463L168.8727583262169,301.8259844469327L170.92228864218617,300.8907845117918L172.9718189581554,300.20625672421465L175.02134927412467,299.85314643942564L177.07087959009397,299.25177431618437L179.12040990606317,298.3708063360453L181.16994022203247,297.7381001943586L183.2194705380017,295.8845724878553L185.26900085397097,293.06692113687706L187.31853116994023,290.945849119032L189.3680614859095,290.8675140729184L191.41759180187873,290.52404502457415L193.467122117848,289.99498217466856L195.51665243381726,289.0911162579732L197.5661827497865,287.8257039745998L199.61571306575576,285.31657218985345L201.66524338172502,284.18252175303974L203.71477369769428,283.02436822511413L205.76430401366355,281.5902343039575L207.81383432963278,278.88345717209387L209.86336464560205,273.8435008206007L211.91289496157128,270.23888354481966L213.96242527754058,266.21728279280325L216.01195559350984,263.8816932640625L218.06148590947907,263.0802654845926L220.11101622544834,261.6750552727703L222.1605465414176,259.85165643015694L224.21007685738684,257.30998547240966L226.2596071733561,253.24017853816943L228.30913748932537,250.0658014387354L230.3586678052946,246.55036560006835L232.4081981212639,245.85619657604636L234.3723313407344,243.97254000565326L236.42186165670367,240.25463820164646L238.47139197267293,236.9501044102083L240.52092228864217,231.83542847626833L242.57045260461143,227.7668266965837L244.6199829205807,226.0880464006416L246.66951323655,225.0214846189411L248.7190435525192,222.3074765597439L250.7685738684885,217.72547893937633L252.81810418445775,213.27966378379088L254.867634500427,209.7714588724574L256.9171648163962,206.84654876603128L258.9666951323655,204.90142931330297L261.01622544833475,202.6176614304527L263.065755764304,198.65872871532713L265.1152860802733,193.06078580459402L267.1648163962425,186.9952429262906L269.2143467122118,181.66484432689924L271.263877028181,176.91533022330415L273.3134073441503,173.80482631531663L275.36293766011954,173.16247893718514L277.4124679760888,170.2062348123136L279.46199829205807,165.47720833616359L281.51152860802733,159.88529119820848L283.56105892399654,153.66187307312217L285.6105892399658,148.05308377138877L287.6601195559351,141.8019470915238L289.70964987190433,139.20845448788597L291.75918018787365,136.24980005390324L293.80871050384286,133.08024357269164L295.85824081981207,127.96797794786283L297.9077711357814,123.43057104605224L299.95730145175065,118.0857105919938L302.00683176771986,113.16265423239324L304.0563620836892,112.7071058103788L306.1058923996584,111.4597708453392L308.1554227156277,109.46644521038712L310.2049530315969,107.32368041054137L312.2544833475662,105.50751249526155L314.3040136635355,103.07551060207331L316.35354397950465,101.07977465801002L318.4030742954739,100.47599222565752L320.45260461144323,99.75410464685686L322.5021349274125,98.18860887914053L324.5516652433817,96.33508117263727L326.601195559351,94.27547203712751L328.65072587532023,92.35807113917781L330.7002561912895,91.21678977503052L332.74978650725876,90.68170115234688L334.799316823228,89.97909604643571L336.84884713919723,88.48711470661057L338.8983774551665,87.52660652580235L340.94790777113576,86.20334682376038L342.997438087105,84.77764898449293L345.04696840307435,83.54718618323167L347.09649871904355,82.93737797810121L349.14602903501276,82.37336564608337L351.1955593509821,81.47673065672154L353.24508966695134,80.57286474002622L355.29461998292055,78.8434679527492L357.3441502988899,76.77301242623908L359.3936806148591,74.51093732538953L361.4432109308283,73.72156109147562L363.4927412467976,72.60558797299575L365.54227156276687,71.30402105295447L367.5918018787362,70.276024217033L369.6413321947054,69.07207481599478L371.6908625106746,67.48609142083338L373.7403928266439,65.733796697L375.78992314261313,65.18424621964928L377.8394534585824,64.51779575040587L379.8889837745517,63.871832908607686L381.9385140905209,62.72091030801556L383.98804440649013,61.55311554364521L386.03757472245945,60.63117230861593L388.0871050384287,60.14549502271166L390.136635354398,59.80202597436747L392.18616567036725,59.76105071947728L394.23569598633645,59.15726828712477L396.2852263023057,58.54625492743872L398.334756618275,57.733980756968556L400.38428693424424,56.98437462338919L402.43381725021345,56.346847863480086L404.4833475661828,56.05037984280403L406.532877882152,55.62737059379055L408.58240819812124,55.238105672333795L410.63193851409056,54.750018077318316L412.6814688300598,54.032951116739994L414.730999146029,53.43639961172114L416.7805294619983,53.12788004548909L418.83005977796756,52.86033573414726L420.87959009393677,52.36381205724263L422.9291204099061,51.83956982555937L424.9786507258753,51.358713157877446L427.02818104184456,50.50425857796145L429.0777113578138,49.94265655505474L431.1272416737831,49.60280297037728L433.17677198975235,49.40756793237112L435.2263023057216,49.01468754724752L437.2758326216908,48.6145762347904L439.3253629376601,48.17107935833188L441.3748932536294,47.39857528819627L443.4244235695986,46.77912584662107L445.47395388556794,46.50073514427888L447.52348420153714,46.1910104234913L449.5730145175064,45.86561869348094L451.6225448334757,45.518534181469974L453.67207514944494,45.09311462334533L455.7216054654142,44.42304869043525L457.77113578138346,43.89398584052958L459.82066609735267,43.69393018430101L461.87019641332193,43.68308379330068L463.91972672929126,43.39023123629136L465.96925704526046,43.09737867928209L468.0187873612297,42.721370457936786L470.068317677199,42.16217874414127L472.1178479931682,41.7343488769055L474.16737830913746,41.50898497500947L476.2169086251068,41.38123859211652L478.26643894107605,41.096822116996385L480.3159692570452,40.841329351210526L482.3654995730145,40.566554112535144L484.4150298889838,40.108595381409465L486.46456020495305,39.63858510472792L488.5140905209223,39.36501502060812L490.5636208368915,39.087829472821575L492.6131511528608,38.580459404916624L494.66268146883004,38.1080388191238L496.7122117847993,37.609104833108L498.7617421007686,36.99086054608836L500.81127241673784,36.2701781218433L502.86080273270704,35.900195673276016L504.9103330486763,35.65675445304608L506.9598633646456,35.128896757695976L509.0093936806149,34.53355040723265L511.0589239965841,33.87794632898967L513.1084543125534,33.16569998663377L515.1579846285226,32.50165982650156L517.2075149444919,32.13529284160101L519.257045260461,31.690590810586926L521.3065755764304,31.090423841901234L523.3561058923997,30.546899137328428L525.4056362083688,29.88044866808505L527.4551665243382,29.226049744397674L529.5046968403075,28.31977351859113L531.5542271562766,27.84253231457601L533.603757472246,27.425548838340553L535.6532877882153,26.788022078431403L537.7028181041845,26.199906655301636L539.7523484201537,25.518994331391198L541.801878736123,24.921237671816673L543.8514090520922,24.030628455232833L545.9009393680615,23.52084807821671L547.9504696840307,23.241252221318955L550,23.084582129091743" stroke="#E15759" stroke-width="5" fill="none" style="stroke-width: 5;"></path></g><g><path d="M50,360L52.04953031596926,360L54.099060631938514,360L56.14859094790778,360L58.19812126387703,360L60.247651579846284,360L62.29718189581554,360L64.3467122117848,360L66.39624252775405,360L68.44577284372332,360L70.49530315969257,360L72.54483347566182,360L74.59436379163108,360L76.64389410760035,360L78.6934244235696,360L80.74295473953885,360L82.79248505550811,360L84.84201537147737,360L86.89154568744662,360L88.94107600341587,360L90.99060631938514,360L93.0401366353544,359.9626402087766L95.08966695132365,359.8348938258837L97.1391972672929,359.16723820208466L99.18872758326216,358.55863515150986L101.23825789923143,358.2549362035002L103.28778821520069,358.23324342149954L105.33731853116993,357.9524424100462L107.38684884713919,357.7547970629288L109.43637916310846,357.5957166615904L111.48590947907772,357.5270228519215L113.53543979504698,357.4257898692517L115.58497011101623,357.37637853247236L117.63450042698548,357.3727630688055L119.68403074295475,357.14619401235393L121.733561058924,356.8075455822321L123.78309137489325,356.29053427788233L125.83262169086251,356.08927346709817L127.88215200683176,355.8807817289804L129.931682322801,355.2553065146273L131.98121263877027,355.2432549690713L134.03074295473954,354.9600436485068L136.0802732707088,354.4984694537144L138.12980358667804,354.179103496482L140.1793339026473,353.9199952670294L142.22886421861656,353.48252416334884L144.27839453458583,352.9775644045551L146.32792485055506,352.9281530677757L148.37745516652433,352.4460912455382L150.4269854824936,351.52535316506453L152.47651579846286,350.9854439241585L154.52604611443212,350.6275130211472L156.57557643040138,349.83693163267765L158.62510674637062,349.3331770284394L160.67463706233988,349.2885863098825L162.72416737830912,348.93909148876025L164.77369769427838,347.33744108437617L166.82322801024768,344.8837464091872L168.8727583262169,340.54519000904963L170.92228864218617,337.48891805606377L172.9718189581554,336.66700264914886L175.02134927412467,336.60553976681354L177.07087959009397,336.01862949823936L179.12040990606317,334.2639244652948L181.16994022203247,333.1334894921479L183.2194705380017,331.06664942930456L185.26900085397097,329.5240515981445L187.31853116994023,328.8347031923449L189.3680614859095,328.73467536423055L191.41759180187873,327.88865686620375L193.467122117848,324.3430921636469L195.51665243381726,321.1819717643244L197.5661827497865,318.0606214653365L199.61571306575576,315.93954944749146L201.66524338172502,314.9452969391266L203.71477369769428,314.7018557188966L205.76430401366355,314.03540524965325L207.81383432963278,313.4123403444113L209.86336464560205,312.6723754472767L211.91289496157128,311.97941157781025L213.96242527754058,311.0502374154475L216.01195559350984,310.1005756256395L218.06148590947907,309.73902925896147L220.11101622544834,308.7749056144864L222.1605465414176,306.2778253752961L224.21007685738684,304.20736984878596L226.2596071733561,300.2255391971041L228.30913748932537,298.3696011814897L230.3586678052946,297.3500404274573L232.4081981212639,296.959570351445L234.3723313407344,295.94000959741265L236.42186165670367,294.7457014328192L238.47139197267293,293.5441623408922L240.52092228864217,292.0545913101783L242.57045260461143,290.2998862772337L244.6199829205807,289.242965731978L246.66951323655,288.8440595740765L248.7190435525192,288.1450699318321L250.7685738684885,287.18817721469065L252.81810418445775,284.1548031982611L254.867634500427,280.67672715081744L256.9171648163962,277.05885317492493L258.9666951323655,275.3354821604258L261.01622544833475,274.20263687816765L263.065755764304,273.18066581502416L265.1152860802733,270.37868147326856L267.1648163962425,265.8955065264597L269.2143467122118,262.4029686243489L271.263877028181,258.4175225090003L273.3134073441503,256.83756488661686L275.36293766011954,256.33260512782306L277.4124679760888,254.74421142355047L279.46199829205807,252.16156521091298L281.51152860802733,249.82115506394985L283.56105892399654,245.00053684157476L285.6105892399658,240.12086604597556L287.6601195559351,237.53821983333808L289.70964987190433,236.541557015862L291.75918018787365,233.51661908132164L293.80871050384286,228.985237952289L295.85824081981207,225.87714435341266L297.9077711357814,221.97364874784444L299.95730145175065,219.56936540943482L302.00683176771986,218.05448613305342L304.0563620836892,215.8719512328731L306.1058923996584,213.1603534827871L308.1554227156277,207.98662497562302L310.2049530315969,203.3817294186992L312.2544833475662,198.91663179022424L314.3040136635355,194.45635477997166L316.35354397950465,191.0144333691958L318.4030742954739,189.37421801903267L320.45260461144323,186.0974027823732L322.5021349274125,182.65307106248616L324.5516652433817,178.41092702679603L326.601195559351,173.7373376602034L328.65072587532023,169.3927554872878L330.7002561912895,164.07320327889687L332.74978650725876,163.0753353068652L334.799316823228,160.93859627979745L336.84884713919723,158.30774388493623L338.8983774551665,152.4374360446389L340.94790777113576,147.4577374209254L342.997438087105,143.00107587433965L345.04696840307435,138.84931843031904L347.09649871904355,138.5649019551989L349.14602903501276,137.3681834814943L351.1955593509821,135.571298039104L353.24508966695134,133.68764146871086L355.29461998292055,130.44698086871927L357.3441502988899,127.385888297511L359.3936806148591,125.33592039844602L361.4432109308283,124.60559673775617L363.4927412467976,123.66678133894864L365.54227156276687,122.60624533002608L367.5918018787362,121.44809180210048L369.6413321947054,120.40201764784507L371.6908625106746,117.74585700731635L373.7403928266439,116.43826431449712L375.78992314261313,116.00922929270575L377.8394534585824,115.36688191457426L379.8889837745517,114.22198508676016L381.9385140905209,111.6055945465661L383.98804440649013,110.23653897141153L386.03757472245945,109.15913079871068L388.0871050384287,108.50593702957886L390.136635354398,108.11064633534411L392.18616567036725,108.02267005278577L394.23569598633645,107.19111340942607L396.2852263023057,106.5234577856271L398.334756618275,104.79767646201678L400.38428693424424,103.63470231586881L402.43381725021345,100.70497159122033L404.4833475661828,99.86618402052703L406.532877882152,98.82131502082726L408.58240819812124,97.83429343979597L410.63193851409056,96.98345432354672L412.6814688300598,94.73102045914197L414.730999146029,93.62468857710688L416.7805294619983,92.84254327052652L418.83005977796756,92.40025154862361L420.87959009393677,91.2951248211441L422.9291204099061,90.39246405900437L424.9786507258753,89.70070534409354L427.02818104184456,88.19305699504574L429.0777113578138,87.29039623290596L431.1272416737831,86.94210656633935L433.17677198975235,86.6817931823311L435.2263023057216,86.38050454343268L437.2758326216908,85.81890252052597L439.3253629376601,85.28501905239793L441.3748932536294,84.34379334447917L443.4244235695986,83.71711297557042L445.47395388556794,83.34351506333635L447.52348420153714,83.09766353399522L449.5730145175064,82.82047798620866L451.6225448334757,82.47339347419762L453.67207514944494,82.07689762540724L455.7216054654142,81.2911368551601L457.77113578138346,80.81389565114499L459.82066609735267,80.58009566735981L461.87019641332193,80.56081319447033L463.91972672929126,80.23542146445998L465.96925704526046,79.80156582444624L468.0187873612297,79.40989059387829L470.068317677199,78.73620919730135L472.1178479931682,78.21317212017362L474.16737830913746,77.90103709027484L476.2169086251068,77.7347257616029L478.26643894107605,77.37197424036913L480.3159692570452,77.10804539269411L482.3654995730145,76.73444748046006L484.4150298889838,76.08848463866178L486.46456020495305,75.60401250731309L488.5140905209223,75.37623829630589L490.5636208368915,75.1761826400773L492.6131511528608,74.68930019961739L494.66268146883004,74.31208682371653L496.7122117847993,73.93969406603807L498.7617421007686,73.35880957024185L500.81127241673784,72.80082301100198L502.86080273270704,72.55256117254963L504.9103330486763,72.45373849899094L506.9598633646456,72.13919315998098L509.0093936806149,71.77644163874729L511.0589239965841,71.42815197218061L513.1084543125534,70.9147561314977L515.1579846285226,70.45800255492763L517.2075149444919,70.27240875336618L519.257045260461,70.1422520613621L521.3065755764304,69.8421685770192L523.3561058923997,69.5710088020106L525.4056362083688,69.25646346300063L527.4551665243382,68.90817379643403L529.5046968403075,68.49360062930977L531.5542271562766,68.26823672741378L533.603757472246,68.04648828918452L535.6532877882153,67.7114553227294L537.7028181041845,67.36678111982961L539.7523484201537,66.96666980737243L541.801878736123,66.56776364947095L543.8514090520922,65.97964822634114L545.9009393680615,65.66871835099799L547.9504696840307,65.50120186777042L550,65.36984002121069L550,360L547.9504696840307,360L545.9009393680615,360L543.8514090520922,360L541.801878736123,360L539.7523484201537,360L537.7028181041845,360L535.6532877882153,360L533.603757472246,360L531.5542271562766,360L529.5046968403075,360L527.4551665243382,360L525.4056362083688,360L523.3561058923997,360L521.3065755764304,360L519.257045260461,360L517.2075149444919,360L515.1579846285226,360L513.1084543125534,360L511.0589239965841,360L509.0093936806149,360L506.9598633646456,360L504.9103330486763,360L502.86080273270704,360L500.81127241673784,360L498.7617421007686,360L496.7122117847993,360L494.66268146883004,360L492.6131511528608,360L490.5636208368915,360L488.5140905209223,360L486.46456020495305,360L484.4150298889838,360L482.3654995730145,360L480.3159692570452,360L478.26643894107605,360L476.2169086251068,360L474.16737830913746,360L472.1178479931682,360L470.068317677199,360L468.0187873612297,360L465.96925704526046,360L463.91972672929126,360L461.87019641332193,360L459.82066609735267,360L457.77113578138346,360L455.7216054654142,360L453.67207514944494,360L451.6225448334757,360L449.5730145175064,360L447.52348420153714,360L445.47395388556794,360L443.4244235695986,360L441.3748932536294,360L439.3253629376601,360L437.2758326216908,360L435.2263023057216,360L433.17677198975235,360L431.1272416737831,360L429.0777113578138,360L427.02818104184456,360L424.9786507258753,360L422.9291204099061,360L420.87959009393677,360L418.83005977796756,360L416.7805294619983,360L414.730999146029,360L412.6814688300598,360L410.63193851409056,360L408.58240819812124,360L406.532877882152,360L404.4833475661828,360L402.43381725021345,360L400.38428693424424,360L398.334756618275,360L396.2852263023057,360L394.23569598633645,360L392.18616567036725,360L390.136635354398,360L388.0871050384287,360L386.03757472245945,360L383.98804440649013,360L381.9385140905209,360L379.8889837745517,360L377.8394534585824,360L375.78992314261313,360L373.7403928266439,360L371.6908625106746,360L369.6413321947054,360L367.5918018787362,360L365.54227156276687,360L363.4927412467976,360L361.4432109308283,360L359.3936806148591,360L357.3441502988899,360L355.29461998292055,360L353.24508966695134,360L351.1955593509821,360L349.14602903501276,360L347.09649871904355,360L345.04696840307435,360L342.997438087105,360L340.94790777113576,360L338.8983774551665,360L336.84884713919723,360L334.799316823228,360L332.74978650725876,360L330.7002561912895,360L328.65072587532023,360L326.601195559351,360L324.5516652433817,360L322.5021349274125,360L320.45260461144323,360L318.4030742954739,360L316.35354397950465,360L314.3040136635355,360L312.2544833475662,360L310.2049530315969,360L308.1554227156277,360L306.1058923996584,360L304.0563620836892,360L302.00683176771986,360L299.95730145175065,360L297.9077711357814,360L295.85824081981207,360L293.80871050384286,360L291.75918018787365,360L289.70964987190433,360L287.6601195559351,360L285.6105892399658,360L283.56105892399654,360L281.51152860802733,360L279.46199829205807,360L277.4124679760888,360L275.36293766011954,360L273.3134073441503,360L271.263877028181,360L269.2143467122118,360L267.1648163962425,360L265.1152860802733,360L263.065755764304,360L261.01622544833475,360L258.9666951323655,360L256.9171648163962,360L254.867634500427,360L252.81810418445775,360L250.7685738684885,360L248.7190435525192,360L246.66951323655,360L244.6199829205807,360L242.57045260461143,360L240.52092228864217,360L238.47139197267293,360L236.42186165670367,360L234.3723313407344,360L232.4081981212639,360L230.3586678052946,360L228.30913748932537,360L226.2596071733561,360L224.21007685738684,360L222.1605465414176,360L220.11101622544834,360L218.06148590947907,360L216.01195559350984,360L213.96242527754058,360L211.91289496157128,360L209.86336464560205,360L207.81383432963278,360L205.76430401366355,360L203.71477369769428,360L201.66524338172502,360L199.61571306575576,360L197.5661827497865,360L195.51665243381726,360L193.467122117848,360L191.41759180187873,360L189.3680614859095,360L187.31853116994023,360L185.26900085397097,360L183.2194705380017,360L181.16994022203247,360L179.12040990606317,360L177.07087959009397,360L175.02134927412467,360L172.9718189581554,360L170.92228864218617,360L168.8727583262169,360L166.82322801024768,360L164.77369769427838,360L162.72416737830912,360L160.67463706233988,360L158.62510674637062,360L156.57557643040138,360L154.52604611443212,360L152.47651579846286,360L150.4269854824936,360L148.37745516652433,360L146.32792485055506,360L144.27839453458583,360L142.22886421861656,360L140.1793339026473,360L138.12980358667804,360L136.0802732707088,360L134.03074295473954,360L131.98121263877027,360L129.931682322801,360L127.88215200683176,360L125.83262169086251,360L123.78309137489325,360L121.733561058924,360L119.68403074295475,360L117.63450042698548,360L115.58497011101623,360L113.53543979504698,360L111.48590947907772,360L109.43637916310846,360L107.38684884713919,360L105.33731853116993,360L103.28778821520069,360L101.23825789923143,360L99.18872758326216,360L97.1391972672929,360L95.08966695132365,360L93.0401366353544,360L90.99060631938514,360L88.94107600341587,360L86.89154568744662,360L84.84201537147737,360L82.79248505550811,360L80.74295473953885,360L78.6934244235696,360L76.64389410760035,360L74.59436379163108,360L72.54483347566182,360L70.49530315969257,360L68.44577284372332,360L66.39624252775405,360L64.3467122117848,360L62.29718189581554,360L60.247651579846284,360L58.19812126387703,360L56.14859094790778,360L54.099060631938514,360L52.04953031596926,360L50,360Z" class="vaccineArea" id="vaccine-full" fill="#4E79A7" fill-opacity="0.5" style="fill-opacity: 0.5;"></path></g><g><path d="M50,360L52.04953031596926,360L54.099060631938514,360L56.14859094790778,360L58.19812126387703,360L60.247651579846284,360L62.29718189581554,360L64.3467122117848,360L66.39624252775405,360L68.44577284372332,360L70.49530315969257,360L72.54483347566182,360L74.59436379163108,360L76.64389410760035,360L78.6934244235696,360L80.74295473953885,360L82.79248505550811,360L84.84201537147737,360L86.89154568744662,360L88.94107600341587,360L90.99060631938514,360L93.0401366353544,359.9626402087766L95.08966695132365,359.8348938258837L97.1391972672929,359.16723820208466L99.18872758326216,358.55863515150986L101.23825789923143,358.2549362035002L103.28778821520069,358.23324342149954L105.33731853116993,357.9524424100462L107.38684884713919,357.7547970629288L109.43637916310846,357.5957166615904L111.48590947907772,357.5270228519215L113.53543979504698,357.4257898692517L115.58497011101623,357.37637853247236L117.63450042698548,357.3727630688055L119.68403074295475,357.14619401235393L121.733561058924,356.8075455822321L123.78309137489325,356.29053427788233L125.83262169086251,356.08927346709817L127.88215200683176,355.8807817289804L129.931682322801,355.2553065146273L131.98121263877027,355.2432549690713L134.03074295473954,354.9600436485068L136.0802732707088,354.4984694537144L138.12980358667804,354.179103496482L140.1793339026473,353.9199952670294L142.22886421861656,353.48252416334884L144.27839453458583,352.9775644045551L146.32792485055506,352.9281530677757L148.37745516652433,352.4460912455382L150.4269854824936,351.52535316506453L152.47651579846286,350.9854439241585L154.52604611443212,350.6275130211472L156.57557643040138,349.83693163267765L158.62510674637062,349.3331770284394L160.67463706233988,349.2885863098825L162.72416737830912,348.93909148876025L164.77369769427838,347.33744108437617L166.82322801024768,344.8837464091872L168.8727583262169,340.54519000904963L170.92228864218617,337.48891805606377L172.9718189581554,336.66700264914886L175.02134927412467,336.60553976681354L177.07087959009397,336.01862949823936L179.12040990606317,334.2639244652948L181.16994022203247,333.1334894921479L183.2194705380017,331.06664942930456L185.26900085397097,329.5240515981445L187.31853116994023,328.8347031923449L189.3680614859095,328.73467536423055L191.41759180187873,327.88865686620375L193.467122117848,324.3430921636469L195.51665243381726,321.1819717643244L197.5661827497865,318.0606214653365L199.61571306575576,315.93954944749146L201.66524338172502,314.9452969391266L203.71477369769428,314.7018557188966L205.76430401366355,314.03540524965325L207.81383432963278,313.4123403444113L209.86336464560205,312.6723754472767L211.91289496157128,311.97941157781025L213.96242527754058,311.0502374154475L216.01195559350984,310.1005756256395L218.06148590947907,309.73902925896147L220.11101622544834,308.7749056144864L222.1605465414176,306.2778253752961L224.21007685738684,304.20736984878596L226.2596071733561,300.2255391971041L228.30913748932537,298.3696011814897L230.3586678052946,297.3500404274573L232.4081981212639,296.959570351445L234.3723313407344,295.94000959741265L236.42186165670367,294.7457014328192L238.47139197267293,293.5441623408922L240.52092228864217,292.0545913101783L242.57045260461143,290.2998862772337L244.6199829205807,289.242965731978L246.66951323655,288.8440595740765L248.7190435525192,288.1450699318321L250.7685738684885,287.18817721469065L252.81810418445775,284.1548031982611L254.867634500427,280.67672715081744L256.9171648163962,277.05885317492493L258.9666951323655,275.3354821604258L261.01622544833475,274.20263687816765L263.065755764304,273.18066581502416L265.1152860802733,270.37868147326856L267.1648163962425,265.8955065264597L269.2143467122118,262.4029686243489L271.263877028181,258.4175225090003L273.3134073441503,256.83756488661686L275.36293766011954,256.33260512782306L277.4124679760888,254.74421142355047L279.46199829205807,252.16156521091298L281.51152860802733,249.82115506394985L283.56105892399654,245.00053684157476L285.6105892399658,240.12086604597556L287.6601195559351,237.53821983333808L289.70964987190433,236.541557015862L291.75918018787365,233.51661908132164L293.80871050384286,228.985237952289L295.85824081981207,225.87714435341266L297.9077711357814,221.97364874784444L299.95730145175065,219.56936540943482L302.00683176771986,218.05448613305342L304.0563620836892,215.8719512328731L306.1058923996584,213.1603534827871L308.1554227156277,207.98662497562302L310.2049530315969,203.3817294186992L312.2544833475662,198.91663179022424L314.3040136635355,194.45635477997166L316.35354397950465,191.0144333691958L318.4030742954739,189.37421801903267L320.45260461144323,186.0974027823732L322.5021349274125,182.65307106248616L324.5516652433817,178.41092702679603L326.601195559351,173.7373376602034L328.65072587532023,169.3927554872878L330.7002561912895,164.07320327889687L332.74978650725876,163.0753353068652L334.799316823228,160.93859627979745L336.84884713919723,158.30774388493623L338.8983774551665,152.4374360446389L340.94790777113576,147.4577374209254L342.997438087105,143.00107587433965L345.04696840307435,138.84931843031904L347.09649871904355,138.5649019551989L349.14602903501276,137.3681834814943L351.1955593509821,135.571298039104L353.24508966695134,133.68764146871086L355.29461998292055,130.44698086871927L357.3441502988899,127.385888297511L359.3936806148591,125.33592039844602L361.4432109308283,124.60559673775617L363.4927412467976,123.66678133894864L365.54227156276687,122.60624533002608L367.5918018787362,121.44809180210048L369.6413321947054,120.40201764784507L371.6908625106746,117.74585700731635L373.7403928266439,116.43826431449712L375.78992314261313,116.00922929270575L377.8394534585824,115.36688191457426L379.8889837745517,114.22198508676016L381.9385140905209,111.6055945465661L383.98804440649013,110.23653897141153L386.03757472245945,109.15913079871068L388.0871050384287,108.50593702957886L390.136635354398,108.11064633534411L392.18616567036725,108.02267005278577L394.23569598633645,107.19111340942607L396.2852263023057,106.5234577856271L398.334756618275,104.79767646201678L400.38428693424424,103.63470231586881L402.43381725021345,100.70497159122033L404.4833475661828,99.86618402052703L406.532877882152,98.82131502082726L408.58240819812124,97.83429343979597L410.63193851409056,96.98345432354672L412.6814688300598,94.73102045914197L414.730999146029,93.62468857710688L416.7805294619983,92.84254327052652L418.83005977796756,92.40025154862361L420.87959009393677,91.2951248211441L422.9291204099061,90.39246405900437L424.9786507258753,89.70070534409354L427.02818104184456,88.19305699504574L429.0777113578138,87.29039623290596L431.1272416737831,86.94210656633935L433.17677198975235,86.6817931823311L435.2263023057216,86.38050454343268L437.2758326216908,85.81890252052597L439.3253629376601,85.28501905239793L441.3748932536294,84.34379334447917L443.4244235695986,83.71711297557042L445.47395388556794,83.34351506333635L447.52348420153714,83.09766353399522L449.5730145175064,82.82047798620866L451.6225448334757,82.47339347419762L453.67207514944494,82.07689762540724L455.7216054654142,81.2911368551601L457.77113578138346,80.81389565114499L459.82066609735267,80.58009566735981L461.87019641332193,80.56081319447033L463.91972672929126,80.23542146445998L465.96925704526046,79.80156582444624L468.0187873612297,79.40989059387829L470.068317677199,78.73620919730135L472.1178479931682,78.21317212017362L474.16737830913746,77.90103709027484L476.2169086251068,77.7347257616029L478.26643894107605,77.37197424036913L480.3159692570452,77.10804539269411L482.3654995730145,76.73444748046006L484.4150298889838,76.08848463866178L486.46456020495305,75.60401250731309L488.5140905209223,75.37623829630589L490.5636208368915,75.1761826400773L492.6131511528608,74.68930019961739L494.66268146883004,74.31208682371653L496.7122117847993,73.93969406603807L498.7617421007686,73.35880957024185L500.81127241673784,72.80082301100198L502.86080273270704,72.55256117254963L504.9103330486763,72.45373849899094L506.9598633646456,72.13919315998098L509.0093936806149,71.77644163874729L511.0589239965841,71.42815197218061L513.1084543125534,70.9147561314977L515.1579846285226,70.45800255492763L517.2075149444919,70.27240875336618L519.257045260461,70.1422520613621L521.3065755764304,69.8421685770192L523.3561058923997,69.5710088020106L525.4056362083688,69.25646346300063L527.4551665243382,68.90817379643403L529.5046968403075,68.49360062930977L531.5542271562766,68.26823672741378L533.603757472246,68.04648828918452L535.6532877882153,67.7114553227294L537.7028181041845,67.36678111982961L539.7523484201537,66.96666980737243L541.801878736123,66.56776364947095L543.8514090520922,65.97964822634114L545.9009393680615,65.66871835099799L547.9504696840307,65.50120186777042L550,65.36984002121069" class="vaccineLine" id="vaccineLine-full" stroke="#4E79A7" stroke-width="5" fill="none" style="stroke-width: 5;"></path></g><text class="vaccineEndLabel" id="endLabel-partial" x="555" y="23.084582129091743" fill="#E15759" style="font-size: 16pt; font-weight: bold; alignment-baseline: middle; fill-opacity: 1;">61%</text><text class="vaccineEndLabel" id="endLabel-full" x="555" y="65.36984002121069" fill="#4E79A7" style="font-size: 16pt; font-weight: bold; alignment-baseline: middle; fill-opacity: 1;">54%</text><g id="vaccineHoverOver" style="fill-opacity: 1; stroke-opacity: 1;"><line x1="277.4124679760888" x2="277.4124679760888" y1="360" y2="170.2062348123136" stroke-width="2" stroke="black" style="stroke-dasharray: 3, 3;"></line><line x1="97.4124679760888" x2="277.4124679760888" y1="170.2062348123136" y2="170.2062348123136" stroke-width="2" stroke="black" style="stroke-dasharray: 3, 3;"></line><text x="97.4124679760888" y="133.2062348123136" style="font-weight: bold;">April 5, 2021</text><text x="97.4124679760888" y="149.2062348123136">Residents 16+ become</text><text x="97.4124679760888" y="165.2062348123136">eligible for the vaccine.</text></g></svg>