<?xml version="1.0" encoding="UTF-8" standalone="no"?>
<svg
   xmlns:dc="http://purl.org/dc/elements/1.1/"
   xmlns:cc="http://creativecommons.org/ns#"
   xmlns:rdf="http://www.w3.org/1999/02/22-rdf-syntax-ns#"
   xmlns:svg="http://www.w3.org/2000/svg"
   xmlns="http://www.w3.org/2000/svg"
   xmlns:sodipodi="http://sodipodi.sourceforge.net/DTD/sodipodi-0.dtd"
   xmlns:inkscape="http://www.inkscape.org/namespaces/inkscape"
   width="110.15141mm"
   height="107.19304mm"
   viewBox="0 0 110.15141 107.19304"
   version="1.1"
   id="svg55262"
   inkscape:version="1.0.1 (3bc2e813f5, 2020-09-07)"
   sodipodi:docname="vaccinationFullPartial.svg"
   inkscape:export-filename="C:\nexus\data-gh\covid-dashboard\print\inkscape\vaccinationFullPartial.png"
   inkscape:export-xdpi="600"
   inkscape:export-ydpi="600">
  <defs
     id="defs55256" />
  <sodipodi:namedview
     id="base"
     pagecolor="#ffffff"
     bordercolor="#666666"
     borderopacity="1.0"
     inkscape:pageopacity="0.0"
     inkscape:pageshadow="2"
     inkscape:zoom="1.4"
     inkscape:cx="172.57369"
     inkscape:cy="175.92936"
     inkscape:document-units="mm"
     inkscape:current-layer="layer1"
     inkscape:document-rotation="0"
     showgrid="false"
     inkscape:window-width="1431"
     inkscape:window-height="1030"
     inkscape:window-x="192"
     inkscape:window-y="0"
     inkscape:window-maximized="0" />
  <metadata
     id="metadata55259">
    <rdf:RDF>
      <cc:Work
         rdf:about="">
        <dc:format>image/svg+xml</dc:format>
        <dc:type
           rdf:resource="http://purl.org/dc/dcmitype/StillImage" />
        <dc:title />
      </cc:Work>
    </rdf:RDF>
  </metadata>
  <g
     inkscape:label="Layer 1"
     inkscape:groupmode="layer"
     id="layer1"
     transform="translate(-90.8231,-50.724908)">
    <text
       xml:space="preserve"
       style="font-style:normal;font-variant:normal;font-weight:normal;font-stretch:normal;font-size:6.35px;line-height:7.9375px;font-family:sans-serif;-inkscape-font-specification:'sans-serif, Normal';font-variant-ligatures:normal;font-variant-caps:normal;font-variant-numeric:normal;font-variant-east-asian:normal;fill:#000000;fill-opacity:1;stroke:none;stroke-width:0.264583"
       x="90.742485"
       y="55.549419"
       id="text13625"><tspan
         sodipodi:role="line"
         id="tspan13623"
         x="90.742485"
         y="55.549419"
         style="font-style:normal;font-variant:normal;font-weight:normal;font-stretch:normal;font-size:6.35px;font-family:sans-serif;-inkscape-font-specification:'sans-serif, Normal';font-variant-ligatures:normal;font-variant-caps:normal;font-variant-numeric:normal;font-variant-east-asian:normal;stroke-width:0.264583">Santa Barbara County COVID-19 </tspan><tspan
         sodipodi:role="line"
         x="90.742485"
         y="63.486919"
         style="font-style:normal;font-variant:normal;font-weight:normal;font-stretch:normal;font-size:6.35px;font-family:sans-serif;-inkscape-font-specification:'sans-serif, Normal';font-variant-ligatures:normal;font-variant-caps:normal;font-variant-numeric:normal;font-variant-east-asian:normal;stroke-width:0.264583"
         id="tspan13627">Vaccinations Through August 2021</tspan></text>
    <g
       id="g52953"
       transform="matrix(0.26458333,0,0,0.26458333,91.238196,68.335656)">
      <g
         transform="translate(0,315)"
         style="font-size:16px;font-family:'Helvetica Neue', Helvetica, Arial, sans-serif"
         id="g52855">
        <g
           fill="none"
           font-size="10"
           font-family="sans-serif"
           text-anchor="middle"
           style="color:#adadad;font-size:16px"
           id="g52853">
          <path
             class="domain"
             stroke="currentColor"
             d="M 50,6 V 0 h 300 v 6"
             id="path52833" />
          <g
             class="tick"
             opacity="1"
             transform="translate(70.905209)"
             id="g52839">
            <line
               stroke="currentColor"
               y2="6"
               id="line52835"
               x1="0"
               y1="0"
               x2="0" />
            <text
               fill="currentColor"
               y="9"
               dy="0.70999998em"
               id="text52837">Jan'21</text>
          </g>
          <g
             class="tick"
             opacity="1"
             transform="translate(181.52861)"
             id="g52845">
            <line
               stroke="currentColor"
               y2="6"
               id="line52841"
               x1="0"
               y1="0"
               x2="0" />
            <text
               fill="currentColor"
               y="9"
               dy="0.70999998em"
               id="text52843">Apr</text>
          </g>
          <g
             class="tick"
             opacity="1"
             transform="translate(293.43296)"
             id="g52851">
            <line
               stroke="currentColor"
               y2="6"
               id="line52847"
               x1="0"
               y1="0"
               x2="0" />
            <text
               fill="currentColor"
               y="9"
               dy="0.70999998em"
               id="text52849">Jul</text>
          </g>
        </g>
      </g>
      <g
         id="g52879">
        <line
           x1="50"
           x2="350"
           y1="263.33334"
           y2="263.33334"
           stroke="#d3d3d3"
           stroke-width="0.5px"
           id="line52857" />
        <text
           fill="#adadad"
           x="50"
           y="258.33334"
           id="text52859">10%</text>
        <line
           x1="50"
           x2="350"
           y1="216.66667"
           y2="216.66667"
           stroke="#d3d3d3"
           stroke-width="0.5px"
           id="line52861" />
        <text
           fill="#adadad"
           x="50"
           y="211.66667"
           id="text52863">20%</text>
        <line
           x1="50"
           x2="350"
           y1="170"
           y2="170"
           stroke="#d3d3d3"
           stroke-width="0.5px"
           id="line52865" />
        <text
           fill="#adadad"
           x="50"
           y="165"
           id="text52867">30%</text>
        <line
           x1="50"
           x2="350"
           y1="123.33334"
           y2="123.33334"
           stroke="#d3d3d3"
           stroke-width="0.5px"
           id="line52869" />
        <line
           x1="50"
           x2="350"
           y1="76.666664"
           y2="76.666664"
           stroke="#d3d3d3"
           stroke-width="0.5px"
           id="line52871" />
        <text
           fill="#adadad"
           x="50"
           y="71.666664"
           id="text52873">50%</text>
        <line
           x1="50"
           x2="350"
           y1="30"
           y2="30"
           stroke="#d3d3d3"
           stroke-width="0.5px"
           id="line52875" />
        <text
           fill="#adadad"
           x="50"
           y="25"
           id="text52877">60% of Total County Population</text>
      </g>
      <g
         id="g52882">
        <path
           d="m 50,309.99795 1.229718,-0.002 1.229718,-0.16668 1.229719,-0.40493 1.229718,-0.3354 1.229718,-0.23927 1.229718,-0.67796 1.229718,-0.2628 1.229719,-0.33539 1.229718,-0.091 h 1.229718 l 1.229718,-0.33847 1.229718,-0.0644 1.229718,-0.37016 1.229719,-0.57979 1.229718,-0.59922 1.229718,-0.24746 1.229718,-0.12782 1.229718,-0.61558 1.229719,-0.0235 1.229718,-0.31086 1.229718,-0.74647 1.229718,-0.56854 1.229718,-0.49389 1.229719,-0.7209 1.229718,-0.32824 1.229718,-0.046 1.229718,-0.63501 1.229718,-1.30887 1.229718,-1.12174 1.229719,-1.23627 1.229718,-1.77004 1.229718,-1.26593 1.229718,-0.12679 1.229718,-0.98575 1.229719,-1.40908 1.229718,-1.85798 1.229718,-3.12493 1.229718,-2.84679 1.229718,-1.25366 1.229719,-0.86917 1.229722,-1.03176 1.22971,-1.75061 1.22972,-0.92848 1.22972,-0.7025 1.22972,-1.01131 1.22972,-1.51645 1.22971,-1.45509 1.22972,-0.56956 1.22972,-1.07471 1.22972,-1.55633 1.22972,-2.58297 1.22972,-2.32836 1.22971,-0.81089 1.22972,-0.27916 1.22972,-0.68 1.22972,-1.15242 1.22972,-0.75771 1.22971,-0.66057 1.22972,-0.7935 1.22972,-0.58082 1.22972,-0.2996 1.22972,-0.51026 1.22972,-0.74749 1.22971,-0.53684 1.22972,-1.57269 1.22972,-2.39073 1.22972,-1.7997 1.22972,-0.0665 1.22972,-0.29143 1.22971,-0.4489 1.22972,-0.76691 1.22972,-1.07369 1.22972,-2.12896 1.22972,-0.96222 1.22971,-0.98268 1.22972,-1.21684 1.22972,-2.29666 1.22972,-4.27632 1.22972,-3.05847 1.22972,-3.41226 1.22971,-1.98172 1.22972,-0.68 1.22972,-1.1923 1.22972,-1.54712 1.22972,-2.15657 1.22971,-3.45317 1.22972,-2.69341 1.22972,-2.9828 1.22972,-0.58899 1.17848,-1.59825 1.22972,-3.15459 1.22972,-2.80384 1.22971,-4.33973 1.22972,-3.45214 1.22972,-1.42442 1.22972,-0.90497 1.22972,-2.30279 1.22971,-3.88776 1.22972,-3.7722 1.22972,-2.97666 1.22972,-2.48174 1.22972,-1.65041 1.22972,-1.93774 1.22971,-3.35909 1.22972,-4.74977 1.22972,-5.14653 1.22972,-4.52276 1.22972,-4.02989 1.22971,-2.63921 1.22972,-0.54503 1.22972,-2.50832 1.22972,-4.01251 1.22972,-4.74466 1.22972,-5.28047 1.22971,-4.75898 1.22972,-5.30399 1.22972,-2.20054 1.22972,-2.51037 1.22972,-2.68933 1.22971,-4.33768 1.22972,-3.84992 1.22972,-4.53503 1.22972,-4.17714 1.22972,-0.38652 1.22972,-1.058349 1.22971,-1.691306 1.22972,-1.818104 1.22972,-1.540991 1.22972,-2.063516 1.22972,-1.693352 1.22971,-0.5123 1.22972,-0.612511 1.22972,-1.3283 1.22972,-1.57269 1.22972,-1.747547 1.22972,-1.626885 1.22971,-0.96836 1.22972,-0.454015 1.22972,-0.59615 1.22972,-1.265923 1.22972,-0.814977 1.22971,-1.122766 1.22972,-1.209683 1.22972,-1.044029 1.22972,-0.517413 1.22972,-0.478556 1.22972,-0.760781 1.22971,-0.766917 1.22972,-1.467366 1.22972,-1.756751 1.22972,-1.919336 1.22972,-0.669774 1.22971,-0.946886 1.22972,-1.10436 1.22972,-0.87224 1.22972,-1.021533 1.22972,-1.345682 1.22972,-1.486796 1.22971,-0.466285 1.22972,-0.565473 1.22972,-0.54809 1.22972,-0.97654 1.22972,-0.990857 1.22971,-0.782254 1.22972,-0.41209 1.22972,-0.291429 1.22972,-0.03477 1.22972,-0.512301 1.22972,-0.518435 1.22971,-0.689203 1.22972,-0.636029 1.22972,-0.540932 1.22972,-0.251548 1.22972,-0.358917 1.22971,-0.330286 1.22972,-0.414135 1.22972,-0.60842 1.22972,-0.506165 1.22972,-0.261774 1.22972,-0.227007 1.22971,-0.421293 1.22972,-0.444812 1.22972,-0.408 1.22972,-0.724991 1.22972,-0.476511 1.22972,-0.288361 1.22971,-0.165654 1.22972,-0.333353 1.22972,-0.339488 1.22972,-0.3763 1.22972,-0.655458 1.22971,-0.525594 1.22972,-0.23621 1.22972,-0.262797 1.22972,-0.27609 1.22972,-0.294496 1.22972,-0.360962 1.22971,-0.568541 1.22972,-0.448902 1.22972,-0.169744 1.22972,-0.0092 1.22972,-0.248481 1.22971,-0.248481 1.22972,-0.319037 1.22972,-0.474466 1.22972,-0.363007 1.22972,-0.191218 1.22972,-0.10839 1.22971,-0.241324 1.22972,-0.216781 1.22972,-0.233143 1.22972,-0.388571 1.22972,-0.398797 1.22971,-0.23212 1.22972,-0.235187 1.22972,-0.430496 1.22972,-0.400842 1.22972,-0.423338 1.22972,-0.524571 1.22971,-0.611488 1.22972,-0.313924 1.22972,-0.206557 1.22972,-0.447879 1.22972,-0.505142 1.22971,-0.55627 1.22972,-0.604331 1.22972,-0.563428 1.22972,-0.310856 1.22972,-0.377323 1.22972,-0.509233 1.22971,-0.461172 1.22972,-0.565473 1.22972,-0.555248 1.22972,-0.768962 1.22972,-0.404932 1.22971,-0.353804 1.22972,-0.540932 1.22972,-0.499007 1.22972,-0.577743 1.22972,-0.507188 1.22972,-0.755668 1.22971,-0.432541 1.22972,-0.237233 L 350,24.132373 v 35.8784 l -1.22972,0.111459 -1.22972,0.142135 -1.22971,0.263819 -1.22972,0.499007 -1.22972,0.338466 -1.22972,0.339489 -1.22972,0.29245 -1.22972,0.284271 -1.22971,0.18815 -1.22972,0.191218 -1.22972,0.351759 -1.22972,0.295518 -1.22972,0.266887 -1.22971,0.230075 -1.22972,0.254617 -1.22972,0.110436 -1.22972,0.157473 -1.22972,0.387549 -1.22972,0.435608 -1.22971,0.295519 -1.22972,0.307789 -1.22972,0.266887 -1.22972,0.08385 -1.22972,0.210647 -1.22971,0.473443 -1.22972,0.492872 -1.22972,0.315969 -1.22972,0.32006 -1.22972,0.413112 -1.22972,0.169745 -1.22971,0.193263 -1.22972,0.411067 -1.22972,0.54809 -1.22972,0.316992 -1.22972,0.223939 -1.22971,0.30779 -1.22972,0.141112 -1.22972,0.264842 -1.22972,0.443789 -1.22972,0.571609 -1.22972,0.33233 -1.22971,0.36812 -1.22972,0.27609 -1.22972,0.01636 -1.22972,0.198376 -1.22972,0.404931 -1.22971,0.666707 -1.22972,0.33642 -1.22972,0.294496 -1.22972,0.235188 -1.22972,0.208601 -1.22972,0.316992 -1.22971,0.531729 -1.22972,0.798616 -1.22972,0.452992 -1.22972,0.476511 -1.22972,0.255639 -1.22971,0.220872 -1.22972,0.295518 -1.22972,0.765894 -1.22972,1.279217 -1.22972,0.586947 -1.22972,0.765894 -1.22971,0.937683 -1.22972,0.375278 -1.22972,0.663638 -1.22972,0.938706 -1.22972,1.911156 -1.22972,0.721924 -1.22971,0.837473 -1.22972,0.886556 -1.22972,0.711698 -1.22972,2.485832 -1.22972,0.986766 -1.22971,1.464299 -1.22972,0.566496 -1.22972,0.705563 -1.22972,0.07465 -1.22972,0.335398 -1.22972,0.554225 -1.22971,0.914165 -1.22972,1.161623 -1.22972,2.219966 -1.22972,0.97143 -1.22972,0.54502 -1.22971,0.36403 -1.22972,1.10947 -1.22972,2.25371 -1.22972,0.88758 -1.22972,0.98268 -1.22972,0.89984 -1.22971,0.79658 -1.22972,0.61966 -1.22972,1.73937 -1.22972,2.59729 -1.22972,2.74965 -1.22971,1.59826 -1.22972,1.52463 -1.22972,1.01539 -1.22972,0.24133 -1.22972,3.5227 -1.22972,3.78141 -1.22971,4.2252 -1.22972,4.98087 -1.22972,2.23224 -1.22972,1.81299 -1.22972,0.84667 -1.22971,4.51356 -1.22972,3.68631 -1.22972,3.96547 -1.22972,3.5994 -1.22972,2.92246 -1.22972,2.78033 -1.22971,1.3917 -1.22972,2.92042 -1.22972,3.78447 -1.22972,3.78857 -1.22972,3.90718 -1.22971,4.38983 -1.22972,2.30075 -1.22972,1.85185 -1.22972,1.28535 -1.22972,2.04 -1.22972,3.31206 -1.22971,2.63717 -1.22972,3.84481 -1.22972,2.56661 -1.22972,0.84566 -1.22972,2.19133 -1.22971,4.14033 -1.22972,4.09022 -1.22972,1.9858 -1.22972,2.19134 -1.22972,1.34773 -1.22972,0.42845 -1.22971,1.34057 -1.22972,3.38159 -1.22972,2.96336 -1.22972,3.80391 -1.22972,2.37744 -1.22971,0.86713 -1.22972,0.9612 -1.22972,1.46225 -1.22972,3.06971 -1.22972,2.9511 -1.22972,2.57377 -1.22971,0.81191 -1.22972,0.59308 -1.22972,0.33847 -1.22972,0.89678 -1.22972,1.48884 -1.22971,1.26388 -1.22972,1.01949 -1.22972,1.01335 -1.17848,0.86508 -1.22972,0.33131 -1.22972,0.86508 -1.22972,1.57474 -1.22971,3.37852 -1.22972,1.75675 -1.22972,2.11873 -1.22972,0.81805 -1.22972,0.30676 -1.22971,0.80578 -1.22972,0.78839 -1.22972,0.58797 -1.22972,0.62785 -1.22972,0.52866 -1.22972,0.56547 -1.22971,0.20656 -1.22972,0.84361 -1.22972,1.79969 -1.22972,2.64842 -1.22972,2.68216 -1.22971,3.00836 -1.22972,0.71784 -1.22972,0.0849 -1.22972,0.5849 -1.22972,1.30887 -1.22972,1.75368 -1.22971,0.95916 -1.22972,1.48884 -1.22972,0.49798 -1.22972,0.0522 -1.22972,0.69738 -1.22972,2.5932 -1.22971,3.6812 -1.22972,2.08192 -1.22972,1.35898 -1.22972,0.29654 -1.22972,0.0378 -1.22971,0.42743 -1.22972,0.6708 -1.22972,0.3037 -1.22972,0.4581 -1.22972,0.78123 -1.22972,0.40903 -1.22971,0.0419 -1.22972,0.42845 -1.22972,0.37119 -1.22972,0.21985 -1.22972,0.27097 -1.22971,0.39164 -1.229722,0.2403 -1.229719,0.0102 -1.229718,0.53071 -1.229718,0.1769 -1.229718,0.17076 -1.229718,0.43868 -1.229719,0.28734 -1.229718,0.19224 -1.229718,0.003 -1.229718,0.0419 -1.229718,0.0859 -1.229719,0.0583 -1.229718,0.13498 -1.229718,0.1677 -1.229718,0.23825 -1.229718,0.0184 -1.229718,0.25768 -1.229719,0.51639 -1.229718,0.5665 -1.229718,0.10839 L 74.594364,310 H 73.364646 72.134927 70.905209 69.675491 68.445773 67.216055 65.986336 64.756618 63.5269 62.297182 61.067464 59.837746 58.608027 57.378309 56.148591 54.918873 53.689155 52.459436 51.229718 50 Z"
           class="vaccineArea"
           id="vaccine-partial"
           fill="#e15759"
           fill-opacity="0.5"
           style="fill-opacity:0.5" />
      </g>
      <g
         id="g52885">
        <path
           class="vaccineLine"
           id="vaccineLine-partial"
           d="m 50,309.99795 1.229718,-0.002 1.229718,-0.16668 1.229719,-0.40493 1.229718,-0.3354 1.229718,-0.23927 1.229718,-0.67796 1.229718,-0.2628 1.229719,-0.33539 1.229718,-0.091 h 1.229718 l 1.229718,-0.33847 1.229718,-0.0644 1.229718,-0.37016 1.229719,-0.57979 1.229718,-0.59922 1.229718,-0.24746 1.229718,-0.12782 1.229718,-0.61558 1.229719,-0.0235 1.229718,-0.31086 1.229718,-0.74647 1.229718,-0.56854 1.229718,-0.49389 1.229719,-0.7209 1.229718,-0.32824 1.229718,-0.046 1.229718,-0.63501 1.229718,-1.30887 1.229718,-1.12174 1.229719,-1.23627 1.229718,-1.77004 1.229718,-1.26593 1.229718,-0.12679 1.229718,-0.98575 1.229719,-1.40908 1.229718,-1.85798 1.229718,-3.12493 1.229718,-2.84679 1.229718,-1.25366 1.229719,-0.86917 1.229722,-1.03176 1.22971,-1.75061 1.22972,-0.92848 1.22972,-0.7025 1.22972,-1.01131 1.22972,-1.51645 1.22971,-1.45509 1.22972,-0.56956 1.22972,-1.07471 1.22972,-1.55633 1.22972,-2.58297 1.22972,-2.32836 1.22971,-0.81089 1.22972,-0.27916 1.22972,-0.68 1.22972,-1.15242 1.22972,-0.75771 1.22971,-0.66057 1.22972,-0.7935 1.22972,-0.58082 1.22972,-0.2996 1.22972,-0.51026 1.22972,-0.74749 1.22971,-0.53684 1.22972,-1.57269 1.22972,-2.39073 1.22972,-1.7997 1.22972,-0.0665 1.22972,-0.29143 1.22971,-0.4489 1.22972,-0.76691 1.22972,-1.07369 1.22972,-2.12896 1.22972,-0.96222 1.22971,-0.98268 1.22972,-1.21684 1.22972,-2.29666 1.22972,-4.27632 1.22972,-3.05847 1.22972,-3.41226 1.22971,-1.98172 1.22972,-0.68 1.22972,-1.1923 1.22972,-1.54712 1.22972,-2.15657 1.22971,-3.45317 1.22972,-2.69341 1.22972,-2.9828 1.22972,-0.58899 1.17848,-1.59825 1.22972,-3.15459 1.22972,-2.80384 1.22971,-4.33973 1.22972,-3.45214 1.22972,-1.42442 1.22972,-0.90497 1.22972,-2.30279 1.22971,-3.88776 1.22972,-3.7722 1.22972,-2.97666 1.22972,-2.48174 1.22972,-1.65041 1.22972,-1.93774 1.22971,-3.35909 1.22972,-4.74977 1.22972,-5.14653 1.22972,-4.52276 1.22972,-4.02989 1.22971,-2.63921 1.22972,-0.54503 1.22972,-2.50832 1.22972,-4.01251 1.22972,-4.74466 1.22972,-5.28047 1.22971,-4.75898 1.22972,-5.30399 1.22972,-2.20054 1.22972,-2.51037 1.22972,-2.68933 1.22971,-4.33768 1.22972,-3.84992 1.22972,-4.53503 1.22972,-4.17714 1.22972,-0.38652 1.22972,-1.058349 1.22971,-1.691306 1.22972,-1.818104 1.22972,-1.540991 1.22972,-2.063516 1.22972,-1.693352 1.22971,-0.5123 1.22972,-0.612511 1.22972,-1.3283 1.22972,-1.57269 1.22972,-1.747547 1.22972,-1.626885 1.22971,-0.96836 1.22972,-0.454015 1.22972,-0.59615 1.22972,-1.265923 1.22972,-0.814977 1.22971,-1.122766 1.22972,-1.209683 1.22972,-1.044029 1.22972,-0.517413 1.22972,-0.478556 1.22972,-0.760781 1.22971,-0.766917 1.22972,-1.467366 1.22972,-1.756751 1.22972,-1.919336 1.22972,-0.669774 1.22971,-0.946886 1.22972,-1.10436 1.22972,-0.87224 1.22972,-1.021533 1.22972,-1.345682 1.22972,-1.486796 1.22971,-0.466285 1.22972,-0.565473 1.22972,-0.54809 1.22972,-0.97654 1.22972,-0.990857 1.22971,-0.782254 1.22972,-0.41209 1.22972,-0.291429 1.22972,-0.03477 1.22972,-0.512301 1.22972,-0.518435 1.22971,-0.689203 1.22972,-0.636029 1.22972,-0.540932 1.22972,-0.251548 1.22972,-0.358917 1.22971,-0.330286 1.22972,-0.414135 1.22972,-0.60842 1.22972,-0.506165 1.22972,-0.261774 1.22972,-0.227007 1.22971,-0.421293 1.22972,-0.444812 1.22972,-0.408 1.22972,-0.724991 1.22972,-0.476511 1.22972,-0.288361 1.22971,-0.165654 1.22972,-0.333353 1.22972,-0.339488 1.22972,-0.3763 1.22972,-0.655458 1.22971,-0.525594 1.22972,-0.23621 1.22972,-0.262797 1.22972,-0.27609 1.22972,-0.294496 1.22972,-0.360962 1.22971,-0.568541 1.22972,-0.448902 1.22972,-0.169744 1.22972,-0.0092 1.22972,-0.248481 1.22971,-0.248481 1.22972,-0.319037 1.22972,-0.474466 1.22972,-0.363007 1.22972,-0.191218 1.22972,-0.10839 1.22971,-0.241324 1.22972,-0.216781 1.22972,-0.233143 1.22972,-0.388571 1.22972,-0.398797 1.22971,-0.23212 1.22972,-0.235187 1.22972,-0.430496 1.22972,-0.400842 1.22972,-0.423338 1.22972,-0.524571 1.22971,-0.611488 1.22972,-0.313924 1.22972,-0.206557 1.22972,-0.447879 1.22972,-0.505142 1.22971,-0.55627 1.22972,-0.604331 1.22972,-0.563428 1.22972,-0.310856 1.22972,-0.377323 1.22972,-0.509233 1.22971,-0.461172 1.22972,-0.565473 1.22972,-0.555248 1.22972,-0.768962 1.22972,-0.404932 1.22971,-0.353804 1.22972,-0.540932 1.22972,-0.499007 1.22972,-0.577743 1.22972,-0.507188 1.22972,-0.755668 1.22971,-0.432541 1.22972,-0.237233 L 350,24.132373"
           stroke="#e15759"
           stroke-width="5"
           fill="none"
           style="stroke-width:5" />
      </g>
      <g
         id="g52888">
        <path
           d="m 50,310 h 1.229718 1.229718 1.229719 1.229718 1.229718 1.229718 1.229718 1.229719 1.229718 1.229718 1.229718 1.229718 1.229718 1.229719 1.229718 1.229718 1.229718 1.229718 1.229719 1.229718 l 1.229718,-0.0317 1.229718,-0.10839 1.229718,-0.5665 1.229719,-0.51639 1.229718,-0.25768 1.229718,-0.0184 1.229718,-0.23825 1.229718,-0.1677 1.229718,-0.13498 1.229719,-0.0583 1.229718,-0.0859 1.229718,-0.0419 1.229718,-0.003 1.229718,-0.19224 1.229719,-0.28734 1.229718,-0.43868 1.229718,-0.17076 1.229718,-0.1769 1.229718,-0.53071 1.229719,-0.0102 1.229722,-0.2403 1.22971,-0.39164 1.22972,-0.27097 1.22972,-0.21985 1.22972,-0.37119 1.22972,-0.42845 1.22971,-0.0419 1.22972,-0.40903 1.22972,-0.78123 1.22972,-0.4581 1.22972,-0.3037 1.22972,-0.6708 1.22971,-0.42743 1.22972,-0.0378 1.22972,-0.29654 1.22972,-1.35898 1.22972,-2.08192 1.22971,-3.6812 1.22972,-2.5932 1.22972,-0.69738 1.22972,-0.0522 1.22972,-0.49798 1.22972,-1.48884 1.22971,-0.95916 1.22972,-1.75368 1.22972,-1.30887 1.22972,-0.5849 1.22972,-0.0849 1.22972,-0.71784 1.22971,-3.00836 1.22972,-2.68216 1.22972,-2.64842 1.22972,-1.79969 1.22972,-0.84361 1.22971,-0.20656 1.22972,-0.56547 1.22972,-0.52866 1.22972,-0.62785 1.22972,-0.58797 1.22972,-0.78839 1.22971,-0.80578 1.22972,-0.30676 1.22972,-0.81805 1.22972,-2.11873 1.22972,-1.75675 1.22971,-3.37852 1.22972,-1.57474 1.22972,-0.86508 1.22972,-0.33131 1.17848,-0.86508 1.22972,-1.01335 1.22972,-1.01949 1.22971,-1.26388 1.22972,-1.48884 1.22972,-0.89678 1.22972,-0.33847 1.22972,-0.59308 1.22971,-0.81191 1.22972,-2.57377 1.22972,-2.9511 1.22972,-3.06971 1.22972,-1.46225 1.22972,-0.9612 1.22971,-0.86713 1.22972,-2.37744 1.22972,-3.80391 1.22972,-2.96336 1.22972,-3.38159 1.22971,-1.34057 1.22972,-0.42845 1.22972,-1.34773 1.22972,-2.19134 1.22972,-1.9858 1.22972,-4.09022 1.22971,-4.14033 1.22972,-2.19133 1.22972,-0.84566 1.22972,-2.56661 1.22972,-3.84481 1.22971,-2.63717 1.22972,-3.31206 1.22972,-2.04 1.22972,-1.28535 1.22972,-1.85185 1.22972,-2.30075 1.22971,-4.38983 1.22972,-3.90718 1.22972,-3.78857 1.22972,-3.78447 1.22972,-2.92042 1.22971,-1.3917 1.22972,-2.78033 1.22972,-2.92246 1.22972,-3.5994 1.22972,-3.96547 1.22972,-3.68631 1.22971,-4.51356 1.22972,-0.84667 1.22972,-1.81299 1.22972,-2.23224 1.22972,-4.98087 1.22971,-4.2252 1.22972,-3.78141 1.22972,-3.5227 1.22972,-0.24133 1.22972,-1.01539 1.22972,-1.52463 1.22971,-1.59826 1.22972,-2.74965 1.22972,-2.59729 1.22972,-1.73937 1.22972,-0.61966 1.22971,-0.79658 1.22972,-0.89984 1.22972,-0.98268 1.22972,-0.88758 1.22972,-2.25371 1.22972,-1.10947 1.22971,-0.36403 1.22972,-0.54502 1.22972,-0.97143 1.22972,-2.219969 1.22972,-1.161623 1.22971,-0.914165 1.22972,-0.554225 1.22972,-0.335398 1.22972,-0.07465 1.22972,-0.705563 1.22972,-0.566496 1.22971,-1.464299 1.22972,-0.986766 1.22972,-2.485832 1.22972,-0.711698 1.22972,-0.886556 1.22971,-0.837473 1.22972,-0.721924 1.22972,-1.911156 1.22972,-0.938706 1.22972,-0.663638 1.22972,-0.375278 1.22971,-0.937683 1.22972,-0.765894 1.22972,-0.586947 1.22972,-1.279217 1.22972,-0.765894 1.22972,-0.295518 1.22971,-0.220872 1.22972,-0.255639 1.22972,-0.476511 1.22972,-0.452992 1.22972,-0.798616 1.22971,-0.531729 1.22972,-0.316992 1.22972,-0.208601 1.22972,-0.235188 1.22972,-0.294496 1.22972,-0.33642 1.22971,-0.666707 1.22972,-0.404931 1.22972,-0.198376 1.22972,-0.01636 1.22972,-0.27609 1.22971,-0.36812 1.22972,-0.33233 1.22972,-0.571609 1.22972,-0.443789 1.22972,-0.264842 1.22972,-0.141112 1.22971,-0.30779 1.22972,-0.223939 1.22972,-0.316992 1.22972,-0.54809 1.22972,-0.411067 1.22971,-0.193263 1.22972,-0.169745 1.22972,-0.413112 1.22972,-0.32006 1.22972,-0.315969 1.22972,-0.492872 1.22971,-0.473443 1.22972,-0.210647 1.22972,-0.08385 1.22972,-0.266887 1.22972,-0.307789 1.22971,-0.295519 1.22972,-0.435608 1.22972,-0.387549 1.22972,-0.157473 1.22972,-0.110436 1.22972,-0.254617 1.22971,-0.230075 1.22972,-0.266887 1.22972,-0.295518 1.22972,-0.351759 1.22972,-0.191218 1.22971,-0.18815 1.22972,-0.284271 1.22972,-0.29245 1.22972,-0.339489 1.22972,-0.338466 1.22972,-0.499007 1.22971,-0.263819 1.22972,-0.142135 L 350,60.010773 V 310 h -1.22972 -1.22972 -1.22971 -1.22972 -1.22972 -1.22972 -1.22972 -1.22972 -1.22971 -1.22972 -1.22972 -1.22972 -1.22972 -1.22971 -1.22972 -1.22972 -1.22972 -1.22972 -1.22972 -1.22971 -1.22972 -1.22972 -1.22972 -1.22972 -1.22971 -1.22972 -1.22972 -1.22972 -1.22972 -1.22972 -1.22971 -1.22972 -1.22972 -1.22972 -1.22972 -1.22971 -1.22972 -1.22972 -1.22972 -1.22972 -1.22972 -1.22971 -1.22972 -1.22972 -1.22972 -1.22972 -1.22971 -1.22972 -1.22972 -1.22972 -1.22972 -1.22972 -1.22971 -1.22972 -1.22972 -1.22972 -1.22972 -1.22971 -1.22972 -1.22972 -1.22972 -1.22972 -1.22972 -1.22971 -1.22972 -1.22972 -1.22972 -1.22972 -1.22972 -1.22971 -1.22972 -1.22972 -1.22972 -1.22972 -1.22971 -1.22972 -1.22972 -1.22972 -1.22972 -1.22972 -1.22971 -1.22972 -1.22972 -1.22972 -1.22972 -1.22971 -1.22972 -1.22972 -1.22972 -1.22972 -1.22972 -1.22971 -1.22972 -1.22972 -1.22972 -1.22972 -1.22971 -1.22972 -1.22972 -1.22972 -1.22972 -1.22972 -1.22971 -1.22972 -1.22972 -1.22972 -1.22972 -1.22971 -1.22972 -1.22972 -1.22972 -1.22972 -1.22972 -1.22971 -1.22972 -1.22972 -1.22972 -1.22972 -1.22971 -1.22972 -1.22972 -1.22972 -1.22972 -1.22972 -1.22971 -1.22972 -1.22972 -1.22972 -1.22972 -1.22971 -1.22972 -1.22972 -1.22972 -1.22972 -1.22972 -1.22971 -1.22972 -1.22972 -1.22972 -1.22972 -1.22971 -1.22972 -1.22972 -1.22972 -1.22972 -1.22972 -1.22971 -1.22972 -1.22972 -1.22972 -1.22972 -1.22971 -1.22972 -1.22972 -1.17848 -1.22972 -1.22972 -1.22972 -1.22971 -1.22972 -1.22972 -1.22972 -1.22972 -1.22971 -1.22972 -1.22972 -1.22972 -1.22972 -1.22972 -1.22971 -1.22972 -1.22972 -1.22972 -1.22972 -1.22971 -1.22972 -1.22972 -1.22972 -1.22972 -1.22972 -1.22971 -1.22972 -1.22972 -1.22972 -1.22972 -1.22972 -1.22971 -1.22972 -1.22972 -1.22972 -1.22972 -1.22971 -1.22972 -1.22972 -1.22972 -1.22972 -1.22972 -1.22971 -1.22972 -1.22972 -1.22972 -1.22972 -1.22971 H 99.188728 97.959009 96.729291 95.499573 94.269855 93.040137 91.810418 90.5807 89.350982 88.121264 86.891546 85.661827 84.432109 83.202391 81.972673 80.742955 79.513237 78.283518 77.0538 75.824082 74.594364 73.364646 72.134927 70.905209 69.675491 68.445773 67.216055 65.986336 64.756618 63.5269 62.297182 61.067464 59.837746 58.608027 57.378309 56.148591 54.918873 53.689155 52.459436 51.229718 Z"
           class="vaccineArea"
           id="vaccine-full"
           fill="#4e79a7"
           fill-opacity="0.5"
           style="fill-opacity:0.5" />
      </g>
      <g
         id="g52891">
        <path
           d="m 50,310 h 1.229718 1.229718 1.229719 1.229718 1.229718 1.229718 1.229718 1.229719 1.229718 1.229718 1.229718 1.229718 1.229718 1.229719 1.229718 1.229718 1.229718 1.229718 1.229719 1.229718 l 1.229718,-0.0317 1.229718,-0.10839 1.229718,-0.5665 1.229719,-0.51639 1.229718,-0.25768 1.229718,-0.0184 1.229718,-0.23825 1.229718,-0.1677 1.229718,-0.13498 1.229719,-0.0583 1.229718,-0.0859 1.229718,-0.0419 1.229718,-0.003 1.229718,-0.19224 1.229719,-0.28734 1.229718,-0.43868 1.229718,-0.17076 1.229718,-0.1769 1.229718,-0.53071 1.229719,-0.0102 1.229722,-0.2403 1.22971,-0.39164 1.22972,-0.27097 1.22972,-0.21985 1.22972,-0.37119 1.22972,-0.42845 1.22971,-0.0419 1.22972,-0.40903 1.22972,-0.78123 1.22972,-0.4581 1.22972,-0.3037 1.22972,-0.6708 1.22971,-0.42743 1.22972,-0.0378 1.22972,-0.29654 1.22972,-1.35898 1.22972,-2.08192 1.22971,-3.6812 1.22972,-2.5932 1.22972,-0.69738 1.22972,-0.0522 1.22972,-0.49798 1.22972,-1.48884 1.22971,-0.95916 1.22972,-1.75368 1.22972,-1.30887 1.22972,-0.5849 1.22972,-0.0849 1.22972,-0.71784 1.22971,-3.00836 1.22972,-2.68216 1.22972,-2.64842 1.22972,-1.79969 1.22972,-0.84361 1.22971,-0.20656 1.22972,-0.56547 1.22972,-0.52866 1.22972,-0.62785 1.22972,-0.58797 1.22972,-0.78839 1.22971,-0.80578 1.22972,-0.30676 1.22972,-0.81805 1.22972,-2.11873 1.22972,-1.75675 1.22971,-3.37852 1.22972,-1.57474 1.22972,-0.86508 1.22972,-0.33131 1.17848,-0.86508 1.22972,-1.01335 1.22972,-1.01949 1.22971,-1.26388 1.22972,-1.48884 1.22972,-0.89678 1.22972,-0.33847 1.22972,-0.59308 1.22971,-0.81191 1.22972,-2.57377 1.22972,-2.9511 1.22972,-3.06971 1.22972,-1.46225 1.22972,-0.9612 1.22971,-0.86713 1.22972,-2.37744 1.22972,-3.80391 1.22972,-2.96336 1.22972,-3.38159 1.22971,-1.34057 1.22972,-0.42845 1.22972,-1.34773 1.22972,-2.19134 1.22972,-1.9858 1.22972,-4.09022 1.22971,-4.14033 1.22972,-2.19133 1.22972,-0.84566 1.22972,-2.56661 1.22972,-3.84481 1.22971,-2.63717 1.22972,-3.31206 1.22972,-2.04 1.22972,-1.28535 1.22972,-1.85185 1.22972,-2.30075 1.22971,-4.38983 1.22972,-3.90718 1.22972,-3.78857 1.22972,-3.78447 1.22972,-2.92042 1.22971,-1.3917 1.22972,-2.78033 1.22972,-2.92246 1.22972,-3.5994 1.22972,-3.96547 1.22972,-3.68631 1.22971,-4.51356 1.22972,-0.84667 1.22972,-1.81299 1.22972,-2.23224 1.22972,-4.98087 1.22971,-4.2252 1.22972,-3.78141 1.22972,-3.5227 1.22972,-0.24133 1.22972,-1.01539 1.22972,-1.52463 1.22971,-1.59826 1.22972,-2.74965 1.22972,-2.59729 1.22972,-1.73937 1.22972,-0.61966 1.22971,-0.79658 1.22972,-0.89984 1.22972,-0.98268 1.22972,-0.88758 1.22972,-2.25371 1.22972,-1.10947 1.22971,-0.36403 1.22972,-0.54502 1.22972,-0.97143 1.22972,-2.219969 1.22972,-1.161623 1.22971,-0.914165 1.22972,-0.554225 1.22972,-0.335398 1.22972,-0.07465 1.22972,-0.705563 1.22972,-0.566496 1.22971,-1.464299 1.22972,-0.986766 1.22972,-2.485832 1.22972,-0.711698 1.22972,-0.886556 1.22971,-0.837473 1.22972,-0.721924 1.22972,-1.911156 1.22972,-0.938706 1.22972,-0.663638 1.22972,-0.375278 1.22971,-0.937683 1.22972,-0.765894 1.22972,-0.586947 1.22972,-1.279217 1.22972,-0.765894 1.22972,-0.295518 1.22971,-0.220872 1.22972,-0.255639 1.22972,-0.476511 1.22972,-0.452992 1.22972,-0.798616 1.22971,-0.531729 1.22972,-0.316992 1.22972,-0.208601 1.22972,-0.235188 1.22972,-0.294496 1.22972,-0.33642 1.22971,-0.666707 1.22972,-0.404931 1.22972,-0.198376 1.22972,-0.01636 1.22972,-0.27609 1.22971,-0.36812 1.22972,-0.33233 1.22972,-0.571609 1.22972,-0.443789 1.22972,-0.264842 1.22972,-0.141112 1.22971,-0.30779 1.22972,-0.223939 1.22972,-0.316992 1.22972,-0.54809 1.22972,-0.411067 1.22971,-0.193263 1.22972,-0.169745 1.22972,-0.413112 1.22972,-0.32006 1.22972,-0.315969 1.22972,-0.492872 1.22971,-0.473443 1.22972,-0.210647 1.22972,-0.08385 1.22972,-0.266887 1.22972,-0.307789 1.22971,-0.295519 1.22972,-0.435608 1.22972,-0.387549 1.22972,-0.157473 1.22972,-0.110436 1.22972,-0.254617 1.22971,-0.230075 1.22972,-0.266887 1.22972,-0.295518 1.22972,-0.351759 1.22972,-0.191218 1.22971,-0.18815 1.22972,-0.284271 1.22972,-0.29245 1.22972,-0.339489 1.22972,-0.338466 1.22972,-0.499007 1.22971,-0.263819 1.22972,-0.142135 L 350,60.010773"
           class="vaccineLine"
           id="vaccineLine-full"
           stroke="#4e79a7"
           stroke-width="5"
           fill="none"
           style="stroke-width:5" />
      </g>
      <text
         class="vaccineEndLabel"
         id="endLabel-partial"
         x="355"
         y="24.132372"
         fill="#e15759"
         style="font-weight:bold;font-size:21.3333px;fill-opacity:1">61%</text>
      <text
         class="vaccineEndLabel"
         id="endLabel-full"
         x="355"
         y="60.010773"
         fill="#4e79a7"
         style="font-weight:bold;font-size:21.3333px;fill-opacity:1">54%</text>
      <g
         id="vaccineHoverOver"
         style="fill-opacity:1;stroke-opacity:1">
        <line
           x1="186.44748"
           x2="186.44748"
           y1="310"
           y2="148.96286"
           stroke-width="2"
           stroke="#000000"
           style="stroke-dasharray:3, 3"
           id="line52895" />
        <line
           x1="6.4474807"
           x2="186.44748"
           y1="148.96286"
           y2="148.96286"
           stroke-width="2"
           stroke="#000000"
           style="stroke-dasharray:3, 3"
           id="line52897" />
        <text
           x="6.4474807"
           y="111.96287"
           style="font-weight:bold"
           id="text52899">April 5, 2021</text>
        <text
           x="6.4474807"
           y="127.96287"
           id="text52901">Residents 16+ become</text>
        <text
           x="6.4474807"
           y="143.96286"
           id="text52903">eligible for the vaccine.</text>
      </g>
    </g>
    <text
       xml:space="preserve"
       style="font-style:normal;font-variant:normal;font-weight:normal;font-stretch:normal;font-size:3.88056px;line-height:1.25;font-family:sans-serif;-inkscape-font-specification:'sans-serif, Normal';font-variant-ligatures:normal;font-variant-caps:normal;font-variant-numeric:normal;font-variant-east-asian:normal;fill:#000000;fill-opacity:1;stroke:none;stroke-width:0.264583"
       x="90.601265"
       y="68.519676"
       id="text53425-16"><tspan
         sodipodi:role="line"
         id="tspan53423-7"
         x="90.601265"
         y="68.519676"
         style="stroke-width:0.264583">Source: California Health and Human Services</tspan></text>
  </g>
</svg>
