<?xml version="1.0" encoding="UTF-8" standalone="no"?>
<svg
   xmlns:dc="http://purl.org/dc/elements/1.1/"
   xmlns:cc="http://creativecommons.org/ns#"
   xmlns:rdf="http://www.w3.org/1999/02/22-rdf-syntax-ns#"
   xmlns:svg="http://www.w3.org/2000/svg"
   xmlns="http://www.w3.org/2000/svg"
   xmlns:sodipodi="http://sodipodi.sourceforge.net/DTD/sodipodi-0.dtd"
   xmlns:inkscape="http://www.inkscape.org/namespaces/inkscape"
   width="158.75mm"
   height="77.671555mm"
   viewBox="0 0 158.75 77.671555"
   version="1.1"
   id="svg53514"
   inkscape:version="1.0.1 (3bc2e813f5, 2020-09-07)"
   sodipodi:docname="vaccineTypes.svg"
   inkscape:export-filename="C:\nexus\data-gh\covid-dashboard\print\images\vaccineTypes.png"
   inkscape:export-xdpi="600"
   inkscape:export-ydpi="600">
  <defs
     id="defs53508" />
  <sodipodi:namedview
     id="base"
     pagecolor="#ffffff"
     bordercolor="#666666"
     borderopacity="1.0"
     inkscape:pageopacity="0.0"
     inkscape:pageshadow="2"
     inkscape:zoom="0.98994949"
     inkscape:cx="336.22271"
     inkscape:cy="272.89133"
     inkscape:document-units="mm"
     inkscape:current-layer="layer1"
     inkscape:document-rotation="0"
     showgrid="false"
     inkscape:window-width="1431"
     inkscape:window-height="1030"
     inkscape:window-x="314"
     inkscape:window-y="211"
     inkscape:window-maximized="0" />
  <metadata
     id="metadata53511">
    <rdf:RDF>
      <cc:Work
         rdf:about="">
        <dc:format>image/svg+xml</dc:format>
        <dc:type
           rdf:resource="http://purl.org/dc/dcmitype/StillImage" />
        <dc:title></dc:title>
      </cc:Work>
    </rdf:RDF>
  </metadata>
  <g
     inkscape:label="Layer 1"
     inkscape:groupmode="layer"
     id="layer1"
     transform="translate(-27.21429,-52.634461)">
    <g
       id="g1715"
       transform="matrix(0.26458333,0,0,0.26458333,27.21429,63.201585)">
      <g
         id="g1670">
        <rect
           x="0"
           width="350.85016"
           y="22.5"
           height="20"
           fill="#4e79a7"
           fill-opacity="0.8"
           id="rect1662" />
        <text
           x="5"
           y="37.5"
           alignment-baseline="middle"
           fill="#ffffff"
           style="font-weight:bold;text-anchor:start"
           id="text1664">58% of administered vaccines</text>
        <text
           x="5"
           y="17.5"
           fill="#4e79a7"
           style="font-weight:bold;text-anchor:start"
           id="text1666">Pfizer</text>
        <text
           x="5"
           y="17.5"
           fill="#4e79a7"
           style="font-weight:bold;text-anchor:start"
           id="text1668">Pfizer</text>
      </g>
      <g
         id="g1680">
        <rect
           x="350.85016"
           width="223.03174"
           y="22.5"
           height="20"
           fill="#f28e2c"
           fill-opacity="0.8"
           id="rect1672" />
        <text
           x="355.85016"
           y="37.5"
           alignment-baseline="middle"
           fill="#ffffff"
           style="font-weight:bold;text-anchor:start"
           id="text1674">37%</text>
        <text
           x="355.85016"
           y="17.5"
           fill="#f28e2c"
           style="font-weight:bold;text-anchor:start"
           id="text1676">Moderna</text>
        <text
           x="355.85016"
           y="17.5"
           fill="#f28e2c"
           style="font-weight:bold;text-anchor:start"
           id="text1678">Moderna</text>
      </g>
      <g
         id="g1690">
        <rect
           x="573.8819"
           width="26.118111"
           y="22.5"
           height="20"
           fill="#76b7b2"
           fill-opacity="0.8"
           id="rect1682" />
        <text
           x="600"
           y="37.5"
           alignment-baseline="middle"
           fill="#ffffff"
           style="font-weight:bold;text-anchor:end"
           id="text1684">4%</text>
        <text
           x="600"
           y="17.5"
           fill="#76b7b2"
           style="font-weight:bold;text-anchor:end"
           id="text1686">J&amp;J</text>
        <text
           x="600"
           y="17.5"
           fill="#76b7b2"
           style="font-weight:bold;text-anchor:end"
           id="text1688-6">J&amp;J</text>
      </g>
    </g>
    <g
       id="g1843"
       transform="matrix(0.26458333,0,0,0.26458333,28.76507,79.088306)">
      <g
         transform="translate(0,170)"
         fill="none"
         font-size="10"
         font-family="sans-serif"
         text-anchor="middle"
         style="color:#adadad;font-size:16px"
         id="g1789">
        <path
           class="domain"
           stroke="currentColor"
           d="M 10,6 V 0 h 180 v 6"
           id="path1769" />
        <g
           class="tick"
           opacity="1"
           transform="translate(22.543126)"
           id="g1775">
          <line
             stroke="currentColor"
             y2="6"
             id="line1771"
             x1="0"
             y1="0"
             x2="0" />
          <text
             fill="currentColor"
             y="9"
             dy="0.70999998em"
             id="text1773">Jan'21</text>
        </g>
        <g
           class="tick"
           opacity="1"
           transform="translate(88.917165)"
           id="g1781">
          <line
             stroke="currentColor"
             y2="6"
             id="line1777"
             x1="0"
             y1="0"
             x2="0" />
          <text
             fill="currentColor"
             y="9"
             dy="0.70999998em"
             id="text1779">Apr</text>
        </g>
        <g
           class="tick"
           opacity="1"
           transform="translate(156.05978)"
           id="g1787">
          <line
             stroke="currentColor"
             y2="6"
             id="line1783"
             x1="0"
             y1="0"
             x2="0" />
          <text
             fill="currentColor"
             y="9"
             dy="0.70999998em"
             id="text1785">Jul</text>
        </g>
      </g>
      <g
         id="g1803">
        <line
           x1="10"
           x2="190"
           y1="125"
           y2="125"
           stroke="#d3d3d3"
           stroke-width="0.5px"
           id="line1791" />
        <text
           fill="#adadad"
           x="10"
           y="120"
           style="font-size:13.3333px"
           id="text1793">100k</text>
        <line
           x1="10"
           x2="190"
           y1="80"
           y2="80"
           stroke="#d3d3d3"
           stroke-width="0.5px"
           id="line1795" />
        <text
           fill="#adadad"
           x="10"
           y="75"
           style="font-size:13.3333px"
           id="text1797">200k</text>
        <line
           x1="10"
           x2="190"
           y1="35"
           y2="35"
           stroke="#d3d3d3"
           stroke-width="0.5px"
           id="line1799" />
        <text
           fill="#adadad"
           x="10"
           y="30"
           style="font-size:13.3333px"
           id="text1801">300k administered doses</text>
      </g>
      <g
         id="g1809">
        <path
           d="m 10,169.9991 0.737831,-9e-4 0.737831,-0.0734 0.737831,-0.17775 0.737831,-0.1476 0.737831,-0.1053 0.73783,-0.29745 0.737831,-0.11475 0.737831,-0.094 0.737831,-0.018 h 0.737831 l 0.737831,-0.032 0.737831,-4.5e-4 0.737831,-0.10305 0.737831,-0.1638 0.737831,-0.18045 0.737831,-0.0513 0.737831,-0.0536 0.73783,-0.10575 0.737831,-0.007 0.737831,-0.10935 0.737831,-0.1728 0.737831,-0.1251 0.737831,-0.32355 0.737831,-0.3834 0.737831,-0.1341 0.737831,-0.0225 0.737831,-0.3087 0.737831,-0.2916 0.73783,-0.12465 0.737831,-0.0644 0.737831,-0.19395 0.737831,-0.0927 0.737831,-0.0108 0.737831,-0.19035 0.737831,-0.25605 0.737831,-0.30015 0.737831,-0.87075 0.737831,-0.81 0.737831,-0.49995 0.737831,-0.34245 0.73783,-0.2232 0.737831,-0.22995 0.737831,-0.18 0.737831,-0.13545 0.737831,-0.2376 0.737831,-0.63495 0.737831,-0.5454 0.737831,-0.2358 0.737831,-0.30825 0.737831,-0.49185 0.737831,-0.8514 0.737831,-0.93735 0.73783,-0.1503 0.737831,-0.1206 0.737831,-0.1377 0.737831,-0.14445 0.737831,-0.6813 0.737831,-1.27935 0.737831,-0.4248 0.737831,-0.15525 0.737831,-0.0193 0.737831,-0.15795 0.737831,-0.2106 0.73783,-0.15165 0.737831,-1.2051 0.737831,-1.19745 0.737831,-0.6921 0.737831,-0.054 0.737831,-0.12105 0.737831,-0.504 0.737831,-0.5238 0.737831,-0.9126 0.737831,-1.03905 0.737831,-0.26595 0.737831,-0.1053 0.73783,-0.24075 0.737831,-0.20475 0.737831,-0.9882 0.737831,-1.0773 0.737831,-1.02015 0.737831,-0.3411 0.737831,-0.0576 0.737831,-0.1737 0.737831,-0.16155 0.737831,-0.252 0.737831,-1.36395 0.73783,-0.9621 0.737831,-0.891 0.737831,-0.1899 0.707088,-0.3159 0.737831,-0.53415 0.737831,-0.4455 0.737831,-1.2636 0.737831,-1.2537 0.737831,-0.3807 0.737831,-0.1746 0.737831,-0.8694 0.737831,-1.02915 0.737831,-1.4238 0.73783,-1.48095 0.737831,-1.4616 0.737831,-0.55845 0.737831,-0.75195 0.737831,-0.94185 0.737831,-1.5903 0.737831,-2.4921 0.737831,-2.3562 0.737831,-2.05785 0.737831,-0.9549 0.737831,-0.20115 0.73783,-1.0404 0.737831,-1.28475 0.737831,-1.48545 0.737831,-2.27745 0.737831,-2.196 0.737831,-2.09925 0.737831,-0.8865 0.737831,-1.2771 0.737831,-1.88505 0.737831,-1.99305 0.737831,-1.8513 0.737831,-1.701 0.737831,-1.7451 0.73783,-0.68895 0.73783,-1.0197 0.73783,-1.7955 0.73783,-1.6758 0.73783,-1.17945 0.73783,-1.78875 0.73784,-1.3275 0.73783,-0.54315 0.73783,-0.90585 0.73783,-1.00845 0.73783,-1.2969 0.73783,-1.7523 0.73783,-1.70235 0.73783,-1.85715 0.73783,-0.30285 0.73783,-0.6696 0.73783,-0.77085 0.73784,-1.67445 0.73783,-1.78965 0.73783,-1.66365 0.73783,-1.46205 0.73783,-0.04995 0.73783,-0.30285 0.73783,-0.3834 0.73783,-0.3366 0.73783,-1.27035 0.73783,-1.13895 0.73784,-1.16955 0.73783,-0.23805 0.73783,-0.4212 0.73783,-0.53055 0.73783,-0.43965 0.73783,-0.432 0.73783,-1.0575 0.73783,-0.77805 0.73783,-0.15705 0.73783,-0.2709 0.73783,-0.25965 0.73784,-0.7722 0.73783,-0.54495 0.73783,-0.31635 0.73783,-0.14625 0.73783,-0.0819 0.73783,-0.02025 0.73783,-0.2664 0.73783,-0.2628 0.73783,-0.6966 0.73783,-0.3015 0.73783,-0.99675 0.73784,-0.21915 0.73783,-0.3735 0.73783,-0.3213 0.73783,-0.3159 0.73783,-0.93285 0.73783,-0.2745 0.73783,-0.27 0.73783,-0.1377 0.73783,-0.38655 0.73783,-0.3429 0.73783,-0.29295 0.73784,-0.6957 0.73783,-0.32445 0.73783,-0.1638 0.73783,-0.0954 0.73783,-0.11925 0.73783,-0.22455 0.73783,-0.2556 0.73783,-0.5175 0.73783,-0.2817 0.73783,-0.1602 0.73783,-0.11835 0.73784,-0.1368 0.73783,-0.17235 0.73783,-0.20835 0.73783,-0.35685 0.73783,-0.23445 0.73783,-0.09945 0.73783,-0.0068 0.73783,-0.1449 0.73783,-0.18 0.73783,-0.1881 0.73783,-0.3825 0.73784,-0.2277 0.73783,-0.14085 0.73783,-0.07965 0.73783,-0.14085 0.73783,-0.1323 0.73783,-0.1602 0.73783,-0.34335 0.73783,-0.2457 0.73783,-0.1332 0.73783,-0.12645 0.73783,-0.1548 0.73784,-0.19665 0.73783,-0.25065 0.73783,-0.3429 0.73783,-0.25965 0.73783,-0.16695 0.73783,-0.08955 0.73783,-0.1989 0.73783,-0.1998 0.73783,-0.2754 0.73783,-0.3654 0.73783,-0.2583 0.73784,-0.14805 0.73783,-0.17145 0.73783,-0.2151 0.73783,-0.20205 0.73783,-0.25695 0.73783,-0.26325 0.73783,-0.35145 0.73783,-0.1926 0.73783,-0.19035 0.73783,-0.24075 0.73783,-0.2493 0.73784,-0.31905 0.73783,-0.2808 0.73783,-0.37035 0.73783,-0.24075 0.73783,-0.13815 L 190,37.35575"
           stroke="#4e79a7"
           stroke-width="3"
           fill="none"
           stroke-opacity="1"
           id="path1805" />
        <path
           d="m 10,169.9991 0.737831,-9e-4 0.737831,-0.0734 0.737831,-0.17775 0.737831,-0.1476 0.737831,-0.1053 0.73783,-0.29745 0.737831,-0.11475 0.737831,-0.094 0.737831,-0.018 h 0.737831 l 0.737831,-0.032 0.737831,-4.5e-4 0.737831,-0.10305 0.737831,-0.1638 0.737831,-0.18045 0.737831,-0.0513 0.737831,-0.0536 0.73783,-0.10575 0.737831,-0.007 0.737831,-0.10935 0.737831,-0.1728 0.737831,-0.1251 0.737831,-0.32355 0.737831,-0.3834 0.737831,-0.1341 0.737831,-0.0225 0.737831,-0.3087 0.737831,-0.2916 0.73783,-0.12465 0.737831,-0.0644 0.737831,-0.19395 0.737831,-0.0927 0.737831,-0.0108 0.737831,-0.19035 0.737831,-0.25605 0.737831,-0.30015 0.737831,-0.87075 0.737831,-0.81 0.737831,-0.49995 0.737831,-0.34245 0.73783,-0.2232 0.737831,-0.22995 0.737831,-0.18 0.737831,-0.13545 0.737831,-0.2376 0.737831,-0.63495 0.737831,-0.5454 0.737831,-0.2358 0.737831,-0.30825 0.737831,-0.49185 0.737831,-0.8514 0.737831,-0.93735 0.73783,-0.1503 0.737831,-0.1206 0.737831,-0.1377 0.737831,-0.14445 0.737831,-0.6813 0.737831,-1.27935 0.737831,-0.4248 0.737831,-0.15525 0.737831,-0.0193 0.737831,-0.15795 0.737831,-0.2106 0.73783,-0.15165 0.737831,-1.2051 0.737831,-1.19745 0.737831,-0.6921 0.737831,-0.054 0.737831,-0.12105 0.737831,-0.504 0.737831,-0.5238 0.737831,-0.9126 0.737831,-1.03905 0.737831,-0.26595 0.737831,-0.1053 0.73783,-0.24075 0.737831,-0.20475 0.737831,-0.9882 0.737831,-1.0773 0.737831,-1.02015 0.737831,-0.3411 0.737831,-0.0576 0.737831,-0.1737 0.737831,-0.16155 0.737831,-0.252 0.737831,-1.36395 0.73783,-0.9621 0.737831,-0.891 0.737831,-0.1899 0.707088,-0.3159 0.737831,-0.53415 0.737831,-0.4455 0.737831,-1.2636 0.737831,-1.2537 0.737831,-0.3807 0.737831,-0.1746 0.737831,-0.8694 0.737831,-1.02915 0.737831,-1.4238 0.73783,-1.48095 0.737831,-1.4616 0.737831,-0.55845 0.737831,-0.75195 0.737831,-0.94185 0.737831,-1.5903 0.737831,-2.4921 0.737831,-2.3562 0.737831,-2.05785 0.737831,-0.9549 0.737831,-0.20115 0.73783,-1.0404 0.737831,-1.28475 0.737831,-1.48545 0.737831,-2.27745 0.737831,-2.196 0.737831,-2.09925 0.737831,-0.8865 0.737831,-1.2771 0.737831,-1.88505 0.737831,-1.99305 0.737831,-1.8513 0.737831,-1.701 0.737831,-1.7451 0.73783,-0.68895 0.73783,-1.0197 0.73783,-1.7955 0.73783,-1.6758 0.73783,-1.17945 0.73783,-1.78875 0.73784,-1.3275 0.73783,-0.54315 0.73783,-0.90585 0.73783,-1.00845 0.73783,-1.2969 0.73783,-1.7523 0.73783,-1.70235 0.73783,-1.85715 0.73783,-0.30285 0.73783,-0.6696 0.73783,-0.77085 0.73784,-1.67445 0.73783,-1.78965 0.73783,-1.66365 0.73783,-1.46205 0.73783,-0.04995 0.73783,-0.30285 0.73783,-0.3834 0.73783,-0.3366 0.73783,-1.27035 0.73783,-1.13895 0.73784,-1.16955 0.73783,-0.23805 0.73783,-0.4212 0.73783,-0.53055 0.73783,-0.43965 0.73783,-0.432 0.73783,-1.0575 0.73783,-0.77805 0.73783,-0.15705 0.73783,-0.2709 0.73783,-0.25965 0.73784,-0.7722 0.73783,-0.54495 0.73783,-0.31635 0.73783,-0.14625 0.73783,-0.0819 0.73783,-0.02025 0.73783,-0.2664 0.73783,-0.2628 0.73783,-0.6966 0.73783,-0.3015 0.73783,-0.99675 0.73784,-0.21915 0.73783,-0.3735 0.73783,-0.3213 0.73783,-0.3159 0.73783,-0.93285 0.73783,-0.2745 0.73783,-0.27 0.73783,-0.1377 0.73783,-0.38655 0.73783,-0.3429 0.73783,-0.29295 0.73784,-0.6957 0.73783,-0.32445 0.73783,-0.1638 0.73783,-0.0954 0.73783,-0.11925 0.73783,-0.22455 0.73783,-0.2556 0.73783,-0.5175 0.73783,-0.2817 0.73783,-0.1602 0.73783,-0.11835 0.73784,-0.1368 0.73783,-0.17235 0.73783,-0.20835 0.73783,-0.35685 0.73783,-0.23445 0.73783,-0.09945 0.73783,-0.0068 0.73783,-0.1449 0.73783,-0.18 0.73783,-0.1881 0.73783,-0.3825 0.73784,-0.2277 0.73783,-0.14085 0.73783,-0.07965 0.73783,-0.14085 0.73783,-0.1323 0.73783,-0.1602 0.73783,-0.34335 0.73783,-0.2457 0.73783,-0.1332 0.73783,-0.12645 0.73783,-0.1548 0.73784,-0.19665 0.73783,-0.25065 0.73783,-0.3429 0.73783,-0.25965 0.73783,-0.16695 0.73783,-0.08955 0.73783,-0.1989 0.73783,-0.1998 0.73783,-0.2754 0.73783,-0.3654 0.73783,-0.2583 0.73784,-0.14805 0.73783,-0.17145 0.73783,-0.2151 0.73783,-0.20205 0.73783,-0.25695 0.73783,-0.26325 0.73783,-0.35145 0.73783,-0.1926 0.73783,-0.19035 0.73783,-0.24075 0.73783,-0.2493 0.73784,-0.31905 0.73783,-0.2808 0.73783,-0.37035 0.73783,-0.24075 0.73783,-0.13815 L 190,37.35575 V 170 h -0.73783 -0.73783 -0.73783 -0.73783 -0.73783 -0.73784 -0.73783 -0.73783 -0.73783 -0.73783 -0.73783 -0.73783 -0.73783 -0.73783 -0.73783 -0.73783 -0.73784 -0.73783 -0.73783 -0.73783 -0.73783 -0.73783 -0.73783 -0.73783 -0.73783 -0.73783 -0.73783 -0.73784 -0.73783 -0.73783 -0.73783 -0.73783 -0.73783 -0.73783 -0.73783 -0.73783 -0.73783 -0.73783 -0.73784 -0.73783 -0.73783 -0.73783 -0.73783 -0.73783 -0.73783 -0.73783 -0.73783 -0.73783 -0.73783 -0.73784 -0.73783 -0.73783 -0.73783 -0.73783 -0.73783 -0.73783 -0.73783 -0.73783 -0.73783 -0.73783 -0.73784 -0.73783 -0.73783 -0.73783 -0.73783 -0.73783 -0.73783 -0.73783 -0.73783 -0.73783 -0.73783 -0.73784 -0.73783 -0.73783 -0.73783 -0.73783 -0.73783 -0.73783 -0.73783 -0.73783 -0.73783 -0.73783 -0.73784 -0.73783 -0.73783 -0.73783 -0.73783 -0.73783 -0.73783 -0.73783 -0.73783 -0.73783 -0.73783 -0.73784 -0.73783 -0.73783 -0.73783 -0.73783 -0.73783 -0.73783 -0.73783 -0.73783 -0.73783 -0.73784 -0.73783 -0.73783 -0.73783 -0.73783 -0.73783 -0.73783 -0.73783 -0.73783 -0.73783 -0.73783 -0.73784 -0.73783 -0.73783 -0.73783 -0.73783 -0.73783 -0.73783 H 99.984629 99.246798 98.508967 97.771136 97.033305 96.295474 95.557643 94.819812 94.081981 93.34415 92.606319 91.868488 91.130658 90.392827 89.654996 88.917165 88.179334 87.441503 86.703672 85.965841 85.22801 84.490179 83.752348 83.014518 82.276687 81.538856 80.801025 80.063194 79.325363 78.587532 77.849701 77.11187 76.374039 75.666951 74.92912 74.191289 73.453459 72.715628 71.977797 71.239966 70.502135 69.764304 69.026473 68.288642 67.550811 66.81298 66.075149 65.337319 64.599488 63.861657 63.123826 62.385995 61.648164 60.910333 60.172502 59.434671 58.69684 57.959009 57.221178 56.483348 55.745517 55.007686 54.269855 53.532024 52.794193 52.056362 51.318531 50.5807 49.842869 49.105038 48.367208 47.629377 46.891546 46.153715 45.415884 44.678053 43.940222 43.202391 42.46456 41.726729 40.988898 40.251067 39.513237 38.775406 38.037575 37.299744 36.561913 35.824082 35.086251 34.34842 33.610589 32.872758 32.134927 31.397096 30.659266 29.921435 29.183604 28.445773 27.707942 26.970111 26.23228 25.494449 24.756618 24.018787 23.280956 22.543126 21.805295 21.067464 20.329633 19.591802 18.853971 18.11614 17.378309 16.640478 15.902647 15.164816 14.426985 13.689155 12.951324 12.213493 11.475662 10.737831 10 Z"
           fill-opacity="0.4"
           fill="#4e79a7"
           id="path1807" />
      </g>
      <g
         id="g1811" />
    </g>
    <g
       id="g1971"
       transform="matrix(0.26458333,0,0,0.26458333,80.6234,79.088306)">
      <g
         transform="translate(0,170)"
         fill="none"
         font-size="10"
         font-family="sans-serif"
         text-anchor="middle"
         style="color:#adadad;font-size:16px"
         id="g1917">
        <path
           class="domain"
           stroke="currentColor"
           d="M 10,6 V 0 h 180 v 6"
           id="path1897" />
        <g
           class="tick"
           opacity="1"
           transform="translate(22.543126)"
           id="g1903">
          <line
             stroke="currentColor"
             y2="6"
             id="line1899"
             x1="0"
             y1="0"
             x2="0" />
          <text
             fill="currentColor"
             y="9"
             dy="0.70999998em"
             id="text1901">Jan'21</text>
        </g>
        <g
           class="tick"
           opacity="1"
           transform="translate(88.917165)"
           id="g1909">
          <line
             stroke="currentColor"
             y2="6"
             id="line1905"
             x1="0"
             y1="0"
             x2="0" />
          <text
             fill="currentColor"
             y="9"
             dy="0.70999998em"
             id="text1907">Apr</text>
        </g>
        <g
           class="tick"
           opacity="1"
           transform="translate(156.05978)"
           id="g1915">
          <line
             stroke="currentColor"
             y2="6"
             id="line1911"
             x1="0"
             y1="0"
             x2="0" />
          <text
             fill="currentColor"
             y="9"
             dy="0.70999998em"
             id="text1913">Jul</text>
        </g>
      </g>
      <g
         id="g1931">
        <line
           x1="10"
           x2="190"
           y1="125"
           y2="125"
           stroke="#d3d3d3"
           stroke-width="0.5px"
           id="line1919" />
        <text
           fill="#adadad"
           x="10"
           y="120"
           style="font-size:13.3333px"
           id="text1921">100k</text>
        <line
           x1="10"
           x2="190"
           y1="80"
           y2="80"
           stroke="#d3d3d3"
           stroke-width="0.5px"
           id="line1923" />
        <text
           fill="#adadad"
           x="10"
           y="75"
           style="font-size:13.3333px"
           id="text1925">200k</text>
        <line
           x1="10"
           x2="190"
           y1="35"
           y2="35"
           stroke="#d3d3d3"
           stroke-width="0.5px"
           id="line1927" />
        <text
           fill="#adadad"
           x="10"
           y="30"
           style="font-size:13.3333px"
           id="text1929">300k</text>
      </g>
      <g
         id="g1937">
        <path
           d="m 10,170 h 0.737831 0.737831 l 0.737831,-4.5e-4 h 0.737831 0.737831 l 0.73783,-9e-4 0.737831,-9e-4 0.737831,-0.0536 0.737831,-0.0221 h 0.737831 l 0.737831,-0.117 0.737831,-0.0279 0.737831,-0.0599 0.737831,-0.0914 0.737831,-0.0837 0.737831,-0.0576 0.737831,-0.003 0.73783,-0.16515 0.737831,-0.004 0.737831,-0.0279 0.737831,-0.16965 0.737831,-0.17325 0.737831,-0.1449 0.737831,-0.1611 0.737831,-0.12375 0.737831,-0.006 0.737831,-0.0761 0.737831,-0.3582 0.73783,-0.42795 0.737831,-0.50535 0.737831,-0.6237 0.737831,-0.4833 0.737831,-0.0464 0.737831,-0.32805 0.737831,-0.49185 0.737831,-0.71055 0.737831,-0.57915 0.737831,-0.52155 0.737831,-0.28575 0.737831,-0.0445 0.73783,-0.3366 0.737831,-0.7137 0.737831,-0.3474 0.737831,-0.27315 0.737831,-0.3717 0.737831,-0.2223 0.737831,-0.1134 0.737831,-0.19485 0.737831,-0.5094 0.737831,-0.3996 0.737831,-0.42075 0.737831,-0.38385 0.73783,-0.3942 0.737831,-0.0198 0.737831,-0.29205 0.737831,-0.9657 0.737831,-0.57555 0.737831,-0.6381 0.737831,-1.0683 0.737831,-0.40815 0.737831,-0.13455 0.737831,-0.2862 0.737831,-0.7758 0.73783,-0.5076 0.737831,-0.2763 0.737831,-0.43155 0.737831,-0.36135 0.737831,-0.0135 0.737831,-0.324 0.737831,-1.01835 0.737831,-1.0017 0.737831,-0.7281 0.737831,-0.69525 0.737831,-0.52965 0.737831,-0.4212 0.73783,-0.5508 0.737831,-1.0431 0.737831,-1.16955 0.737831,-0.53145 0.737831,-0.7767 0.737831,-0.6912 0.737831,-0.15795 0.737831,-0.39285 0.737831,-0.76005 0.737831,-0.52965 0.737831,-0.65295 0.73783,-0.5301 0.737831,-0.6183 0.737831,-0.1656 0.707088,-0.5085 0.737831,-0.9963 0.737831,-0.87885 0.737831,-1.0278 0.737831,-0.62145 0.737831,-0.61965 0.737831,-0.34605 0.737831,-0.36765 0.737831,-0.95175 0.737831,-0.68895 0.73783,-0.954 0.737831,-0.71145 0.737831,-0.77355 0.737831,-0.5004 0.737831,-0.855 0.737831,-1.4202 0.737831,-1.3977 0.737831,-0.7155 0.737831,-0.675 0.737831,-0.73845 0.737831,-0.1926 0.73783,-0.4203 0.737831,-0.9513 0.737831,-0.99495 0.737831,-0.29475 0.737831,-0.4968 0.737831,-0.65025 0.737831,-0.1881 0.737831,-0.46215 0.737831,-0.9891 0.737831,-1.0782 0.737831,-1.30455 0.737831,-1.19385 0.737831,-0.666 0.73783,-0.30015 0.73783,-0.4572 0.73783,-0.8883 0.73783,-0.8532 0.73783,-1.17315 0.73783,-0.79335 0.73784,-0.7074 0.73783,-0.29925 0.73783,-0.5724 0.73783,-0.77535 0.73783,-0.882 0.73783,-0.5616 0.73783,-0.49725 0.73783,-0.531 0.73783,-0.15435 0.73783,-0.26955 0.73783,-0.7101 0.73784,-0.7497 0.73783,-0.47655 0.73783,-0.37935 0.73783,-0.46395 0.73783,-0.24885 0.73783,-0.28125 0.73783,-0.36225 0.73783,-0.5058 0.73783,-0.4131 0.73783,-0.6993 0.73784,-0.42705 0.73783,-0.22815 0.73783,-0.2925 0.73783,-0.2709 0.73783,-0.34425 0.73783,-0.3078 0.73783,-0.4833 0.73783,-0.32625 0.73783,-0.18135 0.73783,-0.16425 0.73783,-0.3492 0.73784,-0.53415 0.73783,-0.27675 0.73783,-0.2943 0.73783,-0.2475 0.73783,-0.1062 0.73783,-0.0198 0.73783,-0.22005 0.73783,-0.1422 0.73783,-0.20565 0.73783,-0.29295 0.73783,-0.2943 0.73784,-0.189 0.73783,-0.12915 0.73783,-0.16695 0.73783,-0.11025 0.73783,-0.1107 0.73783,-0.26955 0.73783,-0.12105 0.73783,-0.04095 0.73783,-0.1467 0.73783,-0.1602 0.73783,-0.1062 0.73784,-0.10935 0.73783,-0.13455 0.73783,-0.0657 0.73783,-0.0666 0.73783,-0.09495 0.73783,-0.1089 0.73783,-0.08325 0.73783,-0.0693 0.73783,-0.1305 0.73783,-0.05535 0.73783,-0.0342 0.73784,-0.0576 0.73783,-0.0765 0.73783,-0.0675 0.73783,-0.054 0.73783,-0.0918 0.73783,-0.05355 0.73783,-0.0045 0.73783,-0.0693 0.73783,-0.0576 0.73783,-0.05715 0.73783,-0.0495 0.73784,-0.0738 0.73783,-0.03915 0.73783,-0.0207 0.73783,-0.0783 0.73783,-0.0567 0.73783,-0.0729 0.73783,-0.05985 0.73783,-0.08685 0.73783,-0.0531 0.73783,-0.027 0.73783,-0.09405 0.73784,-0.0819 0.73783,-0.06525 0.73783,-0.072 0.73783,-0.1125 0.73783,-0.04995 0.73783,-0.0351 0.73783,-0.09765 0.73783,-0.0972 0.73783,-0.07785 0.73783,-0.0675 0.73783,-0.1215 0.73784,-0.05175 0.73783,-0.04275 0.73783,-0.10845 0.73783,-0.08775 0.73783,-0.0918 0.73783,-0.0702 0.73783,-0.09855 0.73783,-0.0621 0.73783,-0.0396 0.73783,-0.09585 0.73783,-0.0837 0.73784,-0.07155 0.73783,-0.07965 0.73783,-0.1431 0.73783,-0.08685 0.73783,-0.0468 L 190,85.67945"
           stroke="#f28e2c"
           stroke-width="3"
           fill="none"
           stroke-opacity="1"
           id="path1933" />
        <path
           d="m 10,170 h 0.737831 0.737831 l 0.737831,-4.5e-4 h 0.737831 0.737831 l 0.73783,-9e-4 0.737831,-9e-4 0.737831,-0.0536 0.737831,-0.0221 h 0.737831 l 0.737831,-0.117 0.737831,-0.0279 0.737831,-0.0599 0.737831,-0.0914 0.737831,-0.0837 0.737831,-0.0576 0.737831,-0.003 0.73783,-0.16515 0.737831,-0.004 0.737831,-0.0279 0.737831,-0.16965 0.737831,-0.17325 0.737831,-0.1449 0.737831,-0.1611 0.737831,-0.12375 0.737831,-0.006 0.737831,-0.0761 0.737831,-0.3582 0.73783,-0.42795 0.737831,-0.50535 0.737831,-0.6237 0.737831,-0.4833 0.737831,-0.0464 0.737831,-0.32805 0.737831,-0.49185 0.737831,-0.71055 0.737831,-0.57915 0.737831,-0.52155 0.737831,-0.28575 0.737831,-0.0445 0.73783,-0.3366 0.737831,-0.7137 0.737831,-0.3474 0.737831,-0.27315 0.737831,-0.3717 0.737831,-0.2223 0.737831,-0.1134 0.737831,-0.19485 0.737831,-0.5094 0.737831,-0.3996 0.737831,-0.42075 0.737831,-0.38385 0.73783,-0.3942 0.737831,-0.0198 0.737831,-0.29205 0.737831,-0.9657 0.737831,-0.57555 0.737831,-0.6381 0.737831,-1.0683 0.737831,-0.40815 0.737831,-0.13455 0.737831,-0.2862 0.737831,-0.7758 0.73783,-0.5076 0.737831,-0.2763 0.737831,-0.43155 0.737831,-0.36135 0.737831,-0.0135 0.737831,-0.324 0.737831,-1.01835 0.737831,-1.0017 0.737831,-0.7281 0.737831,-0.69525 0.737831,-0.52965 0.737831,-0.4212 0.73783,-0.5508 0.737831,-1.0431 0.737831,-1.16955 0.737831,-0.53145 0.737831,-0.7767 0.737831,-0.6912 0.737831,-0.15795 0.737831,-0.39285 0.737831,-0.76005 0.737831,-0.52965 0.737831,-0.65295 0.73783,-0.5301 0.737831,-0.6183 0.737831,-0.1656 0.707088,-0.5085 0.737831,-0.9963 0.737831,-0.87885 0.737831,-1.0278 0.737831,-0.62145 0.737831,-0.61965 0.737831,-0.34605 0.737831,-0.36765 0.737831,-0.95175 0.737831,-0.68895 0.73783,-0.954 0.737831,-0.71145 0.737831,-0.77355 0.737831,-0.5004 0.737831,-0.855 0.737831,-1.4202 0.737831,-1.3977 0.737831,-0.7155 0.737831,-0.675 0.737831,-0.73845 0.737831,-0.1926 0.73783,-0.4203 0.737831,-0.9513 0.737831,-0.99495 0.737831,-0.29475 0.737831,-0.4968 0.737831,-0.65025 0.737831,-0.1881 0.737831,-0.46215 0.737831,-0.9891 0.737831,-1.0782 0.737831,-1.30455 0.737831,-1.19385 0.737831,-0.666 0.73783,-0.30015 0.73783,-0.4572 0.73783,-0.8883 0.73783,-0.8532 0.73783,-1.17315 0.73783,-0.79335 0.73784,-0.7074 0.73783,-0.29925 0.73783,-0.5724 0.73783,-0.77535 0.73783,-0.882 0.73783,-0.5616 0.73783,-0.49725 0.73783,-0.531 0.73783,-0.15435 0.73783,-0.26955 0.73783,-0.7101 0.73784,-0.7497 0.73783,-0.47655 0.73783,-0.37935 0.73783,-0.46395 0.73783,-0.24885 0.73783,-0.28125 0.73783,-0.36225 0.73783,-0.5058 0.73783,-0.4131 0.73783,-0.6993 0.73784,-0.42705 0.73783,-0.22815 0.73783,-0.2925 0.73783,-0.2709 0.73783,-0.34425 0.73783,-0.3078 0.73783,-0.4833 0.73783,-0.32625 0.73783,-0.18135 0.73783,-0.16425 0.73783,-0.3492 0.73784,-0.53415 0.73783,-0.27675 0.73783,-0.2943 0.73783,-0.2475 0.73783,-0.1062 0.73783,-0.0198 0.73783,-0.22005 0.73783,-0.1422 0.73783,-0.20565 0.73783,-0.29295 0.73783,-0.2943 0.73784,-0.189 0.73783,-0.12915 0.73783,-0.16695 0.73783,-0.11025 0.73783,-0.1107 0.73783,-0.26955 0.73783,-0.12105 0.73783,-0.04095 0.73783,-0.1467 0.73783,-0.1602 0.73783,-0.1062 0.73784,-0.10935 0.73783,-0.13455 0.73783,-0.0657 0.73783,-0.0666 0.73783,-0.09495 0.73783,-0.1089 0.73783,-0.08325 0.73783,-0.0693 0.73783,-0.1305 0.73783,-0.05535 0.73783,-0.0342 0.73784,-0.0576 0.73783,-0.0765 0.73783,-0.0675 0.73783,-0.054 0.73783,-0.0918 0.73783,-0.05355 0.73783,-0.0045 0.73783,-0.0693 0.73783,-0.0576 0.73783,-0.05715 0.73783,-0.0495 0.73784,-0.0738 0.73783,-0.03915 0.73783,-0.0207 0.73783,-0.0783 0.73783,-0.0567 0.73783,-0.0729 0.73783,-0.05985 0.73783,-0.08685 0.73783,-0.0531 0.73783,-0.027 0.73783,-0.09405 0.73784,-0.0819 0.73783,-0.06525 0.73783,-0.072 0.73783,-0.1125 0.73783,-0.04995 0.73783,-0.0351 0.73783,-0.09765 0.73783,-0.0972 0.73783,-0.07785 0.73783,-0.0675 0.73783,-0.1215 0.73784,-0.05175 0.73783,-0.04275 0.73783,-0.10845 0.73783,-0.08775 0.73783,-0.0918 0.73783,-0.0702 0.73783,-0.09855 0.73783,-0.0621 0.73783,-0.0396 0.73783,-0.09585 0.73783,-0.0837 0.73784,-0.07155 0.73783,-0.07965 0.73783,-0.1431 0.73783,-0.08685 0.73783,-0.0468 L 190,85.67945 V 170 h -0.73783 -0.73783 -0.73783 -0.73783 -0.73783 -0.73784 -0.73783 -0.73783 -0.73783 -0.73783 -0.73783 -0.73783 -0.73783 -0.73783 -0.73783 -0.73783 -0.73784 -0.73783 -0.73783 -0.73783 -0.73783 -0.73783 -0.73783 -0.73783 -0.73783 -0.73783 -0.73783 -0.73784 -0.73783 -0.73783 -0.73783 -0.73783 -0.73783 -0.73783 -0.73783 -0.73783 -0.73783 -0.73783 -0.73784 -0.73783 -0.73783 -0.73783 -0.73783 -0.73783 -0.73783 -0.73783 -0.73783 -0.73783 -0.73783 -0.73784 -0.73783 -0.73783 -0.73783 -0.73783 -0.73783 -0.73783 -0.73783 -0.73783 -0.73783 -0.73783 -0.73784 -0.73783 -0.73783 -0.73783 -0.73783 -0.73783 -0.73783 -0.73783 -0.73783 -0.73783 -0.73783 -0.73784 -0.73783 -0.73783 -0.73783 -0.73783 -0.73783 -0.73783 -0.73783 -0.73783 -0.73783 -0.73783 -0.73784 -0.73783 -0.73783 -0.73783 -0.73783 -0.73783 -0.73783 -0.73783 -0.73783 -0.73783 -0.73783 -0.73784 -0.73783 -0.73783 -0.73783 -0.73783 -0.73783 -0.73783 -0.73783 -0.73783 -0.73783 -0.73784 -0.73783 -0.73783 -0.73783 -0.73783 -0.73783 -0.73783 -0.73783 -0.73783 -0.73783 -0.73783 -0.73784 -0.73783 -0.73783 -0.73783 -0.73783 -0.73783 -0.73783 -0.737831 -0.737831 -0.737831 -0.737831 -0.737831 -0.737831 -0.737831 -0.737831 -0.737831 -0.737831 -0.737831 -0.737831 -0.73783 -0.737831 -0.737831 -0.737831 -0.737831 -0.737831 -0.737831 -0.737831 -0.737831 -0.737831 -0.737831 -0.73783 -0.737831 -0.737831 -0.737831 -0.737831 -0.737831 -0.737831 -0.737831 -0.737831 -0.737831 -0.707088 -0.737831 -0.737831 -0.73783 -0.737831 -0.737831 -0.737831 -0.737831 -0.737831 -0.737831 -0.737831 -0.737831 -0.737831 -0.737831 -0.73783 -0.737831 -0.737831 -0.737831 -0.737831 -0.737831 -0.737831 -0.737831 -0.737831 -0.737831 -0.737831 -0.737831 -0.73783 -0.737831 -0.737831 -0.737831 -0.737831 -0.737831 -0.737831 -0.737831 -0.737831 -0.737831 -0.737831 -0.73783 -0.737831 -0.737831 -0.737831 -0.737831 -0.737831 -0.737831 -0.737831 -0.737831 -0.737831 -0.737831 -0.737831 -0.73783 -0.737831 -0.737831 -0.737831 -0.737831 -0.737831 -0.737831 -0.737831 -0.737831 -0.737831 -0.737831 -0.737831 -0.73783 -0.737831 -0.737831 -0.737831 -0.737831 -0.737831 -0.737831 -0.737831 -0.737831 -0.737831 -0.737831 -0.73783 -0.737831 -0.737831 -0.737831 -0.737831 -0.737831 -0.737831 -0.737831 -0.737831 -0.737831 -0.737831 -0.737831 -0.73783 -0.737831 -0.737831 -0.737831 -0.737831 z"
           fill-opacity="0.4"
           fill="#f28e2c"
           id="path1935" />
      </g>
      <g
         id="g1939" />
    </g>
    <g
       id="g2099"
       transform="matrix(0.26458333,0,0,0.26458333,132.48174,79.088306)">
      <g
         transform="translate(0,170)"
         fill="none"
         font-size="10"
         font-family="sans-serif"
         text-anchor="middle"
         style="color:#adadad;font-size:16px"
         id="g2045">
        <path
           class="domain"
           stroke="currentColor"
           d="M 10,6 V 0 h 180 v 6"
           id="path2025" />
        <g
           class="tick"
           opacity="1"
           transform="translate(22.543126)"
           id="g2031">
          <line
             stroke="currentColor"
             y2="6"
             id="line2027"
             x1="0"
             y1="0"
             x2="0" />
          <text
             fill="currentColor"
             y="9"
             dy="0.70999998em"
             id="text2029">Jan'21</text>
        </g>
        <g
           class="tick"
           opacity="1"
           transform="translate(88.917165)"
           id="g2037">
          <line
             stroke="currentColor"
             y2="6"
             id="line2033"
             x1="0"
             y1="0"
             x2="0" />
          <text
             fill="currentColor"
             y="9"
             dy="0.70999998em"
             id="text2035">Apr</text>
        </g>
        <g
           class="tick"
           opacity="1"
           transform="translate(156.05978)"
           id="g2043">
          <line
             stroke="currentColor"
             y2="6"
             id="line2039"
             x1="0"
             y1="0"
             x2="0" />
          <text
             fill="currentColor"
             y="9"
             dy="0.70999998em"
             id="text2041">Jul</text>
        </g>
      </g>
      <g
         id="g2059">
        <line
           x1="10"
           x2="190"
           y1="125"
           y2="125"
           stroke="#d3d3d3"
           stroke-width="0.5px"
           id="line2047" />
        <text
           fill="#adadad"
           x="10"
           y="120"
           style="font-size:13.3333px"
           id="text2049">100k</text>
        <line
           x1="10"
           x2="190"
           y1="80"
           y2="80"
           stroke="#d3d3d3"
           stroke-width="0.5px"
           id="line2051" />
        <text
           fill="#adadad"
           x="10"
           y="75"
           style="font-size:13.3333px"
           id="text2053">200k</text>
        <line
           x1="10"
           x2="190"
           y1="35"
           y2="35"
           stroke="#d3d3d3"
           stroke-width="0.5px"
           id="line2055" />
        <text
           fill="#adadad"
           x="10"
           y="30"
           style="font-size:13.3333px"
           id="text2057">300k</text>
      </g>
      <g
         id="g2065">
        <path
           d="m 10,170 h 0.737831 0.737831 0.737831 0.737831 0.737831 0.73783 0.737831 0.737831 0.737831 0.737831 0.737831 0.737831 0.737831 0.737831 0.737831 0.737831 0.737831 0.73783 0.737831 0.737831 0.737831 0.737831 0.737831 0.737831 0.737831 0.737831 0.737831 0.737831 0.73783 0.737831 0.737831 0.737831 0.737831 0.737831 0.737831 0.737831 0.737831 0.737831 0.737831 0.737831 0.73783 0.737831 0.737831 0.737831 0.737831 0.737831 0.737831 0.737831 0.737831 0.737831 0.737831 0.737831 0.73783 0.737831 0.737831 0.737831 0.737831 0.737831 0.737831 0.737831 0.737831 0.737831 0.737831 0.73783 0.737831 0.737831 0.737831 0.737831 0.737831 0.737831 0.737831 0.737831 0.737831 0.737831 0.737831 l 0.73783,-9e-4 0.737831,-4.5e-4 0.737831,-9e-4 h 0.737831 l 0.737831,-0.027 0.737831,-0.0999 0.737831,-0.1098 0.737831,-0.16155 0.737831,-0.3501 0.737831,-0.4752 0.737831,-0.5022 0.73783,-0.19755 0.737831,-0.0936 0.737831,-0.0252 0.707088,-0.13275 0.737831,-0.15345 0.737831,-0.1809 0.737831,-0.0918 0.737831,-0.15165 0.737831,-0.0113 0.737831,-0.0144 0.737831,-0.0207 0.737831,-0.0463 0.737831,-0.34695 0.73783,-0.0909 0.737831,-0.13995 0.737831,-0.0203 0.737831,-0.0126 0.737831,-0.0328 0.737831,-0.068 0.737831,-0.0301 0.737831,-0.1179 0.737831,-0.2673 0.737831,-0.031 0.737831,-0.0175 0.73783,-0.1206 0.737831,-0.2538 0.737831,-0.2439 0.737831,-0.7794 0.737831,-0.6156 0.737831,-0.2781 0.737831,-0.13635 0.737831,-0.24975 0.737831,-0.003 0.737831,-9e-4 0.737831,-4.5e-4 0.737831,-0.004 h 0.737831 0.73783 l 0.73783,-0.003 0.73783,-9e-4 h 0.73783 l 0.73783,-4.5e-4 h 0.73783 l 0.73784,-0.002 h 0.73783 l 0.73783,-0.009 0.73783,-0.0468 0.73783,-0.0526 0.73783,-0.1044 0.73783,-0.0743 0.73783,-0.0157 0.73783,-0.058 0.73783,-0.0626 0.73783,-0.0333 0.73784,-0.067 0.73783,-0.0477 0.73783,-0.081 0.73783,-0.0454 0.73783,-0.018 0.73783,-0.0374 0.73783,-0.13365 0.73783,-0.1026 0.73783,-0.09 0.73783,-0.0423 0.73784,-0.009 0.73783,-0.0517 0.73783,-0.0283 0.73783,-0.0441 0.73783,-0.0184 0.73783,-0.0531 0.73783,-0.0248 0.73783,-0.0198 0.73783,-0.0139 0.73783,-0.0284 0.73783,-0.031 0.73784,-0.0545 0.73783,-0.0643 0.73783,-0.0688 0.73783,-0.0166 0.73783,-0.0446 0.73783,-0.004 0.73783,-0.0257 0.73783,-0.0374 0.73783,-0.0252 0.73783,-0.063 0.73783,-0.0234 0.73784,-0.009 0.73783,-0.0234 0.73783,-0.0144 0.73783,-0.0378 0.73783,-0.0333 0.73783,-0.0468 0.73783,-0.0108 0.73783,-0.0437 0.73783,-0.0346 0.73783,-0.0166 0.73783,-0.0212 0.73784,-0.0401 0.73783,-0.0445 0.73783,-0.0144 0.73783,-0.005 0.73783,-0.0239 0.73783,-0.0139 0.73783,-0.0144 0.73783,-0.0288 0.73783,-0.0279 0.73783,-0.0139 0.73783,-0.0283 0.73784,-0.0153 0.73783,-0.007 0.73783,-0.0175 0.73783,-0.067 0.73783,-0.0252 0.73783,-0.005 h 0.73783 l 0.73783,-0.009 0.73783,-0.018 0.73783,-0.0207 0.73783,-0.0153 0.73784,-0.0292 0.73783,-0.0113 0.73783,-0.005 0.73783,-0.0113 0.73783,-0.004 0.73783,-0.005 0.73783,-0.006 0.73783,-0.0148 0.73783,-0.001 0.73783,-0.013 0.73783,-0.0617 0.73784,-0.0203 0.73783,-0.007 0.73783,-0.0189 0.73783,-0.0545 0.73783,-0.009 0.73783,-0.003 0.73783,-0.01 0.73783,-0.0315 0.73783,-0.013 0.73783,-0.0144 0.73783,-0.0216 0.73784,-0.004 0.73783,-9e-4 0.73783,-0.008 0.73783,-0.009 0.73783,-0.0103 0.73783,-0.0234 0.73783,-0.0257 0.73783,-0.004 0.73783,-0.005 0.73783,-0.0157 0.73783,-0.009 0.73784,-0.008 0.73783,-0.009 0.73783,-0.027 0.73783,-0.004 0.73783,-0.003 0.73783,-0.009"
           stroke="#76b7b2"
           stroke-width="3"
           fill="none"
           stroke-opacity="1"
           id="path2061" />
        <path
           d="m 10,170 h 0.737831 0.737831 0.737831 0.737831 0.737831 0.73783 0.737831 0.737831 0.737831 0.737831 0.737831 0.737831 0.737831 0.737831 0.737831 0.737831 0.737831 0.73783 0.737831 0.737831 0.737831 0.737831 0.737831 0.737831 0.737831 0.737831 0.737831 0.737831 0.73783 0.737831 0.737831 0.737831 0.737831 0.737831 0.737831 0.737831 0.737831 0.737831 0.737831 0.737831 0.73783 0.737831 0.737831 0.737831 0.737831 0.737831 0.737831 0.737831 0.737831 0.737831 0.737831 0.737831 0.73783 0.737831 0.737831 0.737831 0.737831 0.737831 0.737831 0.737831 0.737831 0.737831 0.737831 0.73783 0.737831 0.737831 0.737831 0.737831 0.737831 0.737831 0.737831 0.737831 0.737831 0.737831 0.737831 l 0.73783,-9e-4 0.737831,-4.5e-4 0.737831,-9e-4 h 0.737831 l 0.737831,-0.027 0.737831,-0.0999 0.737831,-0.1098 0.737831,-0.16155 0.737831,-0.3501 0.737831,-0.4752 0.737831,-0.5022 0.73783,-0.19755 0.737831,-0.0936 0.737831,-0.0252 0.707088,-0.13275 0.737831,-0.15345 0.737831,-0.1809 0.737831,-0.0918 0.737831,-0.15165 0.737831,-0.0113 0.737831,-0.0144 0.737831,-0.0207 0.737831,-0.0463 0.737831,-0.34695 0.73783,-0.0909 0.737831,-0.13995 0.737831,-0.0203 0.737831,-0.0126 0.737831,-0.0328 0.737831,-0.068 0.737831,-0.0301 0.737831,-0.1179 0.737831,-0.2673 0.737831,-0.031 0.737831,-0.0175 0.73783,-0.1206 0.737831,-0.2538 0.737831,-0.2439 0.737831,-0.7794 0.737831,-0.6156 0.737831,-0.2781 0.737831,-0.13635 0.737831,-0.24975 0.737831,-0.003 0.737831,-9e-4 0.737831,-4.5e-4 0.737831,-0.004 h 0.737831 0.73783 l 0.73783,-0.003 0.73783,-9e-4 h 0.73783 l 0.73783,-4.5e-4 h 0.73783 l 0.73784,-0.002 h 0.73783 l 0.73783,-0.009 0.73783,-0.0468 0.73783,-0.0526 0.73783,-0.1044 0.73783,-0.0743 0.73783,-0.0157 0.73783,-0.058 0.73783,-0.0626 0.73783,-0.0333 0.73784,-0.067 0.73783,-0.0477 0.73783,-0.081 0.73783,-0.0454 0.73783,-0.018 0.73783,-0.0374 0.73783,-0.13365 0.73783,-0.1026 0.73783,-0.09 0.73783,-0.0423 0.73784,-0.009 0.73783,-0.0517 0.73783,-0.0283 0.73783,-0.0441 0.73783,-0.0184 0.73783,-0.0531 0.73783,-0.0248 0.73783,-0.0198 0.73783,-0.0139 0.73783,-0.0284 0.73783,-0.031 0.73784,-0.0545 0.73783,-0.0643 0.73783,-0.0688 0.73783,-0.0166 0.73783,-0.0446 0.73783,-0.004 0.73783,-0.0257 0.73783,-0.0374 0.73783,-0.0252 0.73783,-0.063 0.73783,-0.0234 0.73784,-0.009 0.73783,-0.0234 0.73783,-0.0144 0.73783,-0.0378 0.73783,-0.0333 0.73783,-0.0468 0.73783,-0.0108 0.73783,-0.0437 0.73783,-0.0346 0.73783,-0.0166 0.73783,-0.0212 0.73784,-0.0401 0.73783,-0.0445 0.73783,-0.0144 0.73783,-0.005 0.73783,-0.0239 0.73783,-0.0139 0.73783,-0.0144 0.73783,-0.0288 0.73783,-0.0279 0.73783,-0.0139 0.73783,-0.0283 0.73784,-0.0153 0.73783,-0.007 0.73783,-0.0175 0.73783,-0.067 0.73783,-0.0252 0.73783,-0.005 h 0.73783 l 0.73783,-0.009 0.73783,-0.018 0.73783,-0.0207 0.73783,-0.0153 0.73784,-0.0292 0.73783,-0.0113 0.73783,-0.005 0.73783,-0.0113 0.73783,-0.004 0.73783,-0.005 0.73783,-0.006 0.73783,-0.0148 0.73783,-0.001 0.73783,-0.013 0.73783,-0.0617 0.73784,-0.0203 0.73783,-0.007 0.73783,-0.0189 0.73783,-0.0545 0.73783,-0.009 0.73783,-0.003 0.73783,-0.01 0.73783,-0.0315 0.73783,-0.013 0.73783,-0.0144 0.73783,-0.0216 0.73784,-0.004 0.73783,-9e-4 0.73783,-0.008 0.73783,-0.009 0.73783,-0.0103 0.73783,-0.0234 0.73783,-0.0257 0.73783,-0.004 0.73783,-0.005 0.73783,-0.0157 0.73783,-0.009 0.73784,-0.008 0.73783,-0.009 0.73783,-0.027 0.73783,-0.004 0.73783,-0.003 0.73783,-0.009 V 170 h -0.73783 -0.73783 -0.73783 -0.73783 -0.73783 -0.73784 -0.73783 -0.73783 -0.73783 -0.73783 -0.73783 -0.73783 -0.73783 -0.73783 -0.73783 -0.73783 -0.73784 -0.73783 -0.73783 -0.73783 -0.73783 -0.73783 -0.73783 -0.73783 -0.73783 -0.73783 -0.73783 -0.73784 -0.73783 -0.73783 -0.73783 -0.73783 -0.73783 -0.73783 -0.73783 -0.73783 -0.73783 -0.73783 -0.73784 -0.73783 -0.73783 -0.73783 -0.73783 -0.73783 -0.73783 -0.73783 -0.73783 -0.73783 -0.73783 -0.73784 -0.73783 -0.73783 -0.73783 -0.73783 -0.73783 -0.73783 -0.73783 -0.73783 -0.73783 -0.73783 -0.73784 -0.73783 -0.73783 -0.73783 -0.73783 -0.73783 -0.73783 -0.73783 -0.73783 -0.73783 -0.73783 -0.73784 -0.73783 -0.73783 -0.73783 -0.73783 -0.73783 -0.73783 -0.73783 -0.73783 -0.73783 -0.73783 -0.73784 -0.73783 -0.73783 -0.73783 -0.73783 -0.73783 -0.73783 -0.73783 -0.73783 -0.73783 -0.73783 -0.73784 -0.73783 -0.73783 -0.73783 -0.73783 -0.73783 -0.73783 -0.73783 -0.73783 -0.73783 -0.73784 -0.73783 -0.73783 -0.73783 -0.73783 -0.73783 -0.73783 -0.73783 -0.73783 -0.73783 -0.73783 -0.73784 -0.73783 -0.73783 -0.73783 -0.73783 -0.73783 -0.73783 -0.737831 -0.737831 -0.737831 -0.737831 -0.737831 -0.737831 -0.737831 -0.737831 -0.737831 -0.737831 -0.737831 -0.737831 -0.73783 -0.737831 -0.737831 -0.737831 -0.737831 -0.737831 -0.737831 -0.737831 -0.737831 -0.737831 -0.737831 -0.73783 -0.737831 -0.737831 -0.737831 -0.737831 -0.737831 -0.737831 -0.737831 -0.737831 -0.737831 -0.707088 -0.737831 -0.737831 -0.73783 -0.737831 -0.737831 -0.737831 -0.737831 -0.737831 -0.737831 -0.737831 -0.737831 -0.737831 -0.737831 -0.73783 -0.737831 -0.737831 -0.737831 -0.737831 -0.737831 -0.737831 -0.737831 -0.737831 -0.737831 -0.737831 -0.737831 -0.73783 -0.737831 -0.737831 -0.737831 -0.737831 -0.737831 -0.737831 -0.737831 -0.737831 -0.737831 -0.737831 -0.73783 -0.737831 -0.737831 -0.737831 -0.737831 -0.737831 -0.737831 -0.737831 -0.737831 -0.737831 -0.737831 -0.737831 -0.73783 -0.737831 -0.737831 -0.737831 -0.737831 -0.737831 -0.737831 -0.737831 -0.737831 -0.737831 -0.737831 -0.737831 -0.73783 -0.737831 -0.737831 -0.737831 -0.737831 -0.737831 -0.737831 -0.737831 -0.737831 -0.737831 -0.737831 -0.73783 -0.737831 -0.737831 -0.737831 -0.737831 -0.737831 -0.737831 -0.737831 -0.737831 -0.737831 -0.737831 -0.737831 -0.73783 -0.737831 -0.737831 -0.737831 -0.737831 z"
           fill-opacity="0.4"
           fill="#76b7b2"
           id="path2063" />
      </g>
      <g
         id="g2067" />
    </g>
    <text
       xml:space="preserve"
       style="font-style:normal;font-variant:normal;font-weight:normal;font-stretch:normal;font-size:6.35px;line-height:7.9375px;font-family:sans-serif;-inkscape-font-specification:'sans-serif, Normal';font-variant-ligatures:normal;font-variant-caps:normal;font-variant-numeric:normal;font-variant-east-asian:normal;fill:#000000;fill-opacity:1;stroke:none;stroke-width:0.264583"
       x="27.30088"
       y="57.458973"
       id="text13625-8-1-0"><tspan
         sodipodi:role="line"
         id="tspan53188"
         x="27.30088"
         y="57.458973"
         style="stroke-width:0.264583">Santa Barbara County Vaccination Types</tspan><tspan
         sodipodi:role="line"
         x="27.30088"
         y="65.396469"
         id="tspan53190"
         style="stroke-width:0.264583" /></text>
    <text
       xml:space="preserve"
       style="font-style:normal;font-variant:normal;font-weight:normal;font-stretch:normal;font-size:3.88056px;line-height:1.25;font-family:sans-serif;-inkscape-font-specification:'sans-serif, Normal';font-variant-ligatures:normal;font-variant-caps:normal;font-variant-numeric:normal;font-variant-east-asian:normal;fill:#000000;fill-opacity:1;stroke:none;stroke-width:0.264583"
       x="27.070259"
       y="62.238556"
       id="text53425-5"><tspan
         sodipodi:role="line"
         id="tspan53423-4"
         x="27.070259"
         y="62.238556"
         style="stroke-width:0.264583">Source: California Health and Human Services</tspan></text>
  </g>
</svg>
