<svg height="300" width="375"><g><line x1="10" x2="255" y1="220" y2="220" stroke="#d3d3d3" stroke-width="0.5px"></line><text fill="#adadad" x="10" y="215">20%</text><line x1="10" x2="255" y1="170" y2="170" stroke="#d3d3d3" stroke-width="0.5px"></line><text fill="#adadad" x="10" y="165">40%</text><line x1="10" x2="255" y1="120" y2="120" stroke="#d3d3d3" stroke-width="0.5px"></line><text fill="#adadad" x="10" y="115">60%</text><line x1="10" x2="255" y1="69.99999999999999" y2="69.99999999999999" stroke="#d3d3d3" stroke-width="0.5px"></line><text fill="#adadad" x="10" y="64.99999999999999">80%</text><line x1="10" x2="255" y1="20" y2="20" stroke="#d3d3d3" stroke-width="0.5px"></line><text fill="#adadad" x="10" y="15">100% of estimated age group population</text></g><path d="M10,270L10.9961036760969,270L11.992207352193798,270L12.988311028290699,270L13.9844147043876,270L14.9805183804845,270L15.976622056581398,270L16.9727257326783,270L17.9688294087752,270L18.9649330848721,270L19.961036760969,270L20.9571404370659,270L21.9532441131628,270L22.949347789259697,270L23.945451465356598,269.9774754482386L24.9415551414535,269.9774754482386L25.9376588175504,269.9774754482386L26.933762493647297,269.9774754482386L27.9298661697442,269.9774754482386L28.9259698458411,269.9774754482386L29.922073521938,269.9774754482386L30.918177198034897,269.9774754482386L31.914280874131798,269.9774754482386L32.9103845502287,269.9774754482386L33.9064882263256,269.96245908039765L34.9025919024225,269.96245908039765L35.8986955785194,269.96245908039765L36.894799254616295,269.94744271255666L37.890902930713196,269.9249181607953L38.8870066068101,269.9174099768748L39.883110282907,269.9174099768748L40.8792139590039,269.9023936090338L41.8753176351008,269.8873772411929L42.87142131119769,269.8873772411929L43.867524987294594,269.8798690572724L44.863628663391495,269.8798690572724L45.8597323394884,269.85734450551104L46.85583601558529,269.8198035859087L47.8519396916822,269.8198035859087L48.8480433677791,269.81229540198814L49.844147043876,269.8047872180677L50.84025071997289,269.7972790341472L51.836354396069794,269.7897708502268L52.832458072166695,269.7822626663062L53.828561748263596,269.76724629846535L54.824665424360504,269.75973811454486L55.82076910045739,269.7522299306244L56.81687277655429,269.7447217467039L57.8129764526512,269.7071808271015L58.80908012874809,269.6996726431811L59.805183804844994,269.6921644592606L60.801287480941895,269.6771480914196L61.797391157038795,269.66213172357874L62.793494833135696,269.64711535573775L63.78959850923259,269.62459080397633L64.7857021853295,269.62459080397633L65.78180586142639,269.61708262005584L66.7779095375233,269.61708262005584L67.7740132136202,269.6020662522149L68.77011688971709,269.5945580682945L69.766220565814,269.5945580682945L70.76232424191089,269.5945580682945L71.7584279180078,269.5945580682945L72.7545315941047,269.572033516533L73.7506352702016,269.572033516533L74.74673894629848,269.572033516533L75.74284262239539,269.56452533261256L76.73894629849228,269.56452533261256L77.73504997458919,269.56452533261256L78.7311536506861,269.5570171486921L79.72725732678299,269.5570171486921L80.7233610028799,269.5570171486921L81.71946467897679,269.5570171486921L82.7155683550737,269.5570171486921L83.71167203117058,269.53449259693065L84.70777570726749,269.53449259693065L85.7038793833644,269.5119680451692L86.69998305946129,269.4969516773283L87.6960867355582,269.4969516773283L88.69219041165509,269.4819353094873L89.688294087752,269.4819353094873L90.68439776384889,269.45941075772595L91.68050143994579,269.45190257380546L92.6766051160427,269.43688620596447L93.67270879213959,269.42937802204403L94.66881246823648,269.4218698381236L95.66491614433339,269.3467879989188L96.6610198204303,269.2942307114755L97.65712349652719,269.2641979757936L98.6532271726241,269.22665705619124L99.60782652888362,269.11403429738414L100.60393020498051,269.0464606420999L101.60003388107742,268.9713788028952L102.59613755717433,268.8887887797699L103.59224123327122,268.76114965312195L104.58834490936812,268.71610054959905L105.58444858546501,268.61098597471243L106.58055226156192,268.51337958374626L107.57665593765881,268.4307895606211L108.57275961375572,268.32567498573445L109.56886328985262,268.2505931465297L110.56496696594951,268.0779049163589L111.56107064204642,267.9953148932336L112.55717431814332,267.73252845601706L113.55327799424022,267.46974201880045L114.54938167033711,267.10184100669727L115.54548534643402,266.6438417875484L116.54158902253091,266.37354716641136L117.53769269862781,266.0582034417515L118.53379637472472,265.6827942457278L119.52990005082162,265.63023695828457L120.52600372691853,265.5176141994774L121.52210740301541,265.28486049794276L122.5182110791123,264.92446766976L123.51431475520921,263.6030272997567L124.5104184313061,262.6645043096976L125.50652210740301,260.39703276571464L126.50262578349992,259.0530678439499L127.49872945959683,258.3623149232664L128.4948331356937,257.56644742769623L129.49093681179062,255.4791722978046L130.48704048788753,253.84989638706188L131.4831441639844,251.96534222302307L132.4792478400813,248.9845932065952L133.47535151617822,248.90951136739045L134.47145519227513,248.27882391807069L135.46755886837204,247.51298915818242L136.4636625444689,246.94236718022646L137.4597662205658,246.30417154698623L138.4558698966627,245.41820584437036L139.4519735727596,244.53974832567496L140.44807724885652,244.38958464726554L141.44418092495343,244.22440460101512L142.44028460105034,243.98414271555995L143.4363882771472,243.62374988737722L144.4324919532441,243.06063609334174L145.428595629341,242.40742409226056L146.4246993054379,242.08457218368022L147.42080298153482,241.9719494248731L148.41690665763173,241.8067693786227L149.4130103337286,241.19860648106436L150.40911400982552,240.92080367600687L151.4052176859224,240.63549268702886L152.4013213620193,240.0873952608343L153.3974250381162,239.8171006396973L154.39352871421312,239.75703516833346L155.38963239031003,239.5768387542421L156.3857360664069,239.26149502958225L157.38183974250381,238.480643901853L158.3779434186007,234.0357990209328L159.37404709469763,227.95417004534946L160.3701507707945,219.50746313481696L161.36625444689142,217.64543352253958L162.36235812298833,214.85238910412352L163.35846179908518,211.87164008769557L164.3545654751821,209.2512838994504L165.350669151279,206.54833768807998L166.34677282737593,202.50893473886535L167.3428765034728,197.4334024086254L168.33898017956972,196.58497762561194L169.33508385566662,195.2785536234496L170.33118753176348,194.2874733459471L171.3272912078604,191.88485449139563L172.3233948839573,189.812595729345L173.31949856005423,188.5136799111031L174.3156022361511,188.0031234045109L175.31170591224802,187.53761600144156L176.30780958834492,187.5301078175211L177.3039132644418,186.7117157701895L178.3000169405387,185.4803736072319L179.2961206166356,184.2114905246719L180.29222429273253,182.96513199387329L181.2883279688294,181.9965762681323L182.28443164492631,181.66621617563143L183.28053532102322,181.12562693335735L184.2766389971201,180.69015226596989L185.272742673217,179.92431750608162L186.26884634931392,178.66294260744212L187.2649500254108,178.05477970988377L188.2610537015077,177.58927230681442L189.2571573776046,177.30396131783647L190.25326105370152,176.58317566147102L191.2493647297984,175.78730816590084L192.2454684058953,175.05901432561492L193.24157208199222,173.71504940385017L194.2376757580891,173.06183740276902L195.233779434186,172.55128089617685L196.2298831102829,172.26596990719887L197.2259867863798,171.86803615941375L198.2220904624767,171.47761059554915L199.2181941385736,170.8469231462294L200.21429781467052,169.71318737423792L201.2104014907674,168.90981169474725L202.20650516686433,168.5944679700874L203.2026088429612,168.24158332582516L204.1987125190581,167.91873141724477L205.194816195155,167.51328948553925L206.19091987125188,166.77748746133284L207.18702354734882,165.95909541400127L208.1831272234457,165.2232933897949L209.17923089954263,164.94549058473737L210.1753345756395,164.9379824008169L211.17143825173642,164.5625732047932L212.1675419278333,164.23221311229238L213.16364560393018,163.79673844490492L214.1597492800271,162.98585458149384L215.155852956124,162.38519986785596L216.15195663222093,162.0698561431961L217.1480603083178,161.8446106255819L218.1441639844147,161.4692014295582L219.1402676605116,161.1613658888188L220.1363713366085,160.67333393398806L221.1324750127054,159.88497462233835L222.1285786888023,159.23927080517765L223.12468236489923,158.83382887347204L224.1207860409961,158.40586239000513L225.116889717093,157.9553713547767L226.1129933931899,157.32468390545694L227.1090970692868,156.35612817971585L228.1052007453837,155.55275250022527L229.10130442148062,154.74186863681416L230.0974080975775,154.39649217647238L231.0935117736744,153.99105024476677L232.0896154497713,153.4354446346518L233.0857191258682,152.80475718533205L234.0818228019651,151.79866053998862L235.077926478062,150.51476108958767L236.07403015415892,149.66633630657412L237.0701338302558,149.12574706430007L238.06623750635268,147.93945400486527L239.0623411824496,147.08352103793135L240.0584448585465,146.36273538156587L241.0545485346434,145.28155689701777L242.0506522107403,144.30549298735622L243.04675588683722,142.61615160524974L244.0428595629341,141.81277592575907L245.038963239031,140.9343184070637L246.03506691512789,139.89068084211792L247.0311705912248,138.8019941736493L248.0272742673217,137.3904555966003L249.02337794341858,136.53452262966636L250.01948161951552,135.19055770790163L251.0155852956124,134.4922966032976L252.0116889717093,133.99675646454634L253.00779264780618,133.4111181187494L254.00389632390312,132.9080697960777L255,132.23233324323513" stroke="#4e79a7" stroke-width="4" fill="none"></path><path d="M10,269.998775416236L10.9961036760969,269.99755083247203L11.992207352193798,269.8763170398381L12.988311028290699,269.5726202663714L13.9844147043876,269.3289280973397L14.9805183804845,269.1525880353268L15.976622056581398,268.6896953725429L16.9727257326783,268.51335531052996L17.9688294087752,268.29660398430576L18.9649330848721,268.22557812599496L19.961036760969,268.22557812599496L20.9571404370659,267.9806613731992L21.9532441131628,267.9280042713482L22.949347789259697,267.69900710748414L23.945451465356598,267.36224657239006L24.9415551414535,267.04140562622763L25.9376588175504,266.88343432067444L26.933762493647297,266.83445097011526L27.9298661697442,266.45727917080984L28.9259698458411,266.4425841656421L29.922073521938,266.2466507634055L30.918177198034897,265.83641520247266L31.914280874131798,265.43107797659576L32.9103845502287,265.09186827397366L33.9064882263256,264.6473443676494L34.9025919024225,264.4012030310898L35.8986955785194,264.37548677204614L36.894799254616295,264.0889341712752L37.890902930713196,263.4276589387267L38.8870066068101,262.9108845903277L39.883110282907,262.2569568603631L40.8792139590039,261.6324191407341L41.8753176351008,261.3189256971555L42.87142131119769,261.3042306919878L43.867524987294594,260.78378259229686L44.863628663391495,260.02943899368603L45.8597323394884,259.53470715303865L46.85583601558529,259.15263701867735L47.8519396916822,258.80975356476335L48.8480433677791,258.5832055684273L49.844147043876,258.5146288776445L50.84025071997289,258.31012338906004L51.836354396069794,257.9072353307111L52.832458072166695,257.5900681358406L53.828561748263596,257.33168096164115L54.824665424360504,257.14554422951636L55.82076910045739,257.00961543171474L56.81687277655429,256.95205999480777L57.8129764526512,256.83939828852175L58.80908012874809,256.4181414737131L59.805183804844994,256.0960759437867L60.801287480941895,255.81932001312754L61.797391157038795,255.5756278440958L62.793494833135696,255.47153822415763L63.78959850923259,255.42990237618235L64.7857021853295,255.3515290152877L65.78180586142639,255.11763351636776L66.7779095375233,254.94741637317475L67.7740132136202,254.81638591042906L68.77011688971709,254.67188502627954L69.766220565814,254.5837149952731L70.76232424191089,254.5555495687016L71.7584279180078,254.52126122331018L72.7545315941047,254.41227326831608L73.7506352702016,254.32532782107364L74.74673894629848,254.25920029781878L75.74284262239539,254.0106097937311L76.73894629849228,253.91386767637678L77.73504997458919,253.8967235036811L78.7311536506861,253.77548971104724L79.72725732678299,253.61874298925795L80.7233610028799,253.48281419145633L81.71946467897679,253.328516637195L82.7155683550737,253.12646031613852L83.71167203117058,252.928077746374L84.70777570726749,252.45049007842235L85.7038793833644,252.19822582304275L86.69998305946129,250.85118368266626L87.6960867355582,249.52985780133332L88.69219041165509,248.91634133558003L89.688294087752,247.86809763361433L90.68439776384889,246.84679477445616L91.68050143994579,246.45247880245506L92.6766051160427,245.82916566658992L93.67270879213959,244.79316780226404L94.66881246823648,243.29672644268214L95.66491614433339,241.20636195757064L96.6610198204303,239.7233910193925L97.65712349652719,237.44444063462828L98.6532271726241,237.06481966779492L99.60782652888362,236.10597058059966L100.60393020498051,233.80252852055588L101.60003388107742,231.62889233949383L102.59613755717433,228.53681833544778L103.59224123327122,226.3129742200626L104.58834490936812,225.4729097579733L105.58444858546501,224.94878790699042L106.58055226156192,223.25763772893592L107.57665593765881,220.3517004570147L108.57275961375572,217.88538875636172L109.56886328985262,216.08525062331313L110.56496696594951,214.55697008586782L111.56107064204642,213.4756626222747L112.55717431814332,212.51681353507942L113.55327799424022,211.14650430318736L114.54938167033711,208.473237946422L115.54548534643402,205.56730067450073L116.54158902253091,202.88791139891552L117.53769269862781,200.4081292768588L118.53379637472472,198.98148919182373L119.52990005082162,198.57370279841885L120.52600372691853,197.129918540688L121.52210740301541,194.36235923409632L122.5182110791123,191.39519277397613L123.51431475520921,187.74348398979188L124.5104184313061,184.0991227081915L125.50652210740301,179.87675788999317L126.50262578349992,178.00559389863383L127.49872945959683,175.86747064672718L128.4948331356937,173.65832153650973L129.49093681179062,169.8400693604244L130.48704048788753,166.41980690763208L131.4831441639844,162.42521466953386L132.4792478400813,158.8531038300082L133.47535151617822,158.52246621373396L134.47145519227513,157.67505424906074L135.46755886837204,156.30596960093266L136.4636625444689,154.77034156090343L137.4597662205658,153.57637239102428L138.4558698966627,151.87420095909403L139.4519735727596,150.50879006225784L140.44807724885652,150.07896116110135L141.44418092495343,149.59647515809377L142.44028460105034,148.494349770513L143.4363882771472,147.19996473198756L144.4324919532441,145.8370030026794L145.428595629341,144.47526585713518L146.4246993054379,143.62295555740604L147.42080298153482,143.19802499130546L148.41690665763173,142.73023399346562L149.4130103337286,141.68566404279187L150.40911400982552,141.06235090692672L151.4052176859224,140.1071755710234L152.4013213620193,139.12628397607654L153.3974250381162,138.1539644674775L154.39352871421312,137.67392763199788L155.38963239031003,137.31390000538815L156.3857360664069,136.7236506311505L157.38183974250381,136.1885075262918L158.3779434186007,135.45743101919658L159.37404709469763,134.67492199401426L160.3701507707945,133.92302756293134L161.36625444689142,133.5544278499738L162.36235812298833,133.05724684179847L163.35846179908518,132.4486287111011L164.3545654751821,132.0065539723048L165.350669151279,131.43712252205475L166.34677282737593,130.71339351754338L167.3428765034728,129.990889096796L168.33898017956972,129.65657772922984L169.33508385566662,129.31614344284378L170.33118753176348,128.9303995571905L171.3272912078604,128.34504851800872L172.3233948839573,127.72418454967156L173.31949856005423,127.15107934812957L174.3156022361511,126.83881048831503L175.31170591224802,126.63675416725854L176.30780958834492,126.60858874068704L177.3039132644418,126.28162487570475L178.3000169405387,125.980377269766L179.2961206166356,125.53462877967777L180.29222429273253,125.13418988885678L181.2883279688294,124.7153822415761L182.28443164492631,124.5255717581594L183.28053532102322,124.29902376182334L184.2766389971201,124.06267909537547L185.272742673217,123.79939358612009L186.26884634931392,123.41364970046682L187.2649500254108,123.02178289599365L188.2610537015077,122.86013783914846L189.2571573776046,122.67155193949577L190.25326105370152,122.38499933872477L191.2493647297984,122.0800779814941L192.2454684058953,121.79719913201501L193.24157208199222,121.29756895631175L194.2376757580891,120.9620330049816L195.233779434186,120.7550783488692L196.2298831102829,120.63751830752726L197.2259867863798,120.37913113332777L198.2220904624767,120.12809146171217L199.2181941385736,119.86603053622072L200.21429781467052,119.41538371107661L201.2104014907674,119.04678399811903L202.20650516686433,118.86677018481419L203.2026088429612,118.66104011246577L204.1987125190581,118.46265754270124L205.194816195155,118.27407164304853L206.19091987125188,118.03650239283667L207.18702354734882,117.57973264887266L208.1831272234457,117.27481129164197L209.17923089954263,117.15112833148012L210.1753345756395,117.14500541266024L211.17143825173642,116.97723743699517L212.1675419278333,116.78252861852258L213.16364560393018,116.55108228713061L214.1597492800271,116.2253430059123L215.155852956124,115.99512125828429L216.15195663222093,115.86653996306654L217.1480603083178,115.78694201840796L218.1441639844147,115.63019529661867L219.1402676605116,115.48446982870523L220.1363713366085,115.33629519326381L221.1324750127054,115.05953926260463L222.1285786888023,114.7913554182933L223.12468236489923,114.63460869650405L224.1207860409961,114.45214571567124L225.116889717093,114.1055885104653L226.1129933931899,113.8018917369986L227.1090970692868,113.5667716543147L228.1052007453837,113.19572277382917L229.10130442148062,112.74752511621301L230.0974080975775,112.518527952349L231.0935117736744,112.37892540325542L232.0896154497713,112.03971570063334L233.0857191258682,111.66499306885589L234.0818228019651,111.2988425234263L235.077926478062,110.89228071378538L236.07403015415892,110.50041390931223L237.0701338302558,110.27998883179608L238.06623750635268,110.07303417568369L239.0623411824496,109.71300654907395L240.0584448585465,109.38236893279975L241.0545485346434,108.99662504714648L242.0506522107403,108.59128782126955L243.04675588683722,108.1185984883738L244.0428595629341,107.86266048170228L245.038963239031,107.63733706913021L246.03506691512789,107.27118652370058L247.0311705912248,106.96136683141401L248.0272742673217,106.60991129115213L249.02337794341858,106.23641324313866L250.01948161951552,105.69759638698807L251.0155852956124,105.34369167919824L252.0116889717093,105.17469911976919L253.00779264780618,104.84651067102291L254.00389632390312,104.52811889238849L255,104.31749048498415" stroke="#f28e2c" stroke-width="4" fill="none"></path><path d="M10,269.996492311146L10.9961036760969,269.996492311146L11.992207352193798,269.8491693792794L12.988311028290699,269.44578516107305L13.9844147043876,269.10904703109213L14.9805183804845,268.83544730048266L15.976622056581398,267.9900942866764L16.9727257326783,267.73403300033675L17.9688294087752,267.42535638118756L18.9649330848721,267.3587102929622L19.961036760969,267.3587102929622L20.9571404370659,267.0219721629813L21.9532441131628,266.96935683017176L22.949347789259697,266.6045571893591L23.945451465356598,266.1310191940734L24.9415551414535,265.5417274666068L25.9376588175504,265.34880457963857L26.933762493647297,265.27163542485124L27.9298661697442,264.7945897407116L28.9259698458411,264.7805589852958L29.922073521938,264.49994387697836L30.918177198034897,263.8510214389943L31.914280874131798,263.31785273319116L32.9103845502287,262.91096082613086L33.9064882263256,262.2936075878325L34.9025919024225,262.0375463014929L35.8986955785194,262.0165001683691L36.894799254616295,261.44123919631835L37.890902930713196,260.53976316084857L38.8870066068101,259.86277921203276L39.883110282907,259.14370299696935L40.8792139590039,257.9405657200584L41.8753176351008,257.4880738578965L42.87142131119769,257.42493545852506L43.867524987294594,256.59010551128074L44.863628663391495,255.4886912111348L45.8597323394884,254.66789201930632L46.85583601558529,253.91023122684925L47.8519396916822,253.32795487709055L48.8480433677791,252.90352452576047L49.844147043876,252.65798630598272L50.84025071997289,252.2335559546526L51.836354396069794,251.3952183185543L52.832458072166695,250.79540352452577L53.828561748263596,250.3744808620496L54.824665424360504,249.98863508811314L55.82076910045739,249.77817375687505L56.81687277655429,249.67645078011L57.8129764526512,249.51860478168146L58.80908012874809,248.78549781120216L59.805183804844994,248.15060612863397L60.801287480941895,247.58586822314513L61.797391157038795,247.13688404983722L62.793494833135696,246.96500729599282L63.78959850923259,246.88433045235158L64.7857021853295,246.6949152542373L65.78180586142639,246.2564541474913L66.7779095375233,245.94777752834213L67.7740132136202,245.6461162869009L68.77011688971709,245.4075934448311L69.766220565814,245.26377820181838L70.76232424191089,245.19011673588506L71.7584279180078,245.0743630037041L72.7545315941047,244.86039398361208L73.7506352702016,244.65694803008194L74.74673894629848,244.41140981030418L75.74284262239539,244.0606409249074L76.73894629849228,243.78353350544396L77.73504997458919,243.7098720395106L78.7311536506861,243.48537995285668L79.72725732678299,243.18371871141542L80.7233610028799,242.6610730721742L81.71946467897679,241.88938152430126L82.7155683550737,241.47898192838704L83.71167203117058,241.13873610955216L84.70777570726749,240.4231675833427L85.7038793833644,239.81633741160624L86.69998305946129,238.0309237849366L87.6960867355582,235.65621843080032L88.69219041165509,234.30225053316872L89.688294087752,232.42914468514985L90.68439776384889,230.61566954764842L91.68050143994579,229.9562240431025L92.6766051160427,228.84428667639463L93.67270879213959,227.49733415647097L94.66881246823648,225.10859804691881L95.66491614433339,221.81137052418902L96.6610198204303,219.60152654618923L97.65712349652719,217.23383656976088L98.6532271726241,216.59543719833877L99.60782652888362,214.56097766303736L100.60393020498051,211.23218094062182L101.60003388107742,208.39095296890784L102.59613755717433,203.350404085756L103.59224123327122,199.41477719160397L104.58834490936812,197.72407116399145L105.58444858546501,196.5489953979122L106.58055226156192,193.97435177909978L107.57665593765881,190.16850937254463L108.57275961375572,185.3559602649007L109.56886328985262,181.26248737232012L110.56496696594951,178.29849029071724L111.56107064204642,176.26753844426983L112.55717431814332,172.7984341676956L113.55327799424022,166.4249635200359L114.54938167033711,159.40958581210012L115.54548534643402,153.05014591985633L116.54158902253091,146.66965989448875L117.53769269862781,141.0889269278258L118.53379637472472,136.9568694578516L119.52990005082162,136.42019306319452L120.52600372691853,132.77219665506792L121.52210740301541,127.95964754742396L122.5182110791123,121.31257716915478L123.51431475520921,115.58452127062522L124.5104184313061,111.1052026041082L125.50652210740301,106.89246829049277L126.50262578349992,105.6542541250421L127.49872945959683,103.96705578628352L128.4948331356937,101.89751936244247L129.49093681179062,99.49475249747445L130.48704048788753,97.34103154113816L131.4831441639844,94.7839263665956L132.4792478400813,92.553036255472L133.47535151617822,92.27242114715457L134.47145519227513,91.60596026490066L135.46755886837204,90.43439218767539L136.4636625444689,89.19267033337076L137.4597662205658,88.01057918958357L138.4558698966627,86.6390728476821L139.4519735727596,85.48855090358066L140.44807724885652,85.14830508474574L141.44418092495343,84.66775171175215L142.44028460105034,83.70664496576495L143.4363882771472,82.53858457739365L144.4324919532441,81.18461667976204L145.428595629341,80.22350993377484L146.4246993054379,79.64824896172411L147.42080298153482,79.43778763048603L148.41690665763173,79.00984959030195L149.4130103337286,78.22763497586712L150.40911400982552,77.58572791559097L151.4052176859224,76.9052362779212L152.4013213620193,76.08092939723875L153.3974250381162,75.55477606914356L154.39352871421312,75.24609944999439L155.38963239031003,74.8742844314738L156.3857360664069,74.32357728140083L157.38183974250381,73.77988550903581L158.3779434186007,73.14850151532157L159.37404709469763,72.47151756650578L160.3701507707945,72.08567179256931L161.36625444689142,71.77699517342013L162.36235812298833,71.42622628802334L163.35846179908518,70.90007295992815L164.3545654751821,70.55281176338534L165.350669151279,70.12838141205523L166.34677282737593,69.60573577281403L167.3428765034728,69.11816702211246L168.33898017956972,68.93225951285218L169.33508385566662,68.66918284880458L170.33118753176348,68.43066000673477L171.3272912078604,68.03078347738244L172.3233948839573,67.53619934897293L173.31949856005423,67.2345381075317L174.3156022361511,67.02056908743967L175.31170591224802,66.85220002244922L176.30780958834492,66.8311538893254L177.3039132644418,66.5049388259064L178.3000169405387,66.24887753956672L179.2961206166356,65.9121394095858L180.29222429273253,65.55786283533504L181.2883279688294,65.4105399034684L182.28443164492631,65.28426310472555L183.28053532102322,65.07730946234145L184.2766389971201,64.89490964193513L185.272742673217,64.68094062184308L186.26884634931392,64.42487933550343L187.2649500254108,64.16180267145583L188.2610537015077,63.99343360646537L189.2571573776046,63.91626445167807L190.25326105370152,63.69177236502414L191.2493647297984,63.505864855763825L192.2454684058953,63.348018857335276L193.24157208199222,63.02180379391626L194.2376757580891,62.772757885284534L195.233779434186,62.667527219665516L196.2298831102829,62.59035806487821L197.2259867863798,62.44654282186552L198.2220904624767,62.26063531260523L199.2181941385736,62.10629700303065L200.21429781467052,61.818666517005276L201.2104014907674,61.50998989785609L202.20650516686433,61.38371309911326L203.2026088429612,61.26445167807835L204.1987125190581,61.099590301941845L205.194816195155,60.91017510382758L206.19091987125188,60.76285217196093L207.18702354734882,60.58396004040856L208.1831272234457,60.36999102031652L209.17923089954263,60.29983724323719L210.1753345756395,60.289314176675276L211.17143825173642,60.124452800538776L212.1675419278333,60.0332528903356L213.16364560393018,59.87540689190705L214.1597492800271,59.682484004938814L215.155852956124,59.482545740262665L216.15195663222093,59.380822763497584L217.1480603083178,59.34223818610394L218.1441639844147,59.18789987652934L219.1402676605116,59.06162307778652L220.1363713366085,58.97042316758334L221.1324750127054,58.84765405769447L222.1285786888023,58.658238859580194L223.12468236489923,58.54950050510719L224.1207860409961,58.482854416881814L225.116889717093,58.28993152991356L226.1129933931899,58.15313166460882L227.1090970692868,57.91110113368504L228.1052007453837,57.67959366932316L229.10130442148062,57.35688629475811L230.0974080975775,57.16396340778988L231.0935117736744,57.06574811987878L232.0896154497713,56.89737905488832L233.0857191258682,56.65184083511056L234.0818228019651,56.37824110450108L235.077926478062,56.16076439555504L236.07403015415892,55.87313390952967L237.0701338302558,55.743349421932884L238.06623750635268,55.62408800089797L239.0623411824496,55.42414973622179L240.0584448585465,55.23122684925356L241.0545485346434,54.964642496352006L242.0506522107403,54.75418116511392L243.04675588683722,54.43848916825681L244.0428595629341,54.22802783701876L245.038963239031,54.129812549107655L246.03506691512789,53.91584352901561L247.0311705912248,53.70888988663151L248.0272742673217,53.48439779997756L249.02337794341858,53.26692109103155L250.01948161951552,52.86353687282522L251.0155852956124,52.69516780783477L252.0116889717093,52.610983275339535L253.00779264780618,52.414552699517344L254.00389632390312,52.204091368279265L255,52.06729150297452" stroke="#e15759" stroke-width="4" fill="none"></path><path d="M10,270L10.9961036760969,269.9966702184337L11.992207352193798,269.9234150239744L12.988311028290699,269.8135322322856L13.9844147043876,269.70031965903036L14.9805183804845,269.6603622802344L15.976622056581398,269.50719232818324L16.9727257326783,269.36734150239744L17.9688294087752,269.150905700586L18.9649330848721,269.11094832179015L19.961036760969,269.11094832179015L20.9571404370659,268.99440596696854L21.9532441131628,268.9777570591369L22.949347789259697,268.72136387852953L23.945451465356598,268.2052477357485L24.9415551414535,267.6891315929675L25.9376588175504,267.4893446989878L26.933762493647297,267.27956846030895L27.9298661697442,266.75346297282897L28.9259698458411,266.73015450186466L29.922073521938,266.51704848161955L30.918177198034897,265.81779435269044L31.914280874131798,265.57472029834844L32.9103845502287,265.2717101758125L33.9064882263256,264.7189664358018L34.9025919024225,264.559136920618L35.8986955785194,264.4992008524241L36.894799254616295,263.7633191262653L37.890902930713196,262.1683537559936L38.8870066068101,260.56339904102293L39.883110282907,258.99507192328184L40.8792139590039,256.0781832711774L41.8753176351008,253.24453915823125L42.87142131119769,252.9315396909963L43.867524987294594,251.92927543953118L44.863628663391495,250.43087373468302L45.8597323394884,246.51838039424615L46.85583601558529,238.11401172083112L47.8519396916822,230.335641981886L48.8480433677791,227.27224294086307L49.844147043876,224.86481086840703L50.84025071997289,222.46403835908364L51.836354396069794,218.66142781033562L52.832458072166695,217.0731220031966L53.828561748263596,215.89770911028236L54.824665424360504,213.48361747469366L55.82076910045739,209.11827384123603L56.81687277655429,204.6430474160895L57.8129764526512,203.25785828449654L58.80908012874809,201.59962706446458L59.805183804844994,198.01678209909429L60.801287480941895,190.9010388918487L61.797391157038795,184.40796483750668L62.793494833135696,182.22029834842834L63.78959850923259,181.5077250932339L64.7857021853295,179.6863345764518L65.78180586142639,176.9892115077251L66.7779095375233,175.2810335641982L67.7740132136202,173.7693127330847L68.77011688971709,171.8114011720831L69.766220565814,170.2963505594033L70.76232424191089,169.46723494938735L71.7584279180078,168.0087906233351L72.7545315941047,166.08750665956313L73.7506352702016,164.76891315929674L74.74673894629848,160.0606020245072L75.74284262239539,153.28782631859346L76.73894629849228,147.95684603090038L77.73504997458919,147.8569525839105L78.7311536506861,147.45404901438468L79.72725732678299,146.7081779435269L80.7233610028799,145.07325519445925L81.71946467897679,142.73241875332977L82.7155683550737,136.73881193393711L83.71167203117058,134.4712306872669L84.70777570726749,133.24920085242408L85.7038793833644,130.55873734683004L86.69998305946129,128.4376664890783L87.6960867355582,120.34962706446457L88.69219041165509,113.34709643047418L89.688294087752,106.85735215769847L90.68439776384889,104.91941928609484L91.68050143994579,104.40330314331379L92.6766051160427,103.27117741076184L93.67270879213959,102.332179009057L94.66881246823648,101.64624400639318L95.66491614433339,99.24547149706979L96.6610198204303,96.628263185935L97.65712349652719,95.37293553542888L98.6532271726241,95.1032232285562L99.60782652888362,94.48388385721897L100.60393020498051,93.67141715503465L101.60003388107742,93.17860948321788L102.59613755717433,92.26957911561001L103.59224123327122,90.8677410761854L104.58834490936812,90.13518913159297L105.58444858546501,89.7755727224294L106.58055226156192,89.36600958977091L107.57665593765881,88.25386254661694L108.57275961375572,87.29821523708046L109.56886328985262,86.41915290356953L110.56496696594951,85.38359083644113L111.56107064204642,84.9140916355887L112.55717431814332,84.62107085775173L113.55327799424022,83.57551944592436L114.54938167033711,82.21030900372934L115.54548534643402,79.60309003729355L116.54158902253091,78.33444326052211L117.53769269862781,77.41209376664891L118.53379637472472,76.786094832179L119.52990005082162,76.65623335109215L120.52600372691853,75.92368140649972L121.52210740301541,75.05127863612148L122.5182110791123,74.15223761321258L123.51431475520921,72.91355887053808L124.5104184313061,71.99786893979754L125.50652210740301,71.2187000532765L126.50262578349992,70.91901971230686L127.49872945959683,70.46283963771978L128.4948331356937,70.0466169419286L129.49093681179062,69.51385189131594L130.48704048788753,69.05434203516249L131.4831441639844,68.41835375599359L132.4792478400813,67.96550346297282L133.47535151617822,67.91222695791156L134.47145519227513,67.68580181140118L135.46755886837204,67.35615343633457L136.4636625444689,67.04315396909965L137.4597662205658,66.68353755993607L138.4558698966627,66.2872935535429L139.4519735727596,65.96763452317529L140.44807724885652,65.8577517314864L141.44418092495343,65.70125199786895L142.44028460105034,65.39491209376665L143.4363882771472,65.06526371870007L144.4324919532441,64.61241342567929L145.428595629341,64.21949920085243L146.4246993054379,64.07298881193394L147.42080298153482,64.00306339904103L148.41690665763173,63.80993606819392L149.4130103337286,63.54022376132124L150.40911400982552,63.31046883324455L151.4052176859224,63.02410761854023L152.4013213620193,62.777703782631846L153.3974250381162,62.641182738412354L154.39352871421312,62.584576451784756L155.38963239031003,62.43806606286627L156.3857360664069,62.22828982418753L157.38183974250381,62.05181140117209L158.3779434186007,61.84536494405966L159.37404709469763,61.58897176345231L160.3701507707945,61.4957378795951L161.36625444689142,61.43580181140116L162.36235812298833,61.275972296217375L163.35846179908518,61.15277037826318L164.3545654751821,60.99960042621204L165.350669151279,60.8231220031966L166.34677282737593,60.69659030367609L167.3428765034728,60.53343100692594L168.33898017956972,60.48348428343102L169.33508385566662,60.396909962706445L170.33118753176348,60.32365476824721L171.3272912078604,60.18047416089504L172.3233948839573,60.0273042088439L173.31949856005423,59.90077250932339L174.3156022361511,59.840836441129454L175.31170591224802,59.81419818859882L176.30780958834492,59.80087906233351L177.3039132644418,59.690996270644646L178.3000169405387,59.61441129461907L179.2961206166356,59.4679009057006L180.29222429273253,59.36467767714438L181.2883279688294,59.31140117208312L182.28443164492631,59.27144379328715L183.28053532102322,59.16156100159829L184.2766389971201,59.09496537027171L185.272742673217,59.00839104954714L186.26884634931392,58.88185935002664L187.2649500254108,58.818593500266395L188.2610537015077,58.77197655833778L189.2571573776046,58.74533830580715L190.25326105370152,58.68540223761322L191.2493647297984,58.595498135322316L192.2454684058953,58.50892381459775L193.24157208199222,58.412360149174205L194.2376757580891,58.299147575919015L195.233779434186,58.24920085242409L196.2298831102829,58.225892381459765L197.2259867863798,58.15596696856686L198.2220904624767,58.08271177410763L199.2181941385736,57.99613745338307L200.21429781467052,57.86627597229622L201.2104014907674,57.79635055940331L202.20650516686433,57.77637187000532L203.2026088429612,57.74973361747469L204.1987125190581,57.689797549280755L205.194816195155,57.603223228556196L206.19091987125188,57.53995737879595L207.18702354734882,57.46337240277037L208.1831272234457,57.36014917421418L209.17923089954263,57.33351092168355L210.1753345756395,57.33351092168355L211.17143825173642,57.30354288758659L212.1675419278333,57.25692594565797L213.16364560393018,57.18367075119872L214.1597492800271,57.067128396377186L215.155852956124,56.967234949387304L216.15195663222093,56.93060735215769L217.1480603083178,56.93060735215769L218.1441639844147,56.88066062866277L219.1402676605116,56.827384123601476L220.1363713366085,56.770777836973885L221.1324750127054,56.72416089504529L222.1285786888023,56.62093766648908L223.12468236489923,56.57432072456046L224.1207860409961,56.557671816728806L225.116889717093,56.47775705913692L226.1129933931899,56.41449120937668L227.1090970692868,56.334576451784756L228.1052007453837,56.214704315396915L229.10130442148062,56.10815130527436L230.0974080975775,56.048215237080456L231.0935117736744,56.028236547682475L232.0896154497713,55.89837506659563L233.0857191258682,55.788492274906766L234.0818228019651,55.68193926478422L235.077926478062,55.58870538092701L236.07403015415892,55.47549280767181L237.0701338302558,55.42554608417689L238.06623750635268,55.398907831646234L239.0623411824496,55.28569525839104L240.0584448585465,55.185801811401184L241.0545485346434,55.12586574320726L242.0506522107403,55.05261054874801L243.04675588683722,54.88279168886521L244.0428595629341,54.81619605753863L245.038963239031,54.759589770911035L246.03506691512789,54.65969632392115L247.0311705912248,54.556473095364936L248.0272742673217,54.46989877464038L249.02337794341858,54.41995205114546L250.01948161951552,54.30007991475759L251.0155852956124,54.25346297282897L252.0116889717093,54.220165157165695L253.00779264780618,54.11361214704314L254.00389632390312,54.04035695258392L255,53.970431539691006" stroke="#76b7b2" stroke-width="4" fill="none"></path><g transform="translate(0, 275)" fill="none" font-size="10" font-family="sans-serif" text-anchor="middle" style="color: rgb(173, 173, 173); font-size: 12pt;"><path class="domain" stroke="currentColor" d="M10,6V0H255V6"></path><g class="tick" opacity="1" transform="translate(26.933762493647297,0)"><line stroke="currentColor" y2="6"></line><text fill="currentColor" y="9" dy="0.71em">Jan'21</text></g><g class="tick" opacity="1" transform="translate(116.54158902253091,0)"><line stroke="currentColor" y2="6"></line><text fill="currentColor" y="9" dy="0.71em">Apr</text></g><g class="tick" opacity="1" transform="translate(207.18702354734882,0)"><line stroke="currentColor" y2="6"></line><text fill="currentColor" y="9" dy="0.71em">Jul</text></g></g><g><text x="255" y="132.23233324323513" alignment-baseline="middle" font-weight="bold" fill="#4e79a7">12-17 year olds</text><text x="255" y="148.23233324323513" fill="#4e79a7" alignment-baseline="middle">55%</text></g><g><text x="255" y="99.31749048498415" alignment-baseline="middle" font-weight="bold" fill="#f28e2c">18-49 year olds</text><text x="255" y="115.31749048498415" fill="#f28e2c" alignment-baseline="middle">66%</text></g><g><text x="255" y="32.06729150297452" alignment-baseline="middle" font-weight="bold" fill="#e15759">50-64 year olds</text><text x="255" y="48.06729150297451" fill="#e15759" alignment-baseline="middle">87%</text></g><g><text x="255" y="65.970431539691" alignment-baseline="middle" font-weight="bold" fill="#76b7b2">65+ year olds</text><text x="255" y="81.970431539691" fill="#76b7b2" alignment-baseline="middle">86%</text></g></svg>