<svg width="200" height="200"><g transform="translate(0, 170)" fill="none" font-size="10" font-family="sans-serif" text-anchor="middle" style="color: rgb(173, 173, 173); font-size: 12pt;"><path class="domain" stroke="currentColor" d="M10,6V0H190V6"></path><g class="tick" opacity="1" transform="translate(22.543125533731853,0)"><line stroke="currentColor" y2="6"></line><text fill="currentColor" y="9" dy="0.71em">Jan'21</text></g><g class="tick" opacity="1" transform="translate(88.91716481639625,0)"><line stroke="currentColor" y2="6"></line><text fill="currentColor" y="9" dy="0.71em">Apr</text></g><g class="tick" opacity="1" transform="translate(156.0597779675491,0)"><line stroke="currentColor" y2="6"></line><text fill="currentColor" y="9" dy="0.71em">Jul</text></g></g><g><line x1="10" x2="190" y1="125.00000000000001" y2="125.00000000000001" stroke="#d3d3d3" stroke-width="0.5px"></line><text fill="#adadad" x="10" y="120.00000000000001" style="font-size: 10pt;">100k</text><line x1="10" x2="190" y1="80" y2="80" stroke="#d3d3d3" stroke-width="0.5px"></line><text fill="#adadad" x="10" y="75" style="font-size: 10pt;">200k</text><line x1="10" x2="190" y1="35" y2="35" stroke="#d3d3d3" stroke-width="0.5px"></line><text fill="#adadad" x="10" y="30" style="font-size: 10pt;">300k</text></g><g><path d="M10,170L10.737830913748933,170L11.475661827497866,170L12.213492741246796,170L12.95132365499573,170L13.689154568744662,170L14.426985482493595,170L15.164816396242529,170L15.90264730999146,170L16.640478223740395,170L17.378309137489325,170L18.116140051238258,170L18.85397096498719,170L19.591801878736124,170L20.329632792485057,170L21.067463706233987,170L21.80529461998292,170L22.543125533731853,170L23.280956447480783,170L24.01878736122972,170L24.75661827497865,170L25.494449188727586,170L26.232280102476516,170L26.97011101622545,170L27.707941929974382,170L28.445772843723315,170L29.183603757472248,170L29.921434671221178,170L30.65926558497011,170L31.397096498719044,170L32.134927412467974,170L32.87275832621691,170L33.61058923996585,170L34.34842015371478,170L35.08625106746371,170L35.824081981212636,170L36.56191289496157,170L37.2997438087105,170L38.03757472245944,170L38.77540563620837,170L39.5132365499573,170L40.251067463706235,170L40.98889837745517,170L41.726729291204094,170L42.46456020495303,170L43.20239111870197,170L43.9402220324509,170L44.67805294619983,170L45.415883859948764,170L46.15371477369769,170L46.89154568744663,170L47.62937660119557,170L48.36720751494449,170L49.10503842869342,170L49.842869342442356,170L50.58070025619129,170L51.31853116994022,170L52.05636208368916,170L52.79419299743809,170L53.53202391118702,170L54.269854824935955,170L55.007685738684884,170L55.745516652433814,170L56.48334756618275,170L57.22117847993169,170L57.95900939368062,170L58.696840307429554,170L59.43467122117848,170L60.17250213492741,170L60.91033304867634,170L61.64816396242527,170L62.38599487617421,170L63.12382578992314,170L63.861656703672075,170L64.599487617421,170L65.33731853116994,170L66.07514944491888,169.9991L66.8129803586678,169.99865L67.55081127241674,169.99775L68.28864218616567,169.99775L69.0264730999146,169.97075L69.76430401366353,169.87085L70.50213492741247,169.76104999999998L71.23996584116139,169.5995L71.97779675491033,169.2494L72.71562766865927,168.7742L73.45345858240819,168.272L74.19128949615713,168.07444999999998L74.92912040990606,167.98085L75.666951323655,167.95565L76.37403928266438,167.8229L77.11187019641332,167.66945L77.84970111016226,167.48855L78.58753202391118,167.39675L79.32536293766012,167.2451L80.06319385140904,167.23385L80.80102476515799,167.21945L81.53885567890691,167.19875L82.27668659265585,167.15240000000003L83.01451750640479,166.80544999999998L83.75234842015372,166.71455L84.49017933390266,166.5746L85.22801024765157,166.55435L85.9658411614005,166.54175L86.70367207514944,166.5089L87.44150298889838,166.44095000000002L88.17933390264731,166.4108L88.91716481639625,166.29289999999997L89.65499573014517,166.02559999999997L90.39282664389411,165.99455L91.13065755764303,165.977L91.86848847139197,165.85639999999998L92.6063193851409,165.6026L93.34415029888984,165.35870000000003L94.08198121263877,164.57930000000002L94.81981212638769,163.9637L95.55764304013664,163.6856L96.29547395388556,163.54925L97.0333048676345,163.2995L97.77113578138344,163.2968L98.50896669513237,163.2959L99.24679760888131,163.29545L99.98462852263022,163.29094999999998L100.72245943637915,163.29094999999998L101.46029035012809,163.29094999999998L102.19812126387703,163.28825L102.93595217762598,163.28735L103.67378309137489,163.28735L104.41161400512382,163.2869L105.14944491887276,163.2869L105.88727583262168,163.28465L106.62510674637062,163.28465L107.36293766011956,163.2752L108.1007685738685,163.2284L108.83859948761742,163.17575L109.57643040136635,163.07134999999997L110.31426131511529,162.9971L111.05209222886423,162.98135L111.78992314261315,162.92329999999998L112.52775405636208,162.86075000000002L113.26558497011102,162.82745L114.00341588385993,162.7604L114.74124679760887,162.71269999999998L115.47907771135782,162.63170000000002L116.21690862510675,162.58625L116.95473953885568,162.56824999999998L117.69257045260461,162.5309L118.43040136635355,162.39724999999999L119.16823228010249,162.29465L119.9060631938514,162.20465L120.64389410760035,162.16235L121.38172502134928,162.15290000000002L122.1195559350982,162.10115000000002L122.85738684884714,162.0728L123.59521776259606,162.0287L124.333048676345,162.01024999999998L125.07087959009392,161.95715L125.80871050384287,161.9324L126.54654141759181,161.9126L127.28437233134073,161.89865L128.02220324508966,161.8703L128.7600341588386,161.83925L129.49786507258753,161.7848L130.23569598633645,161.72045L130.9735269000854,161.6516L131.71135781383433,161.63494999999998L132.44918872758328,161.5904L133.1870196413322,161.5859L133.92485055508112,161.56025L134.66268146883007,161.5229L135.400512382579,161.49769999999998L136.13834329632795,161.4347L136.87617421007684,161.41129999999998L137.6140051238258,161.40275L138.3518360375747,161.37935L139.08966695132364,161.36495L139.8274978650726,161.32715L140.56532877882154,161.29385L141.30315969257046,161.24705L142.04099060631938,161.23625L142.77882152006833,161.1926L143.51665243381726,161.15795L144.25448334756618,161.14129999999997L144.99231426131513,161.12015L145.73014517506408,161.08010000000002L146.46797608881297,161.03555L147.2058070025619,161.02115L147.94363791631085,161.01665L148.68146883005977,160.9928L149.4192997438087,160.97885L150.15713065755764,160.96444999999997L150.8949615713066,160.93565L151.6327924850555,160.90775L152.37062339880444,160.8938L153.1084543125534,160.86544999999998L153.8462852263023,160.85014999999999L154.58411614005124,160.84339999999997L155.3219470538002,160.82584999999997L156.0597779675491,160.7588L156.797608881298,160.7336L157.53543979504695,160.7282L158.2732707087959,160.7282L159.01110162254483,160.71964999999997L159.74893253629375,160.70165L160.4867634500427,160.68095L161.22459436379162,160.66565L161.96242527754055,160.6364L162.7002561912895,160.62515000000002L163.43808710503845,160.61975L164.17591801878737,160.6085L164.9137489325363,160.60490000000001L165.65157984628522,160.59949999999998L166.38941076003414,160.59365L167.1272416737831,160.5788L167.865072587532,160.57744999999997L168.60290350128096,160.5644L169.34073441502989,160.50275000000002L170.0785653287788,160.4825L170.81639624252776,160.47574999999998L171.55422715627668,160.45685L172.29205807002563,160.4024L173.02988898377455,160.39385000000001L173.7677198975235,160.39115L174.50555081127243,160.38125L175.24338172502135,160.34975L175.98121263877027,160.3367L176.7190435525192,160.32229999999998L177.45687446626815,160.3007L178.19470538001707,160.29665L178.932536293766,160.29575L179.67036720751494,160.2881L180.4081981212639,160.2791L181.14602903501282,160.26875L181.88385994876174,160.24535L182.6216908625107,160.2197L183.3595217762596,160.2152L184.09735269000853,160.20979999999997L184.83518360375749,160.19405L185.5730145175064,160.18505L186.31084543125533,160.17695L187.04867634500425,160.16795L187.7865072587532,160.14095L188.52433817250213,160.13735L189.26216908625105,160.13420000000002L190,160.12564999999998" stroke="#76b7b2" stroke-width="3" fill="none" stroke-opacity="1"></path><path d="M10,170L10.737830913748933,170L11.475661827497866,170L12.213492741246796,170L12.95132365499573,170L13.689154568744662,170L14.426985482493595,170L15.164816396242529,170L15.90264730999146,170L16.640478223740395,170L17.378309137489325,170L18.116140051238258,170L18.85397096498719,170L19.591801878736124,170L20.329632792485057,170L21.067463706233987,170L21.80529461998292,170L22.543125533731853,170L23.280956447480783,170L24.01878736122972,170L24.75661827497865,170L25.494449188727586,170L26.232280102476516,170L26.97011101622545,170L27.707941929974382,170L28.445772843723315,170L29.183603757472248,170L29.921434671221178,170L30.65926558497011,170L31.397096498719044,170L32.134927412467974,170L32.87275832621691,170L33.61058923996585,170L34.34842015371478,170L35.08625106746371,170L35.824081981212636,170L36.56191289496157,170L37.2997438087105,170L38.03757472245944,170L38.77540563620837,170L39.5132365499573,170L40.251067463706235,170L40.98889837745517,170L41.726729291204094,170L42.46456020495303,170L43.20239111870197,170L43.9402220324509,170L44.67805294619983,170L45.415883859948764,170L46.15371477369769,170L46.89154568744663,170L47.62937660119557,170L48.36720751494449,170L49.10503842869342,170L49.842869342442356,170L50.58070025619129,170L51.31853116994022,170L52.05636208368916,170L52.79419299743809,170L53.53202391118702,170L54.269854824935955,170L55.007685738684884,170L55.745516652433814,170L56.48334756618275,170L57.22117847993169,170L57.95900939368062,170L58.696840307429554,170L59.43467122117848,170L60.17250213492741,170L60.91033304867634,170L61.64816396242527,170L62.38599487617421,170L63.12382578992314,170L63.861656703672075,170L64.599487617421,170L65.33731853116994,170L66.07514944491888,169.9991L66.8129803586678,169.99865L67.55081127241674,169.99775L68.28864218616567,169.99775L69.0264730999146,169.97075L69.76430401366353,169.87085L70.50213492741247,169.76104999999998L71.23996584116139,169.5995L71.97779675491033,169.2494L72.71562766865927,168.7742L73.45345858240819,168.272L74.19128949615713,168.07444999999998L74.92912040990606,167.98085L75.666951323655,167.95565L76.37403928266438,167.8229L77.11187019641332,167.66945L77.84970111016226,167.48855L78.58753202391118,167.39675L79.32536293766012,167.2451L80.06319385140904,167.23385L80.80102476515799,167.21945L81.53885567890691,167.19875L82.27668659265585,167.15240000000003L83.01451750640479,166.80544999999998L83.75234842015372,166.71455L84.49017933390266,166.5746L85.22801024765157,166.55435L85.9658411614005,166.54175L86.70367207514944,166.5089L87.44150298889838,166.44095000000002L88.17933390264731,166.4108L88.91716481639625,166.29289999999997L89.65499573014517,166.02559999999997L90.39282664389411,165.99455L91.13065755764303,165.977L91.86848847139197,165.85639999999998L92.6063193851409,165.6026L93.34415029888984,165.35870000000003L94.08198121263877,164.57930000000002L94.81981212638769,163.9637L95.55764304013664,163.6856L96.29547395388556,163.54925L97.0333048676345,163.2995L97.77113578138344,163.2968L98.50896669513237,163.2959L99.24679760888131,163.29545L99.98462852263022,163.29094999999998L100.72245943637915,163.29094999999998L101.46029035012809,163.29094999999998L102.19812126387703,163.28825L102.93595217762598,163.28735L103.67378309137489,163.28735L104.41161400512382,163.2869L105.14944491887276,163.2869L105.88727583262168,163.28465L106.62510674637062,163.28465L107.36293766011956,163.2752L108.1007685738685,163.2284L108.83859948761742,163.17575L109.57643040136635,163.07134999999997L110.31426131511529,162.9971L111.05209222886423,162.98135L111.78992314261315,162.92329999999998L112.52775405636208,162.86075000000002L113.26558497011102,162.82745L114.00341588385993,162.7604L114.74124679760887,162.71269999999998L115.47907771135782,162.63170000000002L116.21690862510675,162.58625L116.95473953885568,162.56824999999998L117.69257045260461,162.5309L118.43040136635355,162.39724999999999L119.16823228010249,162.29465L119.9060631938514,162.20465L120.64389410760035,162.16235L121.38172502134928,162.15290000000002L122.1195559350982,162.10115000000002L122.85738684884714,162.0728L123.59521776259606,162.0287L124.333048676345,162.01024999999998L125.07087959009392,161.95715L125.80871050384287,161.9324L126.54654141759181,161.9126L127.28437233134073,161.89865L128.02220324508966,161.8703L128.7600341588386,161.83925L129.49786507258753,161.7848L130.23569598633645,161.72045L130.9735269000854,161.6516L131.71135781383433,161.63494999999998L132.44918872758328,161.5904L133.1870196413322,161.5859L133.92485055508112,161.56025L134.66268146883007,161.5229L135.400512382579,161.49769999999998L136.13834329632795,161.4347L136.87617421007684,161.41129999999998L137.6140051238258,161.40275L138.3518360375747,161.37935L139.08966695132364,161.36495L139.8274978650726,161.32715L140.56532877882154,161.29385L141.30315969257046,161.24705L142.04099060631938,161.23625L142.77882152006833,161.1926L143.51665243381726,161.15795L144.25448334756618,161.14129999999997L144.99231426131513,161.12015L145.73014517506408,161.08010000000002L146.46797608881297,161.03555L147.2058070025619,161.02115L147.94363791631085,161.01665L148.68146883005977,160.9928L149.4192997438087,160.97885L150.15713065755764,160.96444999999997L150.8949615713066,160.93565L151.6327924850555,160.90775L152.37062339880444,160.8938L153.1084543125534,160.86544999999998L153.8462852263023,160.85014999999999L154.58411614005124,160.84339999999997L155.3219470538002,160.82584999999997L156.0597779675491,160.7588L156.797608881298,160.7336L157.53543979504695,160.7282L158.2732707087959,160.7282L159.01110162254483,160.71964999999997L159.74893253629375,160.70165L160.4867634500427,160.68095L161.22459436379162,160.66565L161.96242527754055,160.6364L162.7002561912895,160.62515000000002L163.43808710503845,160.61975L164.17591801878737,160.6085L164.9137489325363,160.60490000000001L165.65157984628522,160.59949999999998L166.38941076003414,160.59365L167.1272416737831,160.5788L167.865072587532,160.57744999999997L168.60290350128096,160.5644L169.34073441502989,160.50275000000002L170.0785653287788,160.4825L170.81639624252776,160.47574999999998L171.55422715627668,160.45685L172.29205807002563,160.4024L173.02988898377455,160.39385000000001L173.7677198975235,160.39115L174.50555081127243,160.38125L175.24338172502135,160.34975L175.98121263877027,160.3367L176.7190435525192,160.32229999999998L177.45687446626815,160.3007L178.19470538001707,160.29665L178.932536293766,160.29575L179.67036720751494,160.2881L180.4081981212639,160.2791L181.14602903501282,160.26875L181.88385994876174,160.24535L182.6216908625107,160.2197L183.3595217762596,160.2152L184.09735269000853,160.20979999999997L184.83518360375749,160.19405L185.5730145175064,160.18505L186.31084543125533,160.17695L187.04867634500425,160.16795L187.7865072587532,160.14095L188.52433817250213,160.13735L189.26216908625105,160.13420000000002L190,160.12564999999998L190,170L189.26216908625105,170L188.52433817250213,170L187.7865072587532,170L187.04867634500425,170L186.31084543125533,170L185.5730145175064,170L184.83518360375749,170L184.09735269000853,170L183.3595217762596,170L182.6216908625107,170L181.88385994876174,170L181.14602903501282,170L180.4081981212639,170L179.67036720751494,170L178.932536293766,170L178.19470538001707,170L177.45687446626815,170L176.7190435525192,170L175.98121263877027,170L175.24338172502135,170L174.50555081127243,170L173.7677198975235,170L173.02988898377455,170L172.29205807002563,170L171.55422715627668,170L170.81639624252776,170L170.0785653287788,170L169.34073441502989,170L168.60290350128096,170L167.865072587532,170L167.1272416737831,170L166.38941076003414,170L165.65157984628522,170L164.9137489325363,170L164.17591801878737,170L163.43808710503845,170L162.7002561912895,170L161.96242527754055,170L161.22459436379162,170L160.4867634500427,170L159.74893253629375,170L159.01110162254483,170L158.2732707087959,170L157.53543979504695,170L156.797608881298,170L156.0597779675491,170L155.3219470538002,170L154.58411614005124,170L153.8462852263023,170L153.1084543125534,170L152.37062339880444,170L151.6327924850555,170L150.8949615713066,170L150.15713065755764,170L149.4192997438087,170L148.68146883005977,170L147.94363791631085,170L147.2058070025619,170L146.46797608881297,170L145.73014517506408,170L144.99231426131513,170L144.25448334756618,170L143.51665243381726,170L142.77882152006833,170L142.04099060631938,170L141.30315969257046,170L140.56532877882154,170L139.8274978650726,170L139.08966695132364,170L138.3518360375747,170L137.6140051238258,170L136.87617421007684,170L136.13834329632795,170L135.400512382579,170L134.66268146883007,170L133.92485055508112,170L133.1870196413322,170L132.44918872758328,170L131.71135781383433,170L130.9735269000854,170L130.23569598633645,170L129.49786507258753,170L128.7600341588386,170L128.02220324508966,170L127.28437233134073,170L126.54654141759181,170L125.80871050384287,170L125.07087959009392,170L124.333048676345,170L123.59521776259606,170L122.85738684884714,170L122.1195559350982,170L121.38172502134928,170L120.64389410760035,170L119.9060631938514,170L119.16823228010249,170L118.43040136635355,170L117.69257045260461,170L116.95473953885568,170L116.21690862510675,170L115.47907771135782,170L114.74124679760887,170L114.00341588385993,170L113.26558497011102,170L112.52775405636208,170L111.78992314261315,170L111.05209222886423,170L110.31426131511529,170L109.57643040136635,170L108.83859948761742,170L108.1007685738685,170L107.36293766011956,170L106.62510674637062,170L105.88727583262168,170L105.14944491887276,170L104.41161400512382,170L103.67378309137489,170L102.93595217762598,170L102.19812126387703,170L101.46029035012809,170L100.72245943637915,170L99.98462852263022,170L99.24679760888131,170L98.50896669513237,170L97.77113578138344,170L97.0333048676345,170L96.29547395388556,170L95.55764304013664,170L94.81981212638769,170L94.08198121263877,170L93.34415029888984,170L92.6063193851409,170L91.86848847139197,170L91.13065755764303,170L90.39282664389411,170L89.65499573014517,170L88.91716481639625,170L88.17933390264731,170L87.44150298889838,170L86.70367207514944,170L85.9658411614005,170L85.22801024765157,170L84.49017933390266,170L83.75234842015372,170L83.01451750640479,170L82.27668659265585,170L81.53885567890691,170L80.80102476515799,170L80.06319385140904,170L79.32536293766012,170L78.58753202391118,170L77.84970111016226,170L77.11187019641332,170L76.37403928266438,170L75.666951323655,170L74.92912040990606,170L74.19128949615713,170L73.45345858240819,170L72.71562766865927,170L71.97779675491033,170L71.23996584116139,170L70.50213492741247,170L69.76430401366353,170L69.0264730999146,170L68.28864218616567,170L67.55081127241674,170L66.8129803586678,170L66.07514944491888,170L65.33731853116994,170L64.599487617421,170L63.861656703672075,170L63.12382578992314,170L62.38599487617421,170L61.64816396242527,170L60.91033304867634,170L60.17250213492741,170L59.43467122117848,170L58.696840307429554,170L57.95900939368062,170L57.22117847993169,170L56.48334756618275,170L55.745516652433814,170L55.007685738684884,170L54.269854824935955,170L53.53202391118702,170L52.79419299743809,170L52.05636208368916,170L51.31853116994022,170L50.58070025619129,170L49.842869342442356,170L49.10503842869342,170L48.36720751494449,170L47.62937660119557,170L46.89154568744663,170L46.15371477369769,170L45.415883859948764,170L44.67805294619983,170L43.9402220324509,170L43.20239111870197,170L42.46456020495303,170L41.726729291204094,170L40.98889837745517,170L40.251067463706235,170L39.5132365499573,170L38.77540563620837,170L38.03757472245944,170L37.2997438087105,170L36.56191289496157,170L35.824081981212636,170L35.08625106746371,170L34.34842015371478,170L33.61058923996585,170L32.87275832621691,170L32.134927412467974,170L31.397096498719044,170L30.65926558497011,170L29.921434671221178,170L29.183603757472248,170L28.445772843723315,170L27.707941929974382,170L26.97011101622545,170L26.232280102476516,170L25.494449188727586,170L24.75661827497865,170L24.01878736122972,170L23.280956447480783,170L22.543125533731853,170L21.80529461998292,170L21.067463706233987,170L20.329632792485057,170L19.591801878736124,170L18.85397096498719,170L18.116140051238258,170L17.378309137489325,170L16.640478223740395,170L15.90264730999146,170L15.164816396242529,170L14.426985482493595,170L13.689154568744662,170L12.95132365499573,170L12.213492741246796,170L11.475661827497866,170L10.737830913748933,170L10,170Z" fill-opacity="0.4" fill="#76b7b2"></path></g><g></g></svg>