<svg width="100" height="275"><text x="50%" y="12" text-anchor="middle">% vaccinated</text><text x="50%" y="35" alignment-baseline="middle" text-anchor="middle">0%</text><text x="50%" y="247" alignment-baseline="middle" text-anchor="middle">100%</text><g><rect y="220" height="10" x="45" width="10" fill="rgb(165, 0, 38)"></rect><rect y="220" height="10" x="45" width="10" fill="rgb(165, 0, 38)"></rect><rect y="210.75" height="10" x="45" width="10" fill="rgb(190, 24, 39)"></rect><rect y="201.5" height="10" x="45" width="10" fill="rgb(212, 50, 44)"></rect><rect y="192.25" height="10" x="45" width="10" fill="rgb(229, 79, 54)"></rect><rect y="183" height="10" x="45" width="10" fill="rgb(241, 110, 67)"></rect><rect y="173.75" height="10" x="45" width="10" fill="rgb(248, 141, 82)"></rect><rect y="164.5" height="10" x="45" width="10" fill="rgb(252, 172, 99)"></rect><rect y="155.24999999999997" height="10" x="45" width="10" fill="rgb(253, 198, 118)"></rect><rect y="146" height="10" x="45" width="10" fill="rgb(254, 221, 141)"></rect><rect y="136.75" height="10" x="45" width="10" fill="rgb(254, 238, 163)"></rect><rect y="127.5" height="10" x="45" width="10" fill="rgb(249, 247, 174)"></rect><rect y="118.24999999999999" height="10" x="45" width="10" fill="rgb(235, 246, 163)"></rect><rect y="108.99999999999999" height="10" x="45" width="10" fill="rgb(215, 238, 142)"></rect><rect y="99.75" height="10" x="45" width="10" fill="rgb(191, 228, 123)"></rect><rect y="90.49999999999999" height="10" x="45" width="10" fill="rgb(164, 216, 110)"></rect><rect y="81.25" height="10" x="45" width="10" fill="rgb(133, 203, 103)"></rect><rect y="72" height="10" x="45" width="10" fill="rgb(100, 188, 97)"></rect><rect y="62.749999999999986" height="10" x="45" width="10" fill="rgb(65, 170, 89)"></rect><rect y="53.5" height="10" x="45" width="10" fill="rgb(34, 150, 79)"></rect><rect y="44.249999999999986" height="10" x="45" width="10" fill="rgb(14, 128, 67)"></rect></g></svg>