<svg width="200" height="200"><g transform="translate(0, 170)" fill="none" font-size="10" font-family="sans-serif" text-anchor="middle" style="color: rgb(173, 173, 173); font-size: 12pt;"><path class="domain" stroke="currentColor" d="M10,6V0H190V6"></path><g class="tick" opacity="1" transform="translate(22.543125533731853,0)"><line stroke="currentColor" y2="6"></line><text fill="currentColor" y="9" dy="0.71em">Jan'21</text></g><g class="tick" opacity="1" transform="translate(88.91716481639625,0)"><line stroke="currentColor" y2="6"></line><text fill="currentColor" y="9" dy="0.71em">Apr</text></g><g class="tick" opacity="1" transform="translate(156.0597779675491,0)"><line stroke="currentColor" y2="6"></line><text fill="currentColor" y="9" dy="0.71em">Jul</text></g></g><g><line x1="10" x2="190" y1="125.00000000000001" y2="125.00000000000001" stroke="#d3d3d3" stroke-width="0.5px"></line><text fill="#adadad" x="10" y="120.00000000000001" style="font-size: 10pt;">100k</text><line x1="10" x2="190" y1="80" y2="80" stroke="#d3d3d3" stroke-width="0.5px"></line><text fill="#adadad" x="10" y="75" style="font-size: 10pt;">200k</text><line x1="10" x2="190" y1="35" y2="35" stroke="#d3d3d3" stroke-width="0.5px"></line><text fill="#adadad" x="10" y="30" style="font-size: 10pt;">300k</text></g><g><path d="M10,170L10.737830913748933,170L11.475661827497866,170L12.213492741246796,169.99955L12.95132365499573,169.99955L13.689154568744662,169.99955L14.426985482493595,169.99865L15.164816396242529,169.99775L15.90264730999146,169.9442L16.640478223740395,169.92215L17.378309137489325,169.92215L18.116140051238258,169.80514999999997L18.85397096498719,169.77724999999998L19.591801878736124,169.7174L20.329632792485057,169.62605L21.067463706233987,169.54235L21.80529461998292,169.48475L22.543125533731853,169.48205000000002L23.280956447480783,169.3169L24.01878736122972,169.3133L24.75661827497865,169.2854L25.494449188727586,169.11575L26.232280102476516,168.9425L26.97011101622545,168.79760000000002L27.707941929974382,168.63649999999998L28.445772843723315,168.51274999999998L29.183603757472248,168.5069L29.921434671221178,168.43085L30.65926558497011,168.07264999999998L31.397096498719044,167.64470000000003L32.134927412467974,167.13934999999998L32.87275832621691,166.51565L33.61058923996585,166.03235L34.34842015371478,165.986L35.08625106746371,165.65795L35.824081981212636,165.1661L36.56191289496157,164.45555000000002L37.2997438087105,163.87640000000002L38.03757472245944,163.35485L38.77540563620837,163.0691L39.5132365499573,163.02455L40.251067463706235,162.68795L40.98889837745517,161.97424999999998L41.726729291204094,161.62685L42.46456020495303,161.3537L43.20239111870197,160.982L43.9402220324509,160.7597L44.67805294619983,160.6463L45.415883859948764,160.45145L46.15371477369769,159.94205L46.89154568744663,159.54245L47.62937660119557,159.1217L48.36720751494449,158.73785L49.10503842869342,158.34365L49.842869342442356,158.32385000000002L50.58070025619129,158.0318L51.31853116994022,157.06609999999998L52.05636208368916,156.49055L52.79419299743809,155.85245L53.53202391118702,154.78415L54.269854824935955,154.376L55.007685738684884,154.24145000000001L55.745516652433814,153.95525L56.48334756618275,153.17945L57.22117847993169,152.67184999999998L57.95900939368062,152.39555000000001L58.696840307429554,151.964L59.43467122117848,151.60264999999998L60.17250213492741,151.58915L60.91033304867634,151.26515L61.64816396242527,150.24679999999998L62.38599487617421,149.2451L63.12382578992314,148.517L63.861656703672075,147.82175L64.599487617421,147.2921L65.33731853116994,146.8709L66.07514944491888,146.32009999999997L66.8129803586678,145.27700000000002L67.55081127241674,144.10745L68.28864218616567,143.576L69.0264730999146,142.7993L69.76430401366353,142.1081L70.50213492741247,141.95015L71.23996584116139,141.5573L71.97779675491033,140.79725L72.71562766865927,140.26760000000002L73.45345858240819,139.61464999999998L74.19128949615713,139.08455L74.92912040990606,138.46625L75.666951323655,138.30065L76.37403928266438,137.79215L77.11187019641332,136.79585000000003L77.84970111016226,135.917L78.58753202391118,134.8892L79.32536293766012,134.26774999999998L80.06319385140904,133.64810000000003L80.80102476515799,133.30204999999998L81.53885567890691,132.93439999999998L82.27668659265585,131.98265L83.01451750640479,131.2937L83.75234842015372,130.33970000000002L84.49017933390266,129.62824999999998L85.22801024765157,128.8547L85.9658411614005,128.3543L86.70367207514944,127.49929999999999L87.44150298889838,126.0791L88.17933390264731,124.6814L88.91716481639625,123.9659L89.65499573014517,123.2909L90.39282664389411,122.55245L91.13065755764303,122.35985000000002L91.86848847139197,121.93955L92.6063193851409,120.98825000000001L93.34415029888984,119.9933L94.08198121263877,119.69854999999998L94.81981212638769,119.20175L95.55764304013664,118.55149999999999L96.29547395388556,118.3634L97.0333048676345,117.90125L97.77113578138344,116.91214999999998L98.50896669513237,115.83395L99.24679760888131,114.5294L99.98462852263022,113.33555L100.72245943637915,112.66955L101.46029035012809,112.3694L102.19812126387703,111.9122L102.93595217762598,111.0239L103.67378309137489,110.1707L104.41161400512382,108.99755L105.14944491887276,108.20419999999999L105.88727583262168,107.4968L106.62510674637062,107.19754999999999L107.36293766011956,106.62514999999999L108.1007685738685,105.8498L108.83859948761742,104.96780000000001L109.57643040136635,104.40620000000001L110.31426131511529,103.90894999999999L111.05209222886423,103.37795L111.78992314261315,103.2236L112.52775405636208,102.95405000000001L113.26558497011102,102.24395L114.00341588385993,101.49425000000001L114.74124679760887,101.01769999999999L115.47907771135782,100.63835L116.21690862510675,100.17440000000002L116.95473953885568,99.92555L117.69257045260461,99.64429999999999L118.43040136635355,99.28205000000001L119.16823228010249,98.77625L119.9060631938514,98.36315L120.64389410760035,97.66385L121.38172502134928,97.2368L122.1195559350982,97.00864999999999L122.85738684884714,96.71615L123.59521776259606,96.44525L124.333048676345,96.101L125.07087959009392,95.79320000000001L125.80871050384287,95.3099L126.54654141759181,94.98365L127.28437233134073,94.8023L128.02220324508966,94.63804999999999L128.7600341588386,94.28885L129.49786507258753,93.75470000000001L130.23569598633645,93.47795L130.9735269000854,93.18365L131.71135781383433,92.93615L132.44918872758328,92.82995L133.1870196413322,92.81015L133.92485055508112,92.5901L134.66268146883007,92.4479L135.400512382579,92.24225000000001L136.13834329632795,91.94930000000001L136.87617421007684,91.655L137.6140051238258,91.46600000000001L138.3518360375747,91.33684999999998L139.08966695132364,91.16989999999998L139.8274978650726,91.05965L140.56532877882154,90.94895L141.30315969257046,90.6794L142.04099060631938,90.55835L142.77882152006833,90.51740000000001L143.51665243381726,90.3707L144.25448334756618,90.21050000000001L144.99231426131513,90.1043L145.73014517506408,89.99494999999999L146.46797608881297,89.8604L147.2058070025619,89.7947L147.94363791631085,89.72810000000001L148.68146883005977,89.63315L149.4192997438087,89.52425L150.15713065755764,89.441L150.8949615713066,89.37169999999999L151.6327924850555,89.24119999999999L152.37062339880444,89.18585000000002L153.1084543125534,89.15165000000002L153.8462852263023,89.09405000000001L154.58411614005124,89.01755L155.3219470538002,88.95005L156.0597779675491,88.89604999999999L156.797608881298,88.80425L157.53543979504695,88.75070000000001L158.2732707087959,88.7462L159.01110162254483,88.67689999999999L159.74893253629375,88.61930000000001L160.4867634500427,88.56215L161.22459436379162,88.51265000000001L161.96242527754055,88.43885L162.7002561912895,88.3997L163.43808710503845,88.37899999999999L164.17591801878737,88.30069999999998L164.9137489325363,88.244L165.65157984628522,88.1711L166.38941076003414,88.11125L167.1272416737831,88.0244L167.865072587532,87.97129999999999L168.60290350128096,87.9443L169.34073441502989,87.85025L170.0785653287788,87.76835L170.81639624252776,87.7031L171.55422715627668,87.6311L172.29205807002563,87.51859999999999L173.02988898377455,87.46865L173.7677198975235,87.43355L174.50555081127243,87.3359L175.24338172502135,87.23870000000001L175.98121263877027,87.16085000000001L176.7190435525192,87.09334999999999L177.45687446626815,86.97185L178.19470538001707,86.92009999999999L178.932536293766,86.87735L179.67036720751494,86.7689L180.4081981212639,86.68115L181.14602903501282,86.58935L181.88385994876174,86.51915L182.6216908625107,86.4206L183.3595217762596,86.35849999999999L184.09735269000853,86.3189L184.83518360375749,86.22305L185.5730145175064,86.13935000000001L186.31084543125533,86.06779999999999L187.04867634500425,85.98814999999999L187.7865072587532,85.84505L188.52433817250213,85.7582L189.26216908625105,85.7114L190,85.67945" stroke="#f28e2c" stroke-width="3" fill="none" stroke-opacity="1"></path><path d="M10,170L10.737830913748933,170L11.475661827497866,170L12.213492741246796,169.99955L12.95132365499573,169.99955L13.689154568744662,169.99955L14.426985482493595,169.99865L15.164816396242529,169.99775L15.90264730999146,169.9442L16.640478223740395,169.92215L17.378309137489325,169.92215L18.116140051238258,169.80514999999997L18.85397096498719,169.77724999999998L19.591801878736124,169.7174L20.329632792485057,169.62605L21.067463706233987,169.54235L21.80529461998292,169.48475L22.543125533731853,169.48205000000002L23.280956447480783,169.3169L24.01878736122972,169.3133L24.75661827497865,169.2854L25.494449188727586,169.11575L26.232280102476516,168.9425L26.97011101622545,168.79760000000002L27.707941929974382,168.63649999999998L28.445772843723315,168.51274999999998L29.183603757472248,168.5069L29.921434671221178,168.43085L30.65926558497011,168.07264999999998L31.397096498719044,167.64470000000003L32.134927412467974,167.13934999999998L32.87275832621691,166.51565L33.61058923996585,166.03235L34.34842015371478,165.986L35.08625106746371,165.65795L35.824081981212636,165.1661L36.56191289496157,164.45555000000002L37.2997438087105,163.87640000000002L38.03757472245944,163.35485L38.77540563620837,163.0691L39.5132365499573,163.02455L40.251067463706235,162.68795L40.98889837745517,161.97424999999998L41.726729291204094,161.62685L42.46456020495303,161.3537L43.20239111870197,160.982L43.9402220324509,160.7597L44.67805294619983,160.6463L45.415883859948764,160.45145L46.15371477369769,159.94205L46.89154568744663,159.54245L47.62937660119557,159.1217L48.36720751494449,158.73785L49.10503842869342,158.34365L49.842869342442356,158.32385000000002L50.58070025619129,158.0318L51.31853116994022,157.06609999999998L52.05636208368916,156.49055L52.79419299743809,155.85245L53.53202391118702,154.78415L54.269854824935955,154.376L55.007685738684884,154.24145000000001L55.745516652433814,153.95525L56.48334756618275,153.17945L57.22117847993169,152.67184999999998L57.95900939368062,152.39555000000001L58.696840307429554,151.964L59.43467122117848,151.60264999999998L60.17250213492741,151.58915L60.91033304867634,151.26515L61.64816396242527,150.24679999999998L62.38599487617421,149.2451L63.12382578992314,148.517L63.861656703672075,147.82175L64.599487617421,147.2921L65.33731853116994,146.8709L66.07514944491888,146.32009999999997L66.8129803586678,145.27700000000002L67.55081127241674,144.10745L68.28864218616567,143.576L69.0264730999146,142.7993L69.76430401366353,142.1081L70.50213492741247,141.95015L71.23996584116139,141.5573L71.97779675491033,140.79725L72.71562766865927,140.26760000000002L73.45345858240819,139.61464999999998L74.19128949615713,139.08455L74.92912040990606,138.46625L75.666951323655,138.30065L76.37403928266438,137.79215L77.11187019641332,136.79585000000003L77.84970111016226,135.917L78.58753202391118,134.8892L79.32536293766012,134.26774999999998L80.06319385140904,133.64810000000003L80.80102476515799,133.30204999999998L81.53885567890691,132.93439999999998L82.27668659265585,131.98265L83.01451750640479,131.2937L83.75234842015372,130.33970000000002L84.49017933390266,129.62824999999998L85.22801024765157,128.8547L85.9658411614005,128.3543L86.70367207514944,127.49929999999999L87.44150298889838,126.0791L88.17933390264731,124.6814L88.91716481639625,123.9659L89.65499573014517,123.2909L90.39282664389411,122.55245L91.13065755764303,122.35985000000002L91.86848847139197,121.93955L92.6063193851409,120.98825000000001L93.34415029888984,119.9933L94.08198121263877,119.69854999999998L94.81981212638769,119.20175L95.55764304013664,118.55149999999999L96.29547395388556,118.3634L97.0333048676345,117.90125L97.77113578138344,116.91214999999998L98.50896669513237,115.83395L99.24679760888131,114.5294L99.98462852263022,113.33555L100.72245943637915,112.66955L101.46029035012809,112.3694L102.19812126387703,111.9122L102.93595217762598,111.0239L103.67378309137489,110.1707L104.41161400512382,108.99755L105.14944491887276,108.20419999999999L105.88727583262168,107.4968L106.62510674637062,107.19754999999999L107.36293766011956,106.62514999999999L108.1007685738685,105.8498L108.83859948761742,104.96780000000001L109.57643040136635,104.40620000000001L110.31426131511529,103.90894999999999L111.05209222886423,103.37795L111.78992314261315,103.2236L112.52775405636208,102.95405000000001L113.26558497011102,102.24395L114.00341588385993,101.49425000000001L114.74124679760887,101.01769999999999L115.47907771135782,100.63835L116.21690862510675,100.17440000000002L116.95473953885568,99.92555L117.69257045260461,99.64429999999999L118.43040136635355,99.28205000000001L119.16823228010249,98.77625L119.9060631938514,98.36315L120.64389410760035,97.66385L121.38172502134928,97.2368L122.1195559350982,97.00864999999999L122.85738684884714,96.71615L123.59521776259606,96.44525L124.333048676345,96.101L125.07087959009392,95.79320000000001L125.80871050384287,95.3099L126.54654141759181,94.98365L127.28437233134073,94.8023L128.02220324508966,94.63804999999999L128.7600341588386,94.28885L129.49786507258753,93.75470000000001L130.23569598633645,93.47795L130.9735269000854,93.18365L131.71135781383433,92.93615L132.44918872758328,92.82995L133.1870196413322,92.81015L133.92485055508112,92.5901L134.66268146883007,92.4479L135.400512382579,92.24225000000001L136.13834329632795,91.94930000000001L136.87617421007684,91.655L137.6140051238258,91.46600000000001L138.3518360375747,91.33684999999998L139.08966695132364,91.16989999999998L139.8274978650726,91.05965L140.56532877882154,90.94895L141.30315969257046,90.6794L142.04099060631938,90.55835L142.77882152006833,90.51740000000001L143.51665243381726,90.3707L144.25448334756618,90.21050000000001L144.99231426131513,90.1043L145.73014517506408,89.99494999999999L146.46797608881297,89.8604L147.2058070025619,89.7947L147.94363791631085,89.72810000000001L148.68146883005977,89.63315L149.4192997438087,89.52425L150.15713065755764,89.441L150.8949615713066,89.37169999999999L151.6327924850555,89.24119999999999L152.37062339880444,89.18585000000002L153.1084543125534,89.15165000000002L153.8462852263023,89.09405000000001L154.58411614005124,89.01755L155.3219470538002,88.95005L156.0597779675491,88.89604999999999L156.797608881298,88.80425L157.53543979504695,88.75070000000001L158.2732707087959,88.7462L159.01110162254483,88.67689999999999L159.74893253629375,88.61930000000001L160.4867634500427,88.56215L161.22459436379162,88.51265000000001L161.96242527754055,88.43885L162.7002561912895,88.3997L163.43808710503845,88.37899999999999L164.17591801878737,88.30069999999998L164.9137489325363,88.244L165.65157984628522,88.1711L166.38941076003414,88.11125L167.1272416737831,88.0244L167.865072587532,87.97129999999999L168.60290350128096,87.9443L169.34073441502989,87.85025L170.0785653287788,87.76835L170.81639624252776,87.7031L171.55422715627668,87.6311L172.29205807002563,87.51859999999999L173.02988898377455,87.46865L173.7677198975235,87.43355L174.50555081127243,87.3359L175.24338172502135,87.23870000000001L175.98121263877027,87.16085000000001L176.7190435525192,87.09334999999999L177.45687446626815,86.97185L178.19470538001707,86.92009999999999L178.932536293766,86.87735L179.67036720751494,86.7689L180.4081981212639,86.68115L181.14602903501282,86.58935L181.88385994876174,86.51915L182.6216908625107,86.4206L183.3595217762596,86.35849999999999L184.09735269000853,86.3189L184.83518360375749,86.22305L185.5730145175064,86.13935000000001L186.31084543125533,86.06779999999999L187.04867634500425,85.98814999999999L187.7865072587532,85.84505L188.52433817250213,85.7582L189.26216908625105,85.7114L190,85.67945L190,170L189.26216908625105,170L188.52433817250213,170L187.7865072587532,170L187.04867634500425,170L186.31084543125533,170L185.5730145175064,170L184.83518360375749,170L184.09735269000853,170L183.3595217762596,170L182.6216908625107,170L181.88385994876174,170L181.14602903501282,170L180.4081981212639,170L179.67036720751494,170L178.932536293766,170L178.19470538001707,170L177.45687446626815,170L176.7190435525192,170L175.98121263877027,170L175.24338172502135,170L174.50555081127243,170L173.7677198975235,170L173.02988898377455,170L172.29205807002563,170L171.55422715627668,170L170.81639624252776,170L170.0785653287788,170L169.34073441502989,170L168.60290350128096,170L167.865072587532,170L167.1272416737831,170L166.38941076003414,170L165.65157984628522,170L164.9137489325363,170L164.17591801878737,170L163.43808710503845,170L162.7002561912895,170L161.96242527754055,170L161.22459436379162,170L160.4867634500427,170L159.74893253629375,170L159.01110162254483,170L158.2732707087959,170L157.53543979504695,170L156.797608881298,170L156.0597779675491,170L155.3219470538002,170L154.58411614005124,170L153.8462852263023,170L153.1084543125534,170L152.37062339880444,170L151.6327924850555,170L150.8949615713066,170L150.15713065755764,170L149.4192997438087,170L148.68146883005977,170L147.94363791631085,170L147.2058070025619,170L146.46797608881297,170L145.73014517506408,170L144.99231426131513,170L144.25448334756618,170L143.51665243381726,170L142.77882152006833,170L142.04099060631938,170L141.30315969257046,170L140.56532877882154,170L139.8274978650726,170L139.08966695132364,170L138.3518360375747,170L137.6140051238258,170L136.87617421007684,170L136.13834329632795,170L135.400512382579,170L134.66268146883007,170L133.92485055508112,170L133.1870196413322,170L132.44918872758328,170L131.71135781383433,170L130.9735269000854,170L130.23569598633645,170L129.49786507258753,170L128.7600341588386,170L128.02220324508966,170L127.28437233134073,170L126.54654141759181,170L125.80871050384287,170L125.07087959009392,170L124.333048676345,170L123.59521776259606,170L122.85738684884714,170L122.1195559350982,170L121.38172502134928,170L120.64389410760035,170L119.9060631938514,170L119.16823228010249,170L118.43040136635355,170L117.69257045260461,170L116.95473953885568,170L116.21690862510675,170L115.47907771135782,170L114.74124679760887,170L114.00341588385993,170L113.26558497011102,170L112.52775405636208,170L111.78992314261315,170L111.05209222886423,170L110.31426131511529,170L109.57643040136635,170L108.83859948761742,170L108.1007685738685,170L107.36293766011956,170L106.62510674637062,170L105.88727583262168,170L105.14944491887276,170L104.41161400512382,170L103.67378309137489,170L102.93595217762598,170L102.19812126387703,170L101.46029035012809,170L100.72245943637915,170L99.98462852263022,170L99.24679760888131,170L98.50896669513237,170L97.77113578138344,170L97.0333048676345,170L96.29547395388556,170L95.55764304013664,170L94.81981212638769,170L94.08198121263877,170L93.34415029888984,170L92.6063193851409,170L91.86848847139197,170L91.13065755764303,170L90.39282664389411,170L89.65499573014517,170L88.91716481639625,170L88.17933390264731,170L87.44150298889838,170L86.70367207514944,170L85.9658411614005,170L85.22801024765157,170L84.49017933390266,170L83.75234842015372,170L83.01451750640479,170L82.27668659265585,170L81.53885567890691,170L80.80102476515799,170L80.06319385140904,170L79.32536293766012,170L78.58753202391118,170L77.84970111016226,170L77.11187019641332,170L76.37403928266438,170L75.666951323655,170L74.92912040990606,170L74.19128949615713,170L73.45345858240819,170L72.71562766865927,170L71.97779675491033,170L71.23996584116139,170L70.50213492741247,170L69.76430401366353,170L69.0264730999146,170L68.28864218616567,170L67.55081127241674,170L66.8129803586678,170L66.07514944491888,170L65.33731853116994,170L64.599487617421,170L63.861656703672075,170L63.12382578992314,170L62.38599487617421,170L61.64816396242527,170L60.91033304867634,170L60.17250213492741,170L59.43467122117848,170L58.696840307429554,170L57.95900939368062,170L57.22117847993169,170L56.48334756618275,170L55.745516652433814,170L55.007685738684884,170L54.269854824935955,170L53.53202391118702,170L52.79419299743809,170L52.05636208368916,170L51.31853116994022,170L50.58070025619129,170L49.842869342442356,170L49.10503842869342,170L48.36720751494449,170L47.62937660119557,170L46.89154568744663,170L46.15371477369769,170L45.415883859948764,170L44.67805294619983,170L43.9402220324509,170L43.20239111870197,170L42.46456020495303,170L41.726729291204094,170L40.98889837745517,170L40.251067463706235,170L39.5132365499573,170L38.77540563620837,170L38.03757472245944,170L37.2997438087105,170L36.56191289496157,170L35.824081981212636,170L35.08625106746371,170L34.34842015371478,170L33.61058923996585,170L32.87275832621691,170L32.134927412467974,170L31.397096498719044,170L30.65926558497011,170L29.921434671221178,170L29.183603757472248,170L28.445772843723315,170L27.707941929974382,170L26.97011101622545,170L26.232280102476516,170L25.494449188727586,170L24.75661827497865,170L24.01878736122972,170L23.280956447480783,170L22.543125533731853,170L21.80529461998292,170L21.067463706233987,170L20.329632792485057,170L19.591801878736124,170L18.85397096498719,170L18.116140051238258,170L17.378309137489325,170L16.640478223740395,170L15.90264730999146,170L15.164816396242529,170L14.426985482493595,170L13.689154568744662,170L12.95132365499573,170L12.213492741246796,170L11.475661827497866,170L10.737830913748933,170L10,170Z" fill-opacity="0.4" fill="#f28e2c"></path></g><g></g></svg>