<svg id="vaccinePlot" style="align-self: center" width="400" height="350"><g transform="translate(0, 315)" style="font-family: &quot;Helvetica Neue&quot;, Helvetica, Arial, sans-serif; font-size: 12pt;"><g fill="none" font-size="10" font-family="sans-serif" text-anchor="middle" style="color: rgb(173, 173, 173); font-size: 12pt;"><path class="domain" stroke="currentColor" d="M50,6V0H350V6"></path><g class="tick" opacity="1" transform="translate(70.90520922288643,0)"><line stroke="currentColor" y2="6"></line><text fill="currentColor" y="9" dy="0.71em">Jan'21</text></g><g class="tick" opacity="1" transform="translate(181.5286080273271,0)"><line stroke="currentColor" y2="6"></line><text fill="currentColor" y="9" dy="0.71em">Apr</text></g><g class="tick" opacity="1" transform="translate(293.43296327924855,0)"><line stroke="currentColor" y2="6"></line><text fill="currentColor" y="9" dy="0.71em">Jul</text></g></g></g><g><line x1="50" x2="350" y1="263.3333333333333" y2="263.3333333333333" stroke="#d3d3d3" stroke-width="0.5px"></line><text fill="#adadad" x="50" y="258.3333333333333">10%</text><line x1="50" x2="350" y1="216.66666666666666" y2="216.66666666666666" stroke="#d3d3d3" stroke-width="0.5px"></line><text fill="#adadad" x="50" y="211.66666666666666">20%</text><line x1="50" x2="350" y1="170" y2="170" stroke="#d3d3d3" stroke-width="0.5px"></line><text fill="#adadad" x="50" y="165">30%</text><line x1="50" x2="350" y1="123.33333333333331" y2="123.33333333333331" stroke="#d3d3d3" stroke-width="0.5px"></line><line x1="50" x2="350" y1="76.66666666666666" y2="76.66666666666666" stroke="#d3d3d3" stroke-width="0.5px"></line><text fill="#adadad" x="50" y="71.66666666666666">50%</text><line x1="50" x2="350" y1="30" y2="30" stroke="#d3d3d3" stroke-width="0.5px"></line><text fill="#adadad" x="50" y="25">60% of Total County Population</text></g><g><path d="M50,309.99795488923905L51.229718189581554,309.99590977847794L52.45943637916311,309.8292332514559L53.68915456874467,309.42430132077635L54.918872758326216,309.08890315597114L56.14859094790777,308.8496251969332L57.378309137489325,308.1716709796592L58.608027327070886,307.9088742468697L59.83774551665243,307.5734760820645L61.067463706233994,307.4824686531996L62.29718189581554,307.4824686531996L63.52690008539709,307.1440028222529L64.75661827497865,307.0795818332811L65.98633646456021,306.70941678553874L67.21605465414176,306.1296278847931L68.44577284372332,305.53041043181787L69.67549103330487,305.2829520297359L70.90520922288643,305.15513260717296L72.13492741246797,304.53955426810967L73.36464560204954,304.51603549435805L74.59436379163108,304.20517865868493L75.82408198121264,303.4587132309171L77.05380017079419,302.890172439357L78.28351836037575,302.39627819057364L79.5132365499573,301.67537664731844L80.74295473953885,301.3471363701767L81.97267292912042,301.30112137805406L83.20239111870197,300.6661144867612L84.43210930828351,299.3572435997163L85.66182749786506,298.2355003473036L86.89154568744664,296.9992308922745L88.12126387702818,295.22918752862245L89.35098206660973,293.9632639675587L90.58070025619129,293.83646710037624L91.81041844577284,292.8507237135706L93.0401366353544,291.4416423992363L94.26985482493595,289.58365927286087L95.4995730145175,286.45873003004124L96.72929120409906,283.6119358507186L97.95900939368062,282.3582829542209L99.18872758326216,281.4891108807927L100.41844577284373,280.45735250186436L101.64816396242529,278.7067376904418L102.87788215200683,277.7782574049443L104.10760034158838,277.0757618585382L105.33731853116996,276.06445458722L106.5670367207515,274.5480049579328L107.79675491033305,273.09290865147585L109.02647309991461,272.5233453045352L110.25619128949616,271.4486395996257L111.48590947907772,269.89231031049894L112.71562766865927,267.3093354193463L113.94534585824083,264.9809768179391L115.17506404782236,264.1700904011996L116.40478223740394,263.890932782322L117.63450042698548,263.210933454287L118.86421861656703,262.0585135404592L120.0939368061486,261.30080000350597L121.32365499573015,260.64022922770044L122.5533731853117,259.84672625242945L123.78309137489325,259.2659147963033L125.0128095644748,258.9663060698157L126.24252775405637,258.4560509349443L127.47224594363792,257.708562951796L128.70196413321946,257.1717213770315L129.931682322801,255.59903120181664L131.16140051238258,253.20829672219872L132.39111870196413,251.408599252512L133.62083689154568,251.34213315277927L134.85055508112725,251.05070486933568L136.0802732707088,250.60180305729455L137.30999146029035,249.83488652191667L138.5397096498719,248.76120337238766L139.76942783945344,246.63224307017867L140.999146029035,245.67001845712463L142.2288642186166,244.68734273646047L143.45858240819814,243.4705018336609L144.68830059777966,241.17384244904935L145.91801878736123,236.89751584778242L147.14773697694278,233.83905270469552L148.37745516652433,230.42678539995427L149.6071733561059,228.44507307253787L150.83689154568745,227.76507374450284L152.066609735269,226.5727741708354L153.29632792485057,225.02564788013314L154.52604611443212,222.86907858265062L155.75576430401367,219.41590906268922L156.9854824935952,216.72249819044217L158.21520068317676,213.73970414551255L159.44491887275834,213.15071224634235L160.62339880444065,211.55245818661487L161.8531169940222,208.39787483776064L163.08283518360375,205.59402798441917L164.31255337318532,201.254302949561L165.54227156276687,197.80215598498012L166.77198975234842,196.3777363399383L168.00170794193,195.47277482819246L169.2314261315115,193.16998011129783L170.4611443210931,189.28222455462236L171.69086251067466,185.51001775594378L172.9205807002562,182.5333590432972L174.15029888983776,180.05161713481442L175.38001707941928,178.4012127506813L176.60973526900085,176.46347030462653L177.83945345858243,173.1043758796715L179.06917164816397,168.3546061372313L180.29888983774552,163.20808490715564L181.5286080273271,158.6853224591872L182.7583262169086,154.65543170462172L183.9880444064902,152.01621626754138L185.21776259607174,151.47119424973286L186.44748078565328,148.962865901357L187.67719897523486,144.95035858826003L188.90691716481638,140.20570162272236L190.13663535439795,134.92522563780062L191.36635354397953,130.1662528969359L192.59607173356108,124.86225813826263L193.82578992314262,122.6617189594184L195.05550811272417,120.15134550028154L196.28522630230572,117.46202484955654L197.5149444918873,113.12434492545935L198.74466268146884,109.2744239178625L199.97438087105039,104.73939080532807L201.2040990606319,100.56225207597002L202.43381725021348,100.17572614213958L203.66353543979506,99.1173813233181L204.8932536293766,97.42607472396483L206.12297181895815,95.60797125742904L207.35269000853972,94.0669802990098L208.58240819812127,92.00346354115311L209.8121263877028,90.31011183103881L211.04184457728434,89.79781158540638L212.27156276686594,89.18530091248459L213.50128095644752,87.85700147321015L214.730999146029,86.28431129799527L215.96071733561058,84.53676415271427L217.19043552519213,82.90987854233269L218.4201537147737,81.94151859699559L219.64987190435525,81.48750400805189L220.87959009393683,80.89135422121818L222.10930828351837,79.62543066015442L223.3390264730999,78.8104540218929L224.56874466268144,77.68768821409972L225.79846285226301,76.4780051989637L227.02818104184462,75.4339761554693L228.2578992314261,74.91656313293437L229.48761742100768,74.43800721485862L230.71733561058923,73.67722601176374L231.9470538001708,72.91030947638588L233.17677198975235,71.44294250536295L234.4064901793339,69.68619236165739L235.63620836891548,67.76685591245172L236.865926558497,67.09708213822174L238.09564474807854,66.15019585587518L239.32536293766012,65.04583604493106L240.55508112724166,64.17359630536133L241.7847993168232,63.152063480238L243.0145175064048,61.806380599494986L244.24423569598633,60.31958507624242L245.47395388556788,59.85329982273273L246.70367207514946,59.287826697314074L247.933390264731,58.73973701336409L249.16310845431258,57.763196624982896L250.39282664389407,56.77234046127472L251.62254483347564,55.99008559518927L252.85226302305722,55.57799577684625L254.08198121263877,55.2865674934027L255.3116994022203,55.251800610465565L256.54141759180186,54.73950036483314L257.77113578138346,54.2210647869177L259.00085397096495,53.53186246045817L260.23057216054656,52.89583301378477L261.4602903501281,52.35490121749825L262.69000853970965,52.10335259389433L263.9197267292912,51.74443565533744L265.14944491887275,51.414150267434735L266.3791631084543,51.00001533833069L267.6088812980359,50.3915948869309L268.8385994876174,49.88542997358158L270.068317677199,49.62365579617256L271.29803586678054,49.39664850170071L272.5277540563621,48.97535568493314L273.75747224594363,48.53054409441401L274.9871904355252,48.12254449759298L276.2169086251067,47.397552732815775L277.4466268146883,46.92104192550099L278.6763450042699,46.63268130819891L279.9060631938514,46.467027336557315L281.13578138343297,46.13367428251304L282.3654995730145,45.794185896185795L283.59521776259606,45.41788551616038L284.82493595217767,44.76242751725744L286.05465414175916,44.236834051678485L287.28437233134076,44.00062375878208L288.51409052092225,43.737827025992615L289.74380871050386,43.46173707325656L290.9735269000854,43.167241123671495L292.20324508966695,42.80627907435361L293.43296327924855,42.23773828279355L294.6626814688301,41.78883647075237L295.8923996584116,41.619092277588734L297.1221178479932,41.609889279164214L298.35183603757474,41.36140832170177L299.5815542271563,41.11292736423934L300.81127241673784,40.79389008552212L302.0409906063194,40.31942438896836L303.27070879590093,39.956417228889514L304.5004269854825,39.7651993727353L305.7301451750641,39.656808502401894L306.9598633646456,39.41548543260299L308.1895815542271,39.1987036919362L309.4192997438087,38.96556106518133L310.64901793339027,38.57699002058985L311.8787361229719,38.17819342219339L313.10845431255336,37.946073350819006L314.3381725021349,37.710885613303155L315.56789069171646,37.280389798111074L316.797608881298,36.87954808895353L318.0273270708796,36.45621016142497L319.25704526046115,35.931639251226485L320.4867634500427,35.32015113368523L321.71648163962425,35.00622663187056L322.9461998292058,34.79967044500879L324.1759180187874,34.3517911883481L325.40563620836895,33.84664883037922L326.6353543979505,33.29037870338517L327.865072587532,32.68604847350744L329.0947907771136,32.12262045884981L330.32450896669513,31.811763623176613L331.5542271562767,31.434440687770728L332.7839453458583,30.925208108279836L334.0136635354398,30.464035631672605L335.2433817250213,29.89856250625398L336.4730999146029,29.34331493464045L337.7028181041845,28.574353288501566L338.932536293766,28.16942135782207L340.16225448334757,27.81561719616774L341.3919726729291,27.274685399881193L342.62169086251066,26.775678374195326L343.8514090520922,26.197934584210714L345.0811272416738,25.690747115480814L346.31084543125536,24.935078689288463L347.5405636208369,24.50253776333539L348.7702818104184,24.265304915058508L350,24.132372715592993L350,60.010773351330286L348.7702818104184,60.1222318878052L347.5405636208369,60.26436708569527L346.31084543125536,60.52818637386521L345.0811272416738,61.02719339955111L343.8514090520922,61.36565923049781L342.62169086251066,61.70514761682513L341.3919726729291,61.9975984556492L340.16225448334757,62.281868851429294L338.932536293766,62.470019041442L337.7028181041845,62.66123689759617L336.4730999146029,63.012995948489475L335.2433817250213,63.30851445345508L334.0136635354398,63.57540140776656L332.7839453458583,63.80547636837992L331.5542271562767,64.06009265812541L330.32450896669513,64.17052863921978L329.0947907771136,64.32800216781737L327.865072587532,64.71555065702836L326.6353543979505,65.15115924912294L325.40563620836895,65.4466777540886L324.1759180187874,65.75446692362023L322.9461998292058,66.02135387793172L321.71648163962425,66.10520341913302L320.4867634500427,66.31584982751683L319.25704526046115,66.78929296869005L318.0273270708796,67.28216466209291L316.797608881298,67.59813427466857L315.56789069171646,67.91819410876627L314.3381725021349,68.33130648248984L313.10845431255336,68.50105067565347L311.8787361229719,68.69431364256867L310.64901793339027,69.10538090553122L309.4192997438087,69.65347058948126L308.1895815542271,69.97046275743743L306.9598633646456,70.19440238576775L305.7301451750641,70.50219155529943L304.5004269854825,70.64330419780896L303.27070879590093,70.90814604135944L302.0409906063194,71.35193507649812L300.81127241673784,71.92354353419975L299.5815542271563,72.25587403286349L298.35183603757474,72.62399396984482L297.1221178479932,72.90008392258089L295.8923996584116,72.91644480866893L294.6626814688301,73.11482055248665L293.43296327924855,73.51975248316616L292.20324508966695,74.18645859125463L290.9735269000854,74.5228793114404L289.74380871050386,74.81737526102553L288.51409052092225,75.05256299854139L287.28437233134076,75.26116429616418L286.05465414175916,75.57815646412035L284.82493595217767,76.10988526198233L283.59521776259606,76.9085010141558L282.3654995730145,77.36149304771901L281.13578138343297,77.83800385503379L279.9060631938514,78.09364270015973L278.6763450042699,78.31451466234854L277.4466268146883,78.61003316731416L276.2169086251067,79.37592714731153L274.9871904355252,80.65514392832178L273.75747224594363,81.24209071673097L272.5277540563621,82.00798469672831L271.29803586678054,82.94566798065033L270.068317677199,83.32094580529522L268.8385994876174,83.98458424724221L267.6088812980359,84.9232900865447L266.3791631084543,86.8344460927063L265.14944491887275,87.55637019134204L263.9197267292912,88.39384304797464L262.69000853970965,89.28039856287143L261.4602903501281,89.9920971077021L260.23057216054656,92.47792923770687L259.00085397096495,93.46469517989303L257.77113578138346,94.92899448477452L256.54141759180186,95.49549016557361L255.3116994022203,96.20105337812126L254.08198121263877,96.27569992089803L252.85226302305722,96.61109808570328L251.62254483347564,97.16532310193632L250.39282664389407,98.07948761210675L249.16310845431258,99.24111052435912L247.933390264731,101.46107825543285L246.70367207514946,102.4325058669115L245.47395388556788,102.97752788472002L244.24423569598633,103.34155760017939L243.0145175064048,104.451030188026L241.7847993168232,106.70474224665642L240.55508112724166,107.59232031693375L239.32536293766012,108.57499603759788L238.09564474807854,109.47484477244127L236.865926558497,110.27141541385373L235.63620836891548,110.89108397443906L234.4064901793339,112.630450676676L233.17677198975235,115.22774134315573L231.9470538001708,117.97739276133045L230.71733561058923,119.57564682105792L229.48761742100768,121.1002768933891L228.2578992314261,122.11567438622939L227.02818104184462,122.35699745602827L225.79846285226301,125.87970074186393L224.56874466268144,129.66111053896702L223.3390264730999,133.88630937120877L222.10930828351837,138.86717662964284L220.87959009393683,141.09941502528267L219.64987190435525,142.91240571491593L218.4201537147737,143.7590815699731L217.19043552519213,148.27264101951693L215.96071733561058,151.9589531662332L214.730999146029,155.92442293182694L213.50128095644752,159.52381787120038L212.27156276686594,162.44628114868027L211.04184457728434,165.22660922827012L209.8121263877028,166.61830710113583L208.58240819812127,169.53872526785474L207.35269000853972,173.32320273109934L206.12297181895815,177.11177041586598L204.8932536293766,181.01895452477106L203.66353543979506,185.4087847732739L202.43381725021348,187.70953437940747L201.2040990606319,189.56138217349988L199.97438087105039,190.84673428679318L198.74466268146884,192.88673227089828L197.5149444918873,196.19878914835013L196.28522630230572,198.83595947466947L195.05550811272417,202.68076770536382L193.82578992314262,205.24738171042836L192.59607173356108,206.09303501010504L191.36635354397953,208.28437119052472L190.13663535439795,212.42469792618462L188.90691716481638,216.51491944819986L187.67719897523486,218.50072199713827L186.44748078565328,220.69205817755798L185.21776259607174,222.039786169062L183.9880444064902,222.4682368734931L182.7583262169086,223.80880697733357L181.5286080273271,227.1903976206597L180.29888983774552,230.1537631133598L179.06917164816397,233.95766912883394L177.83945345858243,236.3351103885053L176.60973526900085,237.20223735117256L175.38001707941928,238.1634394088461L174.15029888983776,239.62569360296658L172.9205807002562,242.69540485523902L171.69086251067466,245.64649968337304L170.4611443210931,248.22027157610114L169.2314261315115,249.03218054822116L168.00170794193,249.62526266891336L166.77198975234842,249.96372849986014L165.54227156276687,250.86050956856198L164.31255337318532,252.34935020257555L163.08283518360375,253.61322865287823L161.8531169940222,254.6327163672405L160.62339880444065,255.64606874931982L159.44491887275834,256.511150601226L158.21520068317676,256.84245854450927L156.9854824935952,257.7075403964155L155.75576430401367,259.2822756823914L154.52604611443212,262.66079865957596L153.29632792485057,264.41754880328153L152.066609735269,266.5362835516854L150.83689154568745,267.3543278560885L149.6071733561059,267.6610944702396L148.37745516652433,268.46686811007663L147.14773697694278,269.25525830844504L145.91801878736123,269.84322765223476L144.68830059777966,270.4710766558641L143.45858240819814,270.9997377875846L142.2288642186166,271.56521091300317L140.999146029035,271.771767099865L139.76942783945344,272.6153752887806L138.5397096498719,274.4150727584674L137.30999146029035,277.0634911939722L136.0802732707088,279.7456539570337L134.85055508112725,282.7540118864759L133.62083689154568,283.47184576358956L132.39111870196413,283.5567178601714L131.16140051238258,284.14161953781957L129.931682322801,285.4504904248645L128.70196413321946,287.20417290242847L127.47224594363792,288.16332984934104L126.24252775405637,289.6521704833546L125.0128095644748,290.15015495366L123.78309137489325,290.2023052780657L122.5533731853117,290.89968804756927L121.32365499573015,293.49288849252696L120.0939368061486,297.1740878623407L118.86421861656703,299.25601061704646L117.63450042698548,300.614986717736L116.40478223740394,300.9115277780821L115.17506404782236,300.94936232716077L113.94534585824083,301.37679047621134L112.71562766865927,302.0475868058219L111.48590947907772,302.35128575383146L110.25619128949616,302.8093905642972L109.02647309991461,303.5906228750021L107.79675491033305,303.9996450272036L106.5670367207515,304.0415697978043L105.33731853116996,304.4700205022354L104.10760034158838,304.84120810535825L102.87788215200683,305.06105751216654L101.64816396242529,305.3320346880001L100.41844577284373,305.72367339873307L99.18872758326216,305.9639739131514L97.95900939368062,305.9741994669565L96.72929120409906,306.50490570943794L95.4995730145175,306.6818077902651L94.26985482493595,306.8525745388093L93.0401366353544,307.2912507970454L91.81041844577284,307.57858885896695L90.58070025619129,307.7708292705017L89.35098206660973,307.7738969366432L88.12126387702818,307.81582170724386L86.89154568744664,307.90171635920615L85.66182749786506,307.9600020158949L84.43210930828351,308.0949793261214L83.20239111870197,308.26267840852404L81.97267292912042,308.5009338121814L80.74295473953885,308.5193398090305L79.5132365499573,308.77702376491743L78.28351836037575,309.2934142320719L77.05380017079419,309.859909912871L75.82408198121264,309.96830078320437L74.59436379163108,310L73.36464560204954,310L72.13492741246797,310L70.90520922288643,310L69.67549103330487,310L68.44577284372332,310L67.21605465414176,310L65.98633646456021,310L64.75661827497865,310L63.52690008539709,310L62.29718189581554,310L61.067463706233994,310L59.83774551665243,310L58.608027327070886,310L57.378309137489325,310L56.14859094790777,310L54.918872758326216,310L53.68915456874467,310L52.45943637916311,310L51.229718189581554,310L50,310Z" class="vaccineArea" id="vaccine-partial" fill="#E15759" fill-opacity="0.5" style="fill-opacity: 0.5;"></path></g><g><path class="vaccineLine" id="vaccineLine-partial" d="M50,309.99795488923905L51.229718189581554,309.99590977847794L52.45943637916311,309.8292332514559L53.68915456874467,309.42430132077635L54.918872758326216,309.08890315597114L56.14859094790777,308.8496251969332L57.378309137489325,308.1716709796592L58.608027327070886,307.9088742468697L59.83774551665243,307.5734760820645L61.067463706233994,307.4824686531996L62.29718189581554,307.4824686531996L63.52690008539709,307.1440028222529L64.75661827497865,307.0795818332811L65.98633646456021,306.70941678553874L67.21605465414176,306.1296278847931L68.44577284372332,305.53041043181787L69.67549103330487,305.2829520297359L70.90520922288643,305.15513260717296L72.13492741246797,304.53955426810967L73.36464560204954,304.51603549435805L74.59436379163108,304.20517865868493L75.82408198121264,303.4587132309171L77.05380017079419,302.890172439357L78.28351836037575,302.39627819057364L79.5132365499573,301.67537664731844L80.74295473953885,301.3471363701767L81.97267292912042,301.30112137805406L83.20239111870197,300.6661144867612L84.43210930828351,299.3572435997163L85.66182749786506,298.2355003473036L86.89154568744664,296.9992308922745L88.12126387702818,295.22918752862245L89.35098206660973,293.9632639675587L90.58070025619129,293.83646710037624L91.81041844577284,292.8507237135706L93.0401366353544,291.4416423992363L94.26985482493595,289.58365927286087L95.4995730145175,286.45873003004124L96.72929120409906,283.6119358507186L97.95900939368062,282.3582829542209L99.18872758326216,281.4891108807927L100.41844577284373,280.45735250186436L101.64816396242529,278.7067376904418L102.87788215200683,277.7782574049443L104.10760034158838,277.0757618585382L105.33731853116996,276.06445458722L106.5670367207515,274.5480049579328L107.79675491033305,273.09290865147585L109.02647309991461,272.5233453045352L110.25619128949616,271.4486395996257L111.48590947907772,269.89231031049894L112.71562766865927,267.3093354193463L113.94534585824083,264.9809768179391L115.17506404782236,264.1700904011996L116.40478223740394,263.890932782322L117.63450042698548,263.210933454287L118.86421861656703,262.0585135404592L120.0939368061486,261.30080000350597L121.32365499573015,260.64022922770044L122.5533731853117,259.84672625242945L123.78309137489325,259.2659147963033L125.0128095644748,258.9663060698157L126.24252775405637,258.4560509349443L127.47224594363792,257.708562951796L128.70196413321946,257.1717213770315L129.931682322801,255.59903120181664L131.16140051238258,253.20829672219872L132.39111870196413,251.408599252512L133.62083689154568,251.34213315277927L134.85055508112725,251.05070486933568L136.0802732707088,250.60180305729455L137.30999146029035,249.83488652191667L138.5397096498719,248.76120337238766L139.76942783945344,246.63224307017867L140.999146029035,245.67001845712463L142.2288642186166,244.68734273646047L143.45858240819814,243.4705018336609L144.68830059777966,241.17384244904935L145.91801878736123,236.89751584778242L147.14773697694278,233.83905270469552L148.37745516652433,230.42678539995427L149.6071733561059,228.44507307253787L150.83689154568745,227.76507374450284L152.066609735269,226.5727741708354L153.29632792485057,225.02564788013314L154.52604611443212,222.86907858265062L155.75576430401367,219.41590906268922L156.9854824935952,216.72249819044217L158.21520068317676,213.73970414551255L159.44491887275834,213.15071224634235L160.62339880444065,211.55245818661487L161.8531169940222,208.39787483776064L163.08283518360375,205.59402798441917L164.31255337318532,201.254302949561L165.54227156276687,197.80215598498012L166.77198975234842,196.3777363399383L168.00170794193,195.47277482819246L169.2314261315115,193.16998011129783L170.4611443210931,189.28222455462236L171.69086251067466,185.51001775594378L172.9205807002562,182.5333590432972L174.15029888983776,180.05161713481442L175.38001707941928,178.4012127506813L176.60973526900085,176.46347030462653L177.83945345858243,173.1043758796715L179.06917164816397,168.3546061372313L180.29888983774552,163.20808490715564L181.5286080273271,158.6853224591872L182.7583262169086,154.65543170462172L183.9880444064902,152.01621626754138L185.21776259607174,151.47119424973286L186.44748078565328,148.962865901357L187.67719897523486,144.95035858826003L188.90691716481638,140.20570162272236L190.13663535439795,134.92522563780062L191.36635354397953,130.1662528969359L192.59607173356108,124.86225813826263L193.82578992314262,122.6617189594184L195.05550811272417,120.15134550028154L196.28522630230572,117.46202484955654L197.5149444918873,113.12434492545935L198.74466268146884,109.2744239178625L199.97438087105039,104.73939080532807L201.2040990606319,100.56225207597002L202.43381725021348,100.17572614213958L203.66353543979506,99.1173813233181L204.8932536293766,97.42607472396483L206.12297181895815,95.60797125742904L207.35269000853972,94.0669802990098L208.58240819812127,92.00346354115311L209.8121263877028,90.31011183103881L211.04184457728434,89.79781158540638L212.27156276686594,89.18530091248459L213.50128095644752,87.85700147321015L214.730999146029,86.28431129799527L215.96071733561058,84.53676415271427L217.19043552519213,82.90987854233269L218.4201537147737,81.94151859699559L219.64987190435525,81.48750400805189L220.87959009393683,80.89135422121818L222.10930828351837,79.62543066015442L223.3390264730999,78.8104540218929L224.56874466268144,77.68768821409972L225.79846285226301,76.4780051989637L227.02818104184462,75.4339761554693L228.2578992314261,74.91656313293437L229.48761742100768,74.43800721485862L230.71733561058923,73.67722601176374L231.9470538001708,72.91030947638588L233.17677198975235,71.44294250536295L234.4064901793339,69.68619236165739L235.63620836891548,67.76685591245172L236.865926558497,67.09708213822174L238.09564474807854,66.15019585587518L239.32536293766012,65.04583604493106L240.55508112724166,64.17359630536133L241.7847993168232,63.152063480238L243.0145175064048,61.806380599494986L244.24423569598633,60.31958507624242L245.47395388556788,59.85329982273273L246.70367207514946,59.287826697314074L247.933390264731,58.73973701336409L249.16310845431258,57.763196624982896L250.39282664389407,56.77234046127472L251.62254483347564,55.99008559518927L252.85226302305722,55.57799577684625L254.08198121263877,55.2865674934027L255.3116994022203,55.251800610465565L256.54141759180186,54.73950036483314L257.77113578138346,54.2210647869177L259.00085397096495,53.53186246045817L260.23057216054656,52.89583301378477L261.4602903501281,52.35490121749825L262.69000853970965,52.10335259389433L263.9197267292912,51.74443565533744L265.14944491887275,51.414150267434735L266.3791631084543,51.00001533833069L267.6088812980359,50.3915948869309L268.8385994876174,49.88542997358158L270.068317677199,49.62365579617256L271.29803586678054,49.39664850170071L272.5277540563621,48.97535568493314L273.75747224594363,48.53054409441401L274.9871904355252,48.12254449759298L276.2169086251067,47.397552732815775L277.4466268146883,46.92104192550099L278.6763450042699,46.63268130819891L279.9060631938514,46.467027336557315L281.13578138343297,46.13367428251304L282.3654995730145,45.794185896185795L283.59521776259606,45.41788551616038L284.82493595217767,44.76242751725744L286.05465414175916,44.236834051678485L287.28437233134076,44.00062375878208L288.51409052092225,43.737827025992615L289.74380871050386,43.46173707325656L290.9735269000854,43.167241123671495L292.20324508966695,42.80627907435361L293.43296327924855,42.23773828279355L294.6626814688301,41.78883647075237L295.8923996584116,41.619092277588734L297.1221178479932,41.609889279164214L298.35183603757474,41.36140832170177L299.5815542271563,41.11292736423934L300.81127241673784,40.79389008552212L302.0409906063194,40.31942438896836L303.27070879590093,39.956417228889514L304.5004269854825,39.7651993727353L305.7301451750641,39.656808502401894L306.9598633646456,39.41548543260299L308.1895815542271,39.1987036919362L309.4192997438087,38.96556106518133L310.64901793339027,38.57699002058985L311.8787361229719,38.17819342219339L313.10845431255336,37.946073350819006L314.3381725021349,37.710885613303155L315.56789069171646,37.280389798111074L316.797608881298,36.87954808895353L318.0273270708796,36.45621016142497L319.25704526046115,35.931639251226485L320.4867634500427,35.32015113368523L321.71648163962425,35.00622663187056L322.9461998292058,34.79967044500879L324.1759180187874,34.3517911883481L325.40563620836895,33.84664883037922L326.6353543979505,33.29037870338517L327.865072587532,32.68604847350744L329.0947907771136,32.12262045884981L330.32450896669513,31.811763623176613L331.5542271562767,31.434440687770728L332.7839453458583,30.925208108279836L334.0136635354398,30.464035631672605L335.2433817250213,29.89856250625398L336.4730999146029,29.34331493464045L337.7028181041845,28.574353288501566L338.932536293766,28.16942135782207L340.16225448334757,27.81561719616774L341.3919726729291,27.274685399881193L342.62169086251066,26.775678374195326L343.8514090520922,26.197934584210714L345.0811272416738,25.690747115480814L346.31084543125536,24.935078689288463L347.5405636208369,24.50253776333539L348.7702818104184,24.265304915058508L350,24.132372715592993" stroke="#E15759" stroke-width="5" fill="none" style="stroke-width: 5;"></path></g><g><path d="M50,310L51.229718189581554,310L52.45943637916311,310L53.68915456874467,310L54.918872758326216,310L56.14859094790777,310L57.378309137489325,310L58.608027327070886,310L59.83774551665243,310L61.067463706233994,310L62.29718189581554,310L63.52690008539709,310L64.75661827497865,310L65.98633646456021,310L67.21605465414176,310L68.44577284372332,310L69.67549103330487,310L70.90520922288643,310L72.13492741246797,310L73.36464560204954,310L74.59436379163108,310L75.82408198121264,309.96830078320437L77.05380017079419,309.859909912871L78.28351836037575,309.2934142320719L79.5132365499573,308.77702376491743L80.74295473953885,308.5193398090305L81.97267292912042,308.5009338121814L83.20239111870197,308.26267840852404L84.43210930828351,308.0949793261214L85.66182749786506,307.9600020158949L86.89154568744664,307.90171635920615L88.12126387702818,307.81582170724386L89.35098206660973,307.7738969366432L90.58070025619129,307.7708292705017L91.81041844577284,307.57858885896695L93.0401366353544,307.2912507970454L94.26985482493595,306.8525745388093L95.4995730145175,306.6818077902651L96.72929120409906,306.50490570943794L97.95900939368062,305.9741994669565L99.18872758326216,305.9639739131514L100.41844577284373,305.72367339873307L101.64816396242529,305.3320346880001L102.87788215200683,305.06105751216654L104.10760034158838,304.84120810535825L105.33731853116996,304.4700205022354L106.5670367207515,304.0415697978043L107.79675491033305,303.9996450272036L109.02647309991461,303.5906228750021L110.25619128949616,302.8093905642972L111.48590947907772,302.35128575383146L112.71562766865927,302.0475868058219L113.94534585824083,301.37679047621134L115.17506404782236,300.94936232716077L116.40478223740394,300.9115277780821L117.63450042698548,300.614986717736L118.86421861656703,299.25601061704646L120.0939368061486,297.1740878623407L121.32365499573015,293.49288849252696L122.5533731853117,290.89968804756927L123.78309137489325,290.2023052780657L125.0128095644748,290.15015495366L126.24252775405637,289.6521704833546L127.47224594363792,288.16332984934104L128.70196413321946,287.20417290242847L129.931682322801,285.4504904248645L131.16140051238258,284.14161953781957L132.39111870196413,283.5567178601714L133.62083689154568,283.47184576358956L134.85055508112725,282.7540118864759L136.0802732707088,279.7456539570337L137.30999146029035,277.0634911939722L138.5397096498719,274.4150727584674L139.76942783945344,272.6153752887806L140.999146029035,271.771767099865L142.2288642186166,271.56521091300317L143.45858240819814,270.9997377875846L144.68830059777966,270.4710766558641L145.91801878736123,269.84322765223476L147.14773697694278,269.25525830844504L148.37745516652433,268.46686811007663L149.6071733561059,267.6610944702396L150.83689154568745,267.3543278560885L152.066609735269,266.5362835516854L153.29632792485057,264.41754880328153L154.52604611443212,262.66079865957596L155.75576430401367,259.2822756823914L156.9854824935952,257.7075403964155L158.21520068317676,256.84245854450927L159.44491887275834,256.511150601226L160.62339880444065,255.64606874931982L161.8531169940222,254.6327163672405L163.08283518360375,253.61322865287823L164.31255337318532,252.34935020257555L165.54227156276687,250.86050956856198L166.77198975234842,249.96372849986014L168.00170794193,249.62526266891336L169.2314261315115,249.03218054822116L170.4611443210931,248.22027157610114L171.69086251067466,245.64649968337304L172.9205807002562,242.69540485523902L174.15029888983776,239.62569360296658L175.38001707941928,238.1634394088461L176.60973526900085,237.20223735117256L177.83945345858243,236.3351103885053L179.06917164816397,233.95766912883394L180.29888983774552,230.1537631133598L181.5286080273271,227.1903976206597L182.7583262169086,223.80880697733357L183.9880444064902,222.4682368734931L185.21776259607174,222.039786169062L186.44748078565328,220.69205817755798L187.67719897523486,218.50072199713827L188.90691716481638,216.51491944819986L190.13663535439795,212.42469792618462L191.36635354397953,208.28437119052472L192.59607173356108,206.09303501010504L193.82578992314262,205.24738171042836L195.05550811272417,202.68076770536382L196.28522630230572,198.83595947466947L197.5149444918873,196.19878914835013L198.74466268146884,192.88673227089828L199.97438087105039,190.84673428679318L201.2040990606319,189.56138217349988L202.43381725021348,187.70953437940747L203.66353543979506,185.4087847732739L204.8932536293766,181.01895452477106L206.12297181895815,177.11177041586598L207.35269000853972,173.32320273109934L208.58240819812127,169.53872526785474L209.8121263877028,166.61830710113583L211.04184457728434,165.22660922827012L212.27156276686594,162.44628114868027L213.50128095644752,159.52381787120038L214.730999146029,155.92442293182694L215.96071733561058,151.9589531662332L217.19043552519213,148.27264101951693L218.4201537147737,143.7590815699731L219.64987190435525,142.91240571491593L220.87959009393683,141.09941502528267L222.10930828351837,138.86717662964284L223.3390264730999,133.88630937120877L224.56874466268144,129.66111053896702L225.79846285226301,125.87970074186393L227.02818104184462,122.35699745602827L228.2578992314261,122.11567438622939L229.48761742100768,121.1002768933891L230.71733561058923,119.57564682105792L231.9470538001708,117.97739276133045L233.17677198975235,115.22774134315573L234.4064901793339,112.630450676676L235.63620836891548,110.89108397443906L236.865926558497,110.27141541385373L238.09564474807854,109.47484477244127L239.32536293766012,108.57499603759788L240.55508112724166,107.59232031693375L241.7847993168232,106.70474224665642L243.0145175064048,104.451030188026L244.24423569598633,103.34155760017939L245.47395388556788,102.97752788472002L246.70367207514946,102.4325058669115L247.933390264731,101.46107825543285L249.16310845431258,99.24111052435912L250.39282664389407,98.07948761210675L251.62254483347564,97.16532310193632L252.85226302305722,96.61109808570328L254.08198121263877,96.27569992089803L255.3116994022203,96.20105337812126L256.54141759180186,95.49549016557361L257.77113578138346,94.92899448477452L259.00085397096495,93.46469517989303L260.23057216054656,92.47792923770687L261.4602903501281,89.9920971077021L262.69000853970965,89.28039856287143L263.9197267292912,88.39384304797464L265.14944491887275,87.55637019134204L266.3791631084543,86.8344460927063L267.6088812980359,84.9232900865447L268.8385994876174,83.98458424724221L270.068317677199,83.32094580529522L271.29803586678054,82.94566798065033L272.5277540563621,82.00798469672831L273.75747224594363,81.24209071673097L274.9871904355252,80.65514392832178L276.2169086251067,79.37592714731153L277.4466268146883,78.61003316731416L278.6763450042699,78.31451466234854L279.9060631938514,78.09364270015973L281.13578138343297,77.83800385503379L282.3654995730145,77.36149304771901L283.59521776259606,76.9085010141558L284.82493595217767,76.10988526198233L286.05465414175916,75.57815646412035L287.28437233134076,75.26116429616418L288.51409052092225,75.05256299854139L289.74380871050386,74.81737526102553L290.9735269000854,74.5228793114404L292.20324508966695,74.18645859125463L293.43296327924855,73.51975248316616L294.6626814688301,73.11482055248665L295.8923996584116,72.91644480866893L297.1221178479932,72.90008392258089L298.35183603757474,72.62399396984482L299.5815542271563,72.25587403286349L300.81127241673784,71.92354353419975L302.0409906063194,71.35193507649812L303.27070879590093,70.90814604135944L304.5004269854825,70.64330419780896L305.7301451750641,70.50219155529943L306.9598633646456,70.19440238576775L308.1895815542271,69.97046275743743L309.4192997438087,69.65347058948126L310.64901793339027,69.10538090553122L311.8787361229719,68.69431364256867L313.10845431255336,68.50105067565347L314.3381725021349,68.33130648248984L315.56789069171646,67.91819410876627L316.797608881298,67.59813427466857L318.0273270708796,67.28216466209291L319.25704526046115,66.78929296869005L320.4867634500427,66.31584982751683L321.71648163962425,66.10520341913302L322.9461998292058,66.02135387793172L324.1759180187874,65.75446692362023L325.40563620836895,65.4466777540886L326.6353543979505,65.15115924912294L327.865072587532,64.71555065702836L329.0947907771136,64.32800216781737L330.32450896669513,64.17052863921978L331.5542271562767,64.06009265812541L332.7839453458583,63.80547636837992L334.0136635354398,63.57540140776656L335.2433817250213,63.30851445345508L336.4730999146029,63.012995948489475L337.7028181041845,62.66123689759617L338.932536293766,62.470019041442L340.16225448334757,62.281868851429294L341.3919726729291,61.9975984556492L342.62169086251066,61.70514761682513L343.8514090520922,61.36565923049781L345.0811272416738,61.02719339955111L346.31084543125536,60.52818637386521L347.5405636208369,60.26436708569527L348.7702818104184,60.1222318878052L350,60.010773351330286L350,310L348.7702818104184,310L347.5405636208369,310L346.31084543125536,310L345.0811272416738,310L343.8514090520922,310L342.62169086251066,310L341.3919726729291,310L340.16225448334757,310L338.932536293766,310L337.7028181041845,310L336.4730999146029,310L335.2433817250213,310L334.0136635354398,310L332.7839453458583,310L331.5542271562767,310L330.32450896669513,310L329.0947907771136,310L327.865072587532,310L326.6353543979505,310L325.40563620836895,310L324.1759180187874,310L322.9461998292058,310L321.71648163962425,310L320.4867634500427,310L319.25704526046115,310L318.0273270708796,310L316.797608881298,310L315.56789069171646,310L314.3381725021349,310L313.10845431255336,310L311.8787361229719,310L310.64901793339027,310L309.4192997438087,310L308.1895815542271,310L306.9598633646456,310L305.7301451750641,310L304.5004269854825,310L303.27070879590093,310L302.0409906063194,310L300.81127241673784,310L299.5815542271563,310L298.35183603757474,310L297.1221178479932,310L295.8923996584116,310L294.6626814688301,310L293.43296327924855,310L292.20324508966695,310L290.9735269000854,310L289.74380871050386,310L288.51409052092225,310L287.28437233134076,310L286.05465414175916,310L284.82493595217767,310L283.59521776259606,310L282.3654995730145,310L281.13578138343297,310L279.9060631938514,310L278.6763450042699,310L277.4466268146883,310L276.2169086251067,310L274.9871904355252,310L273.75747224594363,310L272.5277540563621,310L271.29803586678054,310L270.068317677199,310L268.8385994876174,310L267.6088812980359,310L266.3791631084543,310L265.14944491887275,310L263.9197267292912,310L262.69000853970965,310L261.4602903501281,310L260.23057216054656,310L259.00085397096495,310L257.77113578138346,310L256.54141759180186,310L255.3116994022203,310L254.08198121263877,310L252.85226302305722,310L251.62254483347564,310L250.39282664389407,310L249.16310845431258,310L247.933390264731,310L246.70367207514946,310L245.47395388556788,310L244.24423569598633,310L243.0145175064048,310L241.7847993168232,310L240.55508112724166,310L239.32536293766012,310L238.09564474807854,310L236.865926558497,310L235.63620836891548,310L234.4064901793339,310L233.17677198975235,310L231.9470538001708,310L230.71733561058923,310L229.48761742100768,310L228.2578992314261,310L227.02818104184462,310L225.79846285226301,310L224.56874466268144,310L223.3390264730999,310L222.10930828351837,310L220.87959009393683,310L219.64987190435525,310L218.4201537147737,310L217.19043552519213,310L215.96071733561058,310L214.730999146029,310L213.50128095644752,310L212.27156276686594,310L211.04184457728434,310L209.8121263877028,310L208.58240819812127,310L207.35269000853972,310L206.12297181895815,310L204.8932536293766,310L203.66353543979506,310L202.43381725021348,310L201.2040990606319,310L199.97438087105039,310L198.74466268146884,310L197.5149444918873,310L196.28522630230572,310L195.05550811272417,310L193.82578992314262,310L192.59607173356108,310L191.36635354397953,310L190.13663535439795,310L188.90691716481638,310L187.67719897523486,310L186.44748078565328,310L185.21776259607174,310L183.9880444064902,310L182.7583262169086,310L181.5286080273271,310L180.29888983774552,310L179.06917164816397,310L177.83945345858243,310L176.60973526900085,310L175.38001707941928,310L174.15029888983776,310L172.9205807002562,310L171.69086251067466,310L170.4611443210931,310L169.2314261315115,310L168.00170794193,310L166.77198975234842,310L165.54227156276687,310L164.31255337318532,310L163.08283518360375,310L161.8531169940222,310L160.62339880444065,310L159.44491887275834,310L158.21520068317676,310L156.9854824935952,310L155.75576430401367,310L154.52604611443212,310L153.29632792485057,310L152.066609735269,310L150.83689154568745,310L149.6071733561059,310L148.37745516652433,310L147.14773697694278,310L145.91801878736123,310L144.68830059777966,310L143.45858240819814,310L142.2288642186166,310L140.999146029035,310L139.76942783945344,310L138.5397096498719,310L137.30999146029035,310L136.0802732707088,310L134.85055508112725,310L133.62083689154568,310L132.39111870196413,310L131.16140051238258,310L129.931682322801,310L128.70196413321946,310L127.47224594363792,310L126.24252775405637,310L125.0128095644748,310L123.78309137489325,310L122.5533731853117,310L121.32365499573015,310L120.0939368061486,310L118.86421861656703,310L117.63450042698548,310L116.40478223740394,310L115.17506404782236,310L113.94534585824083,310L112.71562766865927,310L111.48590947907772,310L110.25619128949616,310L109.02647309991461,310L107.79675491033305,310L106.5670367207515,310L105.33731853116996,310L104.10760034158838,310L102.87788215200683,310L101.64816396242529,310L100.41844577284373,310L99.18872758326216,310L97.95900939368062,310L96.72929120409906,310L95.4995730145175,310L94.26985482493595,310L93.0401366353544,310L91.81041844577284,310L90.58070025619129,310L89.35098206660973,310L88.12126387702818,310L86.89154568744664,310L85.66182749786506,310L84.43210930828351,310L83.20239111870197,310L81.97267292912042,310L80.74295473953885,310L79.5132365499573,310L78.28351836037575,310L77.05380017079419,310L75.82408198121264,310L74.59436379163108,310L73.36464560204954,310L72.13492741246797,310L70.90520922288643,310L69.67549103330487,310L68.44577284372332,310L67.21605465414176,310L65.98633646456021,310L64.75661827497865,310L63.52690008539709,310L62.29718189581554,310L61.067463706233994,310L59.83774551665243,310L58.608027327070886,310L57.378309137489325,310L56.14859094790777,310L54.918872758326216,310L53.68915456874467,310L52.45943637916311,310L51.229718189581554,310L50,310Z" class="vaccineArea" id="vaccine-full" fill="#4E79A7" fill-opacity="0.5" style="fill-opacity: 0.5;"></path></g><g><path d="M50,310L51.229718189581554,310L52.45943637916311,310L53.68915456874467,310L54.918872758326216,310L56.14859094790777,310L57.378309137489325,310L58.608027327070886,310L59.83774551665243,310L61.067463706233994,310L62.29718189581554,310L63.52690008539709,310L64.75661827497865,310L65.98633646456021,310L67.21605465414176,310L68.44577284372332,310L69.67549103330487,310L70.90520922288643,310L72.13492741246797,310L73.36464560204954,310L74.59436379163108,310L75.82408198121264,309.96830078320437L77.05380017079419,309.859909912871L78.28351836037575,309.2934142320719L79.5132365499573,308.77702376491743L80.74295473953885,308.5193398090305L81.97267292912042,308.5009338121814L83.20239111870197,308.26267840852404L84.43210930828351,308.0949793261214L85.66182749786506,307.9600020158949L86.89154568744664,307.90171635920615L88.12126387702818,307.81582170724386L89.35098206660973,307.7738969366432L90.58070025619129,307.7708292705017L91.81041844577284,307.57858885896695L93.0401366353544,307.2912507970454L94.26985482493595,306.8525745388093L95.4995730145175,306.6818077902651L96.72929120409906,306.50490570943794L97.95900939368062,305.9741994669565L99.18872758326216,305.9639739131514L100.41844577284373,305.72367339873307L101.64816396242529,305.3320346880001L102.87788215200683,305.06105751216654L104.10760034158838,304.84120810535825L105.33731853116996,304.4700205022354L106.5670367207515,304.0415697978043L107.79675491033305,303.9996450272036L109.02647309991461,303.5906228750021L110.25619128949616,302.8093905642972L111.48590947907772,302.35128575383146L112.71562766865927,302.0475868058219L113.94534585824083,301.37679047621134L115.17506404782236,300.94936232716077L116.40478223740394,300.9115277780821L117.63450042698548,300.614986717736L118.86421861656703,299.25601061704646L120.0939368061486,297.1740878623407L121.32365499573015,293.49288849252696L122.5533731853117,290.89968804756927L123.78309137489325,290.2023052780657L125.0128095644748,290.15015495366L126.24252775405637,289.6521704833546L127.47224594363792,288.16332984934104L128.70196413321946,287.20417290242847L129.931682322801,285.4504904248645L131.16140051238258,284.14161953781957L132.39111870196413,283.5567178601714L133.62083689154568,283.47184576358956L134.85055508112725,282.7540118864759L136.0802732707088,279.7456539570337L137.30999146029035,277.0634911939722L138.5397096498719,274.4150727584674L139.76942783945344,272.6153752887806L140.999146029035,271.771767099865L142.2288642186166,271.56521091300317L143.45858240819814,270.9997377875846L144.68830059777966,270.4710766558641L145.91801878736123,269.84322765223476L147.14773697694278,269.25525830844504L148.37745516652433,268.46686811007663L149.6071733561059,267.6610944702396L150.83689154568745,267.3543278560885L152.066609735269,266.5362835516854L153.29632792485057,264.41754880328153L154.52604611443212,262.66079865957596L155.75576430401367,259.2822756823914L156.9854824935952,257.7075403964155L158.21520068317676,256.84245854450927L159.44491887275834,256.511150601226L160.62339880444065,255.64606874931982L161.8531169940222,254.6327163672405L163.08283518360375,253.61322865287823L164.31255337318532,252.34935020257555L165.54227156276687,250.86050956856198L166.77198975234842,249.96372849986014L168.00170794193,249.62526266891336L169.2314261315115,249.03218054822116L170.4611443210931,248.22027157610114L171.69086251067466,245.64649968337304L172.9205807002562,242.69540485523902L174.15029888983776,239.62569360296658L175.38001707941928,238.1634394088461L176.60973526900085,237.20223735117256L177.83945345858243,236.3351103885053L179.06917164816397,233.95766912883394L180.29888983774552,230.1537631133598L181.5286080273271,227.1903976206597L182.7583262169086,223.80880697733357L183.9880444064902,222.4682368734931L185.21776259607174,222.039786169062L186.44748078565328,220.69205817755798L187.67719897523486,218.50072199713827L188.90691716481638,216.51491944819986L190.13663535439795,212.42469792618462L191.36635354397953,208.28437119052472L192.59607173356108,206.09303501010504L193.82578992314262,205.24738171042836L195.05550811272417,202.68076770536382L196.28522630230572,198.83595947466947L197.5149444918873,196.19878914835013L198.74466268146884,192.88673227089828L199.97438087105039,190.84673428679318L201.2040990606319,189.56138217349988L202.43381725021348,187.70953437940747L203.66353543979506,185.4087847732739L204.8932536293766,181.01895452477106L206.12297181895815,177.11177041586598L207.35269000853972,173.32320273109934L208.58240819812127,169.53872526785474L209.8121263877028,166.61830710113583L211.04184457728434,165.22660922827012L212.27156276686594,162.44628114868027L213.50128095644752,159.52381787120038L214.730999146029,155.92442293182694L215.96071733561058,151.9589531662332L217.19043552519213,148.27264101951693L218.4201537147737,143.7590815699731L219.64987190435525,142.91240571491593L220.87959009393683,141.09941502528267L222.10930828351837,138.86717662964284L223.3390264730999,133.88630937120877L224.56874466268144,129.66111053896702L225.79846285226301,125.87970074186393L227.02818104184462,122.35699745602827L228.2578992314261,122.11567438622939L229.48761742100768,121.1002768933891L230.71733561058923,119.57564682105792L231.9470538001708,117.97739276133045L233.17677198975235,115.22774134315573L234.4064901793339,112.630450676676L235.63620836891548,110.89108397443906L236.865926558497,110.27141541385373L238.09564474807854,109.47484477244127L239.32536293766012,108.57499603759788L240.55508112724166,107.59232031693375L241.7847993168232,106.70474224665642L243.0145175064048,104.451030188026L244.24423569598633,103.34155760017939L245.47395388556788,102.97752788472002L246.70367207514946,102.4325058669115L247.933390264731,101.46107825543285L249.16310845431258,99.24111052435912L250.39282664389407,98.07948761210675L251.62254483347564,97.16532310193632L252.85226302305722,96.61109808570328L254.08198121263877,96.27569992089803L255.3116994022203,96.20105337812126L256.54141759180186,95.49549016557361L257.77113578138346,94.92899448477452L259.00085397096495,93.46469517989303L260.23057216054656,92.47792923770687L261.4602903501281,89.9920971077021L262.69000853970965,89.28039856287143L263.9197267292912,88.39384304797464L265.14944491887275,87.55637019134204L266.3791631084543,86.8344460927063L267.6088812980359,84.9232900865447L268.8385994876174,83.98458424724221L270.068317677199,83.32094580529522L271.29803586678054,82.94566798065033L272.5277540563621,82.00798469672831L273.75747224594363,81.24209071673097L274.9871904355252,80.65514392832178L276.2169086251067,79.37592714731153L277.4466268146883,78.61003316731416L278.6763450042699,78.31451466234854L279.9060631938514,78.09364270015973L281.13578138343297,77.83800385503379L282.3654995730145,77.36149304771901L283.59521776259606,76.9085010141558L284.82493595217767,76.10988526198233L286.05465414175916,75.57815646412035L287.28437233134076,75.26116429616418L288.51409052092225,75.05256299854139L289.74380871050386,74.81737526102553L290.9735269000854,74.5228793114404L292.20324508966695,74.18645859125463L293.43296327924855,73.51975248316616L294.6626814688301,73.11482055248665L295.8923996584116,72.91644480866893L297.1221178479932,72.90008392258089L298.35183603757474,72.62399396984482L299.5815542271563,72.25587403286349L300.81127241673784,71.92354353419975L302.0409906063194,71.35193507649812L303.27070879590093,70.90814604135944L304.5004269854825,70.64330419780896L305.7301451750641,70.50219155529943L306.9598633646456,70.19440238576775L308.1895815542271,69.97046275743743L309.4192997438087,69.65347058948126L310.64901793339027,69.10538090553122L311.8787361229719,68.69431364256867L313.10845431255336,68.50105067565347L314.3381725021349,68.33130648248984L315.56789069171646,67.91819410876627L316.797608881298,67.59813427466857L318.0273270708796,67.28216466209291L319.25704526046115,66.78929296869005L320.4867634500427,66.31584982751683L321.71648163962425,66.10520341913302L322.9461998292058,66.02135387793172L324.1759180187874,65.75446692362023L325.40563620836895,65.4466777540886L326.6353543979505,65.15115924912294L327.865072587532,64.71555065702836L329.0947907771136,64.32800216781737L330.32450896669513,64.17052863921978L331.5542271562767,64.06009265812541L332.7839453458583,63.80547636837992L334.0136635354398,63.57540140776656L335.2433817250213,63.30851445345508L336.4730999146029,63.012995948489475L337.7028181041845,62.66123689759617L338.932536293766,62.470019041442L340.16225448334757,62.281868851429294L341.3919726729291,61.9975984556492L342.62169086251066,61.70514761682513L343.8514090520922,61.36565923049781L345.0811272416738,61.02719339955111L346.31084543125536,60.52818637386521L347.5405636208369,60.26436708569527L348.7702818104184,60.1222318878052L350,60.010773351330286" class="vaccineLine" id="vaccineLine-full" stroke="#4E79A7" stroke-width="5" fill="none" style="stroke-width: 5;"></path></g><text class="vaccineEndLabel" id="endLabel-partial" x="355" y="24.132372715592993" fill="#E15759" style="font-size: 16pt; font-weight: bold; alignment-baseline: middle; fill-opacity: 1;">61%</text><text class="vaccineEndLabel" id="endLabel-full" x="355" y="60.010773351330286" fill="#4E79A7" style="font-size: 16pt; font-weight: bold; alignment-baseline: middle; fill-opacity: 1;">54%</text><g id="vaccineHoverOver" style="fill-opacity: 1; stroke-opacity: 1;"><line x1="186.44748078565328" x2="186.44748078565328" y1="310" y2="148.962865901357" stroke-width="2" stroke="black" style="stroke-dasharray: 3, 3;"></line><line x1="6.447480785653283" x2="186.44748078565328" y1="148.962865901357" y2="148.962865901357" stroke-width="2" stroke="black" style="stroke-dasharray: 3, 3;"></line><text x="6.447480785653283" y="111.96286590135699" style="font-weight: bold;">April 5, 2021</text><text x="6.447480785653283" y="127.96286590135699">Residents 16+ become</text><text x="6.447480785653283" y="143.962865901357">eligible for the vaccine.</text></g></svg>