<svg width="200" height="200"><g transform="translate(0, 170)" fill="none" font-size="10" font-family="sans-serif" text-anchor="middle" style="color: rgb(173, 173, 173); font-size: 12pt;"><path class="domain" stroke="currentColor" d="M10,6V0H190V6"></path><g class="tick" opacity="1" transform="translate(22.543125533731853,0)"><line stroke="currentColor" y2="6"></line><text fill="currentColor" y="9" dy="0.71em">Jan'21</text></g><g class="tick" opacity="1" transform="translate(88.91716481639625,0)"><line stroke="currentColor" y2="6"></line><text fill="currentColor" y="9" dy="0.71em">Apr</text></g><g class="tick" opacity="1" transform="translate(156.0597779675491,0)"><line stroke="currentColor" y2="6"></line><text fill="currentColor" y="9" dy="0.71em">Jul</text></g></g><g><line x1="10" x2="190" y1="125.00000000000001" y2="125.00000000000001" stroke="#d3d3d3" stroke-width="0.5px"></line><text fill="#adadad" x="10" y="120.00000000000001" style="font-size: 10pt;">100k</text><line x1="10" x2="190" y1="80" y2="80" stroke="#d3d3d3" stroke-width="0.5px"></line><text fill="#adadad" x="10" y="75" style="font-size: 10pt;">200k</text><line x1="10" x2="190" y1="35" y2="35" stroke="#d3d3d3" stroke-width="0.5px"></line><text fill="#adadad" x="10" y="30" style="font-size: 10pt;">300k administered doses</text></g><g><path d="M10,169.9991L10.737830913748933,169.9982L11.475661827497866,169.92485000000002L12.213492741246796,169.7471L12.95132365499573,169.5995L13.689154568744662,169.4942L14.426985482493595,169.19674999999998L15.164816396242529,169.082L15.90264730999146,168.98794999999998L16.640478223740395,168.96995L17.378309137489325,168.96995L18.116140051238258,168.938L18.85397096498719,168.93755L19.591801878736124,168.8345L20.329632792485057,168.67069999999998L21.067463706233987,168.49025L21.80529461998292,168.43895L22.543125533731853,168.3854L23.280956447480783,168.27965L24.01878736122972,168.2729L24.75661827497865,168.16355L25.494449188727586,167.99075L26.232280102476516,167.86565L26.97011101622545,167.5421L27.707941929974382,167.1587L28.445772843723315,167.02460000000002L29.183603757472248,167.00209999999998L29.921434671221178,166.6934L30.65926558497011,166.40179999999998L31.397096498719044,166.27714999999998L32.134927412467974,166.2128L32.87275832621691,166.01885L33.61058923996585,165.92615L34.34842015371478,165.91535000000002L35.08625106746371,165.725L35.824081981212636,165.46894999999998L36.56191289496157,165.1688L37.2997438087105,164.29805L38.03757472245944,163.48805000000002L38.77540563620837,162.9881L39.5132365499573,162.64565L40.251067463706235,162.42245L40.98889837745517,162.19250000000002L41.726729291204094,162.0125L42.46456020495303,161.87705L43.20239111870197,161.63945L43.9402220324509,161.0045L44.67805294619983,160.4591L45.415883859948764,160.22329999999997L46.15371477369769,159.91505L46.89154568744663,159.42319999999998L47.62937660119557,158.5718L48.36720751494449,157.63445L49.10503842869342,157.48415000000003L49.842869342442356,157.36355L50.58070025619129,157.22585L51.31853116994022,157.0814L52.05636208368916,156.4001L52.79419299743809,155.12075000000002L53.53202391118702,154.69594999999998L54.269854824935955,154.54070000000002L55.007685738684884,154.52134999999998L55.745516652433814,154.3634L56.48334756618275,154.15279999999998L57.22117847993169,154.00115L57.95900939368062,152.79605L58.696840307429554,151.5986L59.43467122117848,150.9065L60.17250213492741,150.8525L60.91033304867634,150.73145L61.64816396242527,150.22744999999998L62.38599487617421,149.70365L63.12382578992314,148.79104999999998L63.861656703672075,147.75199999999998L64.599487617421,147.48605L65.33731853116994,147.38075L66.07514944491888,147.14000000000001L66.8129803586678,146.93525L67.55081127241674,145.94705000000002L68.28864218616567,144.86975L69.0264730999146,143.84959999999998L69.76430401366353,143.5085L70.50213492741247,143.4509L71.23996584116139,143.2772L71.97779675491033,143.11565000000002L72.71562766865927,142.86364999999998L73.45345858240819,141.49970000000002L74.19128949615713,140.5376L74.92912040990606,139.6466L75.666951323655,139.45669999999998L76.37403928266438,139.14079999999998L77.11187019641332,138.60665L77.84970111016226,138.16115L78.58753202391118,136.89755000000002L79.32536293766012,135.64385L80.06319385140904,135.26315000000002L80.80102476515799,135.08855L81.53885567890691,134.21915L82.27668659265585,133.19L83.01451750640479,131.7662L83.75234842015372,130.28525L84.49017933390266,128.82365000000001L85.22801024765157,128.2652L85.9658411614005,127.51325000000001L86.70367207514944,126.57139999999998L87.44150298889838,124.9811L88.17933390264731,122.489L88.91716481639625,120.1328L89.65499573014517,118.07495L90.39282664389411,117.12005L91.13065755764303,116.91890000000001L91.86848847139197,115.87849999999999L92.6063193851409,114.59375L93.34415029888984,113.1083L94.08198121263877,110.83085L94.81981212638769,108.63485L95.55764304013664,106.5356L96.29547395388556,105.6491L97.0333048676345,104.37200000000001L97.77113578138344,102.48695000000001L98.50896669513237,100.4939L99.24679760888131,98.6426L99.98462852263022,96.9416L100.72245943637915,95.1965L101.46029035012809,94.50755L102.19812126387703,93.48785L102.93595217762598,91.69235L103.67378309137489,90.01655L104.41161400512382,88.83709999999999L105.14944491887276,87.04835L105.88727583262168,85.72085L106.62510674637062,85.17770000000002L107.36293766011956,84.27185L108.1007685738685,83.26339999999999L108.83859948761742,81.9665L109.57643040136635,80.2142L110.31426131511529,78.51185L111.05209222886423,76.6547L111.78992314261315,76.35185L112.52775405636208,75.68225L113.26558497011102,74.9114L114.00341588385993,73.23695000000001L114.74124679760887,71.4473L115.47907771135782,69.78365L116.21690862510675,68.32159999999999L116.95473953885568,68.27165L117.69257045260461,67.96879999999999L118.43040136635355,67.5854L119.16823228010249,67.2488L119.9060631938514,65.97845L120.64389410760035,64.8395L121.38172502134928,63.66994999999999L122.1195559350982,63.431900000000006L122.85738684884714,63.01070000000001L123.59521776259606,62.48015000000001L124.333048676345,62.04050000000001L125.07087959009392,61.60850000000001L125.80871050384287,60.55100000000001L126.54654141759181,59.77295000000001L127.28437233134073,59.615899999999996L128.02220324508966,59.345L128.7600341588386,59.08534999999999L129.49786507258753,58.31315L130.23569598633645,57.76819999999999L130.9735269000854,57.45184999999999L131.71135781383433,57.3056L132.44918872758328,57.223699999999994L133.1870196413322,57.203450000000004L133.92485055508112,56.93704999999999L134.66268146883007,56.67425L135.400512382579,55.97765L136.13834329632795,55.67615000000001L136.87617421007684,54.6794L137.6140051238258,54.46025L138.3518360375747,54.086749999999995L139.08966695132364,53.76545L139.8274978650726,53.44955L140.56532877882154,52.51670000000001L141.30315969257046,52.2422L142.04099060631938,51.97220000000001L142.77882152006833,51.834500000000006L143.51665243381726,51.447950000000006L144.25448334756618,51.105050000000006L144.99231426131513,50.81210000000001L145.73014517506408,50.1164L146.46797608881297,49.79194999999999L147.2058070025619,49.62815L147.94363791631085,49.53275000000001L148.68146883005977,49.4135L149.4192997438087,49.18895L150.15713065755764,48.933350000000004L150.8949615713066,48.41585L151.6327924850555,48.13415L152.37062339880444,47.97395L153.1084543125534,47.8556L153.8462852263023,47.7188L154.58411614005124,47.54645L155.3219470538002,47.3381L156.0597779675491,46.98125L156.797608881298,46.74680000000001L157.53543979504695,46.64735L158.2732707087959,46.640600000000006L159.01110162254483,46.49569999999999L159.74893253629375,46.3157L160.4867634500427,46.127599999999994L161.22459436379162,45.745099999999994L161.96242527754055,45.5174L162.7002561912895,45.376549999999995L163.43808710503845,45.296899999999994L164.17591801878737,45.15605000000001L164.9137489325363,45.02375000000001L165.65157984628522,44.863550000000004L166.38941076003414,44.5202L167.1272416737831,44.274499999999996L167.865072587532,44.1413L168.60290350128096,44.01485L169.34073441502989,43.860049999999994L170.0785653287788,43.663399999999996L170.81639624252776,43.41275L171.55422715627668,43.06985000000001L172.29205807002563,42.810199999999995L173.02988898377455,42.643249999999995L173.7677198975235,42.5537L174.50555081127243,42.3548L175.24338172502135,42.155L175.98121263877027,41.8796L176.7190435525192,41.5142L177.45687446626815,41.255900000000004L178.19470538001707,41.10784999999999L178.932536293766,40.9364L179.67036720751494,40.7213L180.4081981212639,40.51925000000001L181.14602903501282,40.2623L181.88385994876174,39.99905L182.6216908625107,39.647600000000004L183.3595217762596,39.455000000000005L184.09735269000853,39.26465L184.83518360375749,39.0239L185.5730145175064,38.7746L186.31084543125533,38.45555L187.04867634500425,38.174749999999996L187.7865072587532,37.804399999999994L188.52433817250213,37.56364999999999L189.26216908625105,37.42550000000001L190,37.35575" stroke="#4e79a7" stroke-width="3" fill="none" stroke-opacity="1"></path><path d="M10,169.9991L10.737830913748933,169.9982L11.475661827497866,169.92485000000002L12.213492741246796,169.7471L12.95132365499573,169.5995L13.689154568744662,169.4942L14.426985482493595,169.19674999999998L15.164816396242529,169.082L15.90264730999146,168.98794999999998L16.640478223740395,168.96995L17.378309137489325,168.96995L18.116140051238258,168.938L18.85397096498719,168.93755L19.591801878736124,168.8345L20.329632792485057,168.67069999999998L21.067463706233987,168.49025L21.80529461998292,168.43895L22.543125533731853,168.3854L23.280956447480783,168.27965L24.01878736122972,168.2729L24.75661827497865,168.16355L25.494449188727586,167.99075L26.232280102476516,167.86565L26.97011101622545,167.5421L27.707941929974382,167.1587L28.445772843723315,167.02460000000002L29.183603757472248,167.00209999999998L29.921434671221178,166.6934L30.65926558497011,166.40179999999998L31.397096498719044,166.27714999999998L32.134927412467974,166.2128L32.87275832621691,166.01885L33.61058923996585,165.92615L34.34842015371478,165.91535000000002L35.08625106746371,165.725L35.824081981212636,165.46894999999998L36.56191289496157,165.1688L37.2997438087105,164.29805L38.03757472245944,163.48805000000002L38.77540563620837,162.9881L39.5132365499573,162.64565L40.251067463706235,162.42245L40.98889837745517,162.19250000000002L41.726729291204094,162.0125L42.46456020495303,161.87705L43.20239111870197,161.63945L43.9402220324509,161.0045L44.67805294619983,160.4591L45.415883859948764,160.22329999999997L46.15371477369769,159.91505L46.89154568744663,159.42319999999998L47.62937660119557,158.5718L48.36720751494449,157.63445L49.10503842869342,157.48415000000003L49.842869342442356,157.36355L50.58070025619129,157.22585L51.31853116994022,157.0814L52.05636208368916,156.4001L52.79419299743809,155.12075000000002L53.53202391118702,154.69594999999998L54.269854824935955,154.54070000000002L55.007685738684884,154.52134999999998L55.745516652433814,154.3634L56.48334756618275,154.15279999999998L57.22117847993169,154.00115L57.95900939368062,152.79605L58.696840307429554,151.5986L59.43467122117848,150.9065L60.17250213492741,150.8525L60.91033304867634,150.73145L61.64816396242527,150.22744999999998L62.38599487617421,149.70365L63.12382578992314,148.79104999999998L63.861656703672075,147.75199999999998L64.599487617421,147.48605L65.33731853116994,147.38075L66.07514944491888,147.14000000000001L66.8129803586678,146.93525L67.55081127241674,145.94705000000002L68.28864218616567,144.86975L69.0264730999146,143.84959999999998L69.76430401366353,143.5085L70.50213492741247,143.4509L71.23996584116139,143.2772L71.97779675491033,143.11565000000002L72.71562766865927,142.86364999999998L73.45345858240819,141.49970000000002L74.19128949615713,140.5376L74.92912040990606,139.6466L75.666951323655,139.45669999999998L76.37403928266438,139.14079999999998L77.11187019641332,138.60665L77.84970111016226,138.16115L78.58753202391118,136.89755000000002L79.32536293766012,135.64385L80.06319385140904,135.26315000000002L80.80102476515799,135.08855L81.53885567890691,134.21915L82.27668659265585,133.19L83.01451750640479,131.7662L83.75234842015372,130.28525L84.49017933390266,128.82365000000001L85.22801024765157,128.2652L85.9658411614005,127.51325000000001L86.70367207514944,126.57139999999998L87.44150298889838,124.9811L88.17933390264731,122.489L88.91716481639625,120.1328L89.65499573014517,118.07495L90.39282664389411,117.12005L91.13065755764303,116.91890000000001L91.86848847139197,115.87849999999999L92.6063193851409,114.59375L93.34415029888984,113.1083L94.08198121263877,110.83085L94.81981212638769,108.63485L95.55764304013664,106.5356L96.29547395388556,105.6491L97.0333048676345,104.37200000000001L97.77113578138344,102.48695000000001L98.50896669513237,100.4939L99.24679760888131,98.6426L99.98462852263022,96.9416L100.72245943637915,95.1965L101.46029035012809,94.50755L102.19812126387703,93.48785L102.93595217762598,91.69235L103.67378309137489,90.01655L104.41161400512382,88.83709999999999L105.14944491887276,87.04835L105.88727583262168,85.72085L106.62510674637062,85.17770000000002L107.36293766011956,84.27185L108.1007685738685,83.26339999999999L108.83859948761742,81.9665L109.57643040136635,80.2142L110.31426131511529,78.51185L111.05209222886423,76.6547L111.78992314261315,76.35185L112.52775405636208,75.68225L113.26558497011102,74.9114L114.00341588385993,73.23695000000001L114.74124679760887,71.4473L115.47907771135782,69.78365L116.21690862510675,68.32159999999999L116.95473953885568,68.27165L117.69257045260461,67.96879999999999L118.43040136635355,67.5854L119.16823228010249,67.2488L119.9060631938514,65.97845L120.64389410760035,64.8395L121.38172502134928,63.66994999999999L122.1195559350982,63.431900000000006L122.85738684884714,63.01070000000001L123.59521776259606,62.48015000000001L124.333048676345,62.04050000000001L125.07087959009392,61.60850000000001L125.80871050384287,60.55100000000001L126.54654141759181,59.77295000000001L127.28437233134073,59.615899999999996L128.02220324508966,59.345L128.7600341588386,59.08534999999999L129.49786507258753,58.31315L130.23569598633645,57.76819999999999L130.9735269000854,57.45184999999999L131.71135781383433,57.3056L132.44918872758328,57.223699999999994L133.1870196413322,57.203450000000004L133.92485055508112,56.93704999999999L134.66268146883007,56.67425L135.400512382579,55.97765L136.13834329632795,55.67615000000001L136.87617421007684,54.6794L137.6140051238258,54.46025L138.3518360375747,54.086749999999995L139.08966695132364,53.76545L139.8274978650726,53.44955L140.56532877882154,52.51670000000001L141.30315969257046,52.2422L142.04099060631938,51.97220000000001L142.77882152006833,51.834500000000006L143.51665243381726,51.447950000000006L144.25448334756618,51.105050000000006L144.99231426131513,50.81210000000001L145.73014517506408,50.1164L146.46797608881297,49.79194999999999L147.2058070025619,49.62815L147.94363791631085,49.53275000000001L148.68146883005977,49.4135L149.4192997438087,49.18895L150.15713065755764,48.933350000000004L150.8949615713066,48.41585L151.6327924850555,48.13415L152.37062339880444,47.97395L153.1084543125534,47.8556L153.8462852263023,47.7188L154.58411614005124,47.54645L155.3219470538002,47.3381L156.0597779675491,46.98125L156.797608881298,46.74680000000001L157.53543979504695,46.64735L158.2732707087959,46.640600000000006L159.01110162254483,46.49569999999999L159.74893253629375,46.3157L160.4867634500427,46.127599999999994L161.22459436379162,45.745099999999994L161.96242527754055,45.5174L162.7002561912895,45.376549999999995L163.43808710503845,45.296899999999994L164.17591801878737,45.15605000000001L164.9137489325363,45.02375000000001L165.65157984628522,44.863550000000004L166.38941076003414,44.5202L167.1272416737831,44.274499999999996L167.865072587532,44.1413L168.60290350128096,44.01485L169.34073441502989,43.860049999999994L170.0785653287788,43.663399999999996L170.81639624252776,43.41275L171.55422715627668,43.06985000000001L172.29205807002563,42.810199999999995L173.02988898377455,42.643249999999995L173.7677198975235,42.5537L174.50555081127243,42.3548L175.24338172502135,42.155L175.98121263877027,41.8796L176.7190435525192,41.5142L177.45687446626815,41.255900000000004L178.19470538001707,41.10784999999999L178.932536293766,40.9364L179.67036720751494,40.7213L180.4081981212639,40.51925000000001L181.14602903501282,40.2623L181.88385994876174,39.99905L182.6216908625107,39.647600000000004L183.3595217762596,39.455000000000005L184.09735269000853,39.26465L184.83518360375749,39.0239L185.5730145175064,38.7746L186.31084543125533,38.45555L187.04867634500425,38.174749999999996L187.7865072587532,37.804399999999994L188.52433817250213,37.56364999999999L189.26216908625105,37.42550000000001L190,37.35575L190,170L189.26216908625105,170L188.52433817250213,170L187.7865072587532,170L187.04867634500425,170L186.31084543125533,170L185.5730145175064,170L184.83518360375749,170L184.09735269000853,170L183.3595217762596,170L182.6216908625107,170L181.88385994876174,170L181.14602903501282,170L180.4081981212639,170L179.67036720751494,170L178.932536293766,170L178.19470538001707,170L177.45687446626815,170L176.7190435525192,170L175.98121263877027,170L175.24338172502135,170L174.50555081127243,170L173.7677198975235,170L173.02988898377455,170L172.29205807002563,170L171.55422715627668,170L170.81639624252776,170L170.0785653287788,170L169.34073441502989,170L168.60290350128096,170L167.865072587532,170L167.1272416737831,170L166.38941076003414,170L165.65157984628522,170L164.9137489325363,170L164.17591801878737,170L163.43808710503845,170L162.7002561912895,170L161.96242527754055,170L161.22459436379162,170L160.4867634500427,170L159.74893253629375,170L159.01110162254483,170L158.2732707087959,170L157.53543979504695,170L156.797608881298,170L156.0597779675491,170L155.3219470538002,170L154.58411614005124,170L153.8462852263023,170L153.1084543125534,170L152.37062339880444,170L151.6327924850555,170L150.8949615713066,170L150.15713065755764,170L149.4192997438087,170L148.68146883005977,170L147.94363791631085,170L147.2058070025619,170L146.46797608881297,170L145.73014517506408,170L144.99231426131513,170L144.25448334756618,170L143.51665243381726,170L142.77882152006833,170L142.04099060631938,170L141.30315969257046,170L140.56532877882154,170L139.8274978650726,170L139.08966695132364,170L138.3518360375747,170L137.6140051238258,170L136.87617421007684,170L136.13834329632795,170L135.400512382579,170L134.66268146883007,170L133.92485055508112,170L133.1870196413322,170L132.44918872758328,170L131.71135781383433,170L130.9735269000854,170L130.23569598633645,170L129.49786507258753,170L128.7600341588386,170L128.02220324508966,170L127.28437233134073,170L126.54654141759181,170L125.80871050384287,170L125.07087959009392,170L124.333048676345,170L123.59521776259606,170L122.85738684884714,170L122.1195559350982,170L121.38172502134928,170L120.64389410760035,170L119.9060631938514,170L119.16823228010249,170L118.43040136635355,170L117.69257045260461,170L116.95473953885568,170L116.21690862510675,170L115.47907771135782,170L114.74124679760887,170L114.00341588385993,170L113.26558497011102,170L112.52775405636208,170L111.78992314261315,170L111.05209222886423,170L110.31426131511529,170L109.57643040136635,170L108.83859948761742,170L108.1007685738685,170L107.36293766011956,170L106.62510674637062,170L105.88727583262168,170L105.14944491887276,170L104.41161400512382,170L103.67378309137489,170L102.93595217762598,170L102.19812126387703,170L101.46029035012809,170L100.72245943637915,170L99.98462852263022,170L99.24679760888131,170L98.50896669513237,170L97.77113578138344,170L97.0333048676345,170L96.29547395388556,170L95.55764304013664,170L94.81981212638769,170L94.08198121263877,170L93.34415029888984,170L92.6063193851409,170L91.86848847139197,170L91.13065755764303,170L90.39282664389411,170L89.65499573014517,170L88.91716481639625,170L88.17933390264731,170L87.44150298889838,170L86.70367207514944,170L85.9658411614005,170L85.22801024765157,170L84.49017933390266,170L83.75234842015372,170L83.01451750640479,170L82.27668659265585,170L81.53885567890691,170L80.80102476515799,170L80.06319385140904,170L79.32536293766012,170L78.58753202391118,170L77.84970111016226,170L77.11187019641332,170L76.37403928266438,170L75.666951323655,170L74.92912040990606,170L74.19128949615713,170L73.45345858240819,170L72.71562766865927,170L71.97779675491033,170L71.23996584116139,170L70.50213492741247,170L69.76430401366353,170L69.0264730999146,170L68.28864218616567,170L67.55081127241674,170L66.8129803586678,170L66.07514944491888,170L65.33731853116994,170L64.599487617421,170L63.861656703672075,170L63.12382578992314,170L62.38599487617421,170L61.64816396242527,170L60.91033304867634,170L60.17250213492741,170L59.43467122117848,170L58.696840307429554,170L57.95900939368062,170L57.22117847993169,170L56.48334756618275,170L55.745516652433814,170L55.007685738684884,170L54.269854824935955,170L53.53202391118702,170L52.79419299743809,170L52.05636208368916,170L51.31853116994022,170L50.58070025619129,170L49.842869342442356,170L49.10503842869342,170L48.36720751494449,170L47.62937660119557,170L46.89154568744663,170L46.15371477369769,170L45.415883859948764,170L44.67805294619983,170L43.9402220324509,170L43.20239111870197,170L42.46456020495303,170L41.726729291204094,170L40.98889837745517,170L40.251067463706235,170L39.5132365499573,170L38.77540563620837,170L38.03757472245944,170L37.2997438087105,170L36.56191289496157,170L35.824081981212636,170L35.08625106746371,170L34.34842015371478,170L33.61058923996585,170L32.87275832621691,170L32.134927412467974,170L31.397096498719044,170L30.65926558497011,170L29.921434671221178,170L29.183603757472248,170L28.445772843723315,170L27.707941929974382,170L26.97011101622545,170L26.232280102476516,170L25.494449188727586,170L24.75661827497865,170L24.01878736122972,170L23.280956447480783,170L22.543125533731853,170L21.80529461998292,170L21.067463706233987,170L20.329632792485057,170L19.591801878736124,170L18.85397096498719,170L18.116140051238258,170L17.378309137489325,170L16.640478223740395,170L15.90264730999146,170L15.164816396242529,170L14.426985482493595,170L13.689154568744662,170L12.95132365499573,170L12.213492741246796,170L11.475661827497866,170L10.737830913748933,170L10,170Z" fill-opacity="0.4" fill="#4e79a7"></path></g><g></g></svg>